<?xml version="1.0" standalone="no"?><!DOCTYPE svg PUBLIC "-//W3C//DTD SVG 1.1//EN" "http://www.w3.org/Graphics/SVG/1.1/DTD/svg11.dtd"><svg class="icon" width="200px" height="200.00px" viewBox="0 0 1024 1024" version="1.1" xmlns="http://www.w3.org/2000/svg"><path fill="#000000" d="M211.126857 445.988571l551.277714 148.48c63.634286 17.408 127.597714-0.914286 136.594286-49.481142 7.058286-44.982857-41.472-86.784-100.937143-98.377143l-201.508571-39.826286c-13.531429-2.56-21.211429-7.68-30.866286-21.211429l-169.398857-244.297142a40.594286 40.594286 0 0 0-23.478857-16.384l-23.113143-5.778286c-9.654857-2.267429-17.042286 6.436571-14.482286 17.993143l53.686857 228.534857-106.422857-20.882286-105.728-123.428571c-6.765714-8.045714-14.445714-10.276571-26.989714-8.045715l-12.544 2.56c-9.654857 2.267429-14.482286 9.984-12.544 18.980572l34.084571 166.180571c4.827429 22.491429 23.149714 37.302857 52.370286 44.982857z m-47.542857 346.514286h696.539429a31.561143 31.561143 0 0 0 31.451428-31.488 31.561143 31.561143 0 0 0-31.451428-31.524571H163.584a31.561143 31.561143 0 0 0-31.524571 31.524571c0 17.334857 14.153143 31.451429 31.524571 31.451429z" /></svg>