<?xml version="1.0" standalone="no"?><!DOCTYPE svg PUBLIC "-//W3C//DTD SVG 1.1//EN" "http://www.w3.org/Graphics/SVG/1.1/DTD/svg11.dtd"><svg class="icon" width="200px" height="200.00px" viewBox="0 0 1024 1024" version="1.1" xmlns="http://www.w3.org/2000/svg"><path fill="#000000" d="M279.917714 570.733714l551.899429-147.236571c64-17.042286 110.262857-64.292571 93.220571-111.177143-16.091429-42.459429-79.067429-54.345143-136.301714-34.742857L594.651429 343.771429c-13.165714 4.534857-22.528 4.205714-37.924572-3.181715L287.963429 213.942857a41.216 41.216 0 0 0-28.928-2.56l-22.162286 7.058286c-9.325714 2.889143-12.214857 13.824-4.205714 22.491428l161.353142 171.629715-102.509714 35.035428-153.636571-54.637714c-9.984-3.218286-18.322286-1.609143-27.355429 6.765714l-9.618286 8.667429c-7.387429 6.765714-7.716571 15.725714-1.28 22.491428L212.114286 557.531429c15.725714 17.371429 38.875429 20.918857 67.803428 13.165714zM159.707429 792.502857h696.539428a31.561143 31.561143 0 0 0 31.488-31.488 31.561143 31.561143 0 0 0-31.451428-31.524571H159.670857a31.744 31.744 0 0 0-31.488 31.524571c0 17.334857 14.445714 31.488 31.488 31.488z" /></svg>