<?xml version="1.0" standalone="no"?><!DOCTYPE svg PUBLIC "-//W3C//DTD SVG 1.1//EN" "http://www.w3.org/Graphics/SVG/1.1/DTD/svg11.dtd"><svg class="icon" width="200px" height="200.00px" viewBox="0 0 1024 1024" version="1.1" xmlns="http://www.w3.org/2000/svg"><path fill="#000000" d="M734.098286 650.752c11.593143 13.824 31.817143 14.445714 46.628571-1.609143 53.650286-57.526857 83.236571-136.301714 83.236572-221.147428s-30.208-164.571429-83.236572-221.147429c-14.811429-16.091429-35.035429-15.433143-46.628571-1.609143-11.227429 12.873143-7.68 29.257143 4.827428 43.410286 42.422857 46.921143 65.901714 109.933714 65.901715 179.346286 0 69.12-23.478857 132.096-65.901715 179.053714-12.544 14.116571-16.091429 30.537143-4.827428 43.702857z m-444.525715 0c11.264-13.165714 7.387429-29.586286-4.827428-43.702857-42.422857-46.957714-65.901714-109.933714-65.901714-179.053714 0-69.412571 23.478857-132.425143 65.901714-179.346286 12.214857-14.153143 16.091429-30.537143 4.827428-43.410286-11.556571-13.824-31.817143-14.445714-46.592 1.609143-53.028571 56.576-83.273143 136.301714-83.273142 221.147429s29.586286 163.620571 83.273142 221.147428c14.774857 16.091429 35.035429 15.433143 46.592 1.609143z m345.856-93.549714c11.556571 13.824 33.426286 14.153143 46.921143-1.901715 27.977143-33.755429 43.702857-79.104 43.702857-127.268571 0-48.566857-15.725714-93.878857-43.702857-127.305143-13.494857-16.420571-35.364571-15.762286-46.921143-2.267428-10.934857 13.165714-6.436571 28.598857 4.169143 43.410285 17.042286 23.113143 27.318857 53.979429 27.318857 86.125715 0 31.817143-9.618286 63.341714-27.318857 85.833142-10.605714 14.774857-15.104 30.537143-4.169143 43.373715z m-247.186285 0c10.605714-12.836571 6.436571-28.598857-4.169143-43.373715-17.664-22.528-27.648-54.016-27.648-85.833142 0-32.146286 10.605714-63.012571 27.648-86.125715 10.605714-14.811429 14.774857-30.244571 4.169143-43.410285-11.556571-13.494857-33.426286-14.153143-46.921143 2.267428-27.977143 33.426286-43.702857 78.738286-43.702857 127.268572 0 48.201143 15.725714 93.549714 43.702857 127.268571 13.531429 16.091429 35.364571 15.762286 46.921143 1.938286z m123.428571 243.017143c17.371429 0 28.306286-12.544 28.306286-31.488v-285.110858c20.224-10.313143 34.377143-31.195429 34.377143-55.588571a62.171429 62.171429 0 0 0-62.683429-62.72c-34.706286 0-62.354286 27.648-62.354286 62.683429 0 24.429714 13.824 45.641143 34.377143 55.588571v285.110857c0 18.651429 11.593143 31.524571 27.977143 31.524572z" /></svg>