<?xml version="1.0" standalone="no"?><!DOCTYPE svg PUBLIC "-//W3C//DTD SVG 1.1//EN" "http://www.w3.org/Graphics/SVG/1.1/DTD/svg11.dtd"><svg class="icon" width="200px" height="200.00px" viewBox="0 0 1024 1024" version="1.1" xmlns="http://www.w3.org/2000/svg"><path fill="#000000" d="M207.616 499.053714c0 9.618286 4.169143 19.273143 11.556571 26.331429l212.114286 211.821714c7.753143 7.387429 16.091429 10.934857 25.417143 10.934857 20.260571 0 35.035429-14.482286 35.035429-34.084571a34.121143 34.121143 0 0 0-10.605715-25.380572l-72.301714-73.289142-93.257143-85.174858 74.934857 4.498286H780.068571c21.211429 0 36.022857-14.774857 36.022858-35.693714 0-21.211429-14.811429-35.986286-36.022858-35.986286H390.509714l-74.605714 4.498286 92.891429-85.174857 72.338285-73.289143a34.157714 34.157714 0 0 0 10.605715-25.380572c0-19.602286-14.774857-34.084571-35.035429-34.084571-9.325714 0-17.993143 3.547429-26.331429 11.593143l-211.2 211.163428a37.010286 37.010286 0 0 0-11.556571 26.697143z" /></svg>