<?xml version="1.0" standalone="no"?><!DOCTYPE svg PUBLIC "-//W3C//DTD SVG 1.1//EN" "http://www.w3.org/Graphics/SVG/1.1/DTD/svg11.dtd"><svg class="icon" width="200px" height="200.00px" viewBox="0 0 1024 1024" version="1.1" xmlns="http://www.w3.org/2000/svg"><path fill="#000000" d="M237.824 459.190857a34.267429 34.267429 0 0 0 35.364571-35.364571v-22.820572L266.422857 301.348571l74.24 78.116572 91.940572 92.562286a33.28 33.28 0 0 0 24.758857 10.276571c21.869714 0 37.595429-14.774857 37.595428-36.644571a36.498286 36.498286 0 0 0-10.605714-25.709715l-92.233143-92.233143-78.445714-73.947428 100.278857 6.765714h25.088c20.260571 0 35.657143-14.774857 35.657143-35.364571a34.633143 34.633143 0 0 0-35.657143-35.657143H260.644571c-36.937143 0-58.514286 21.540571-58.514285 58.514286v175.798857c0 20.260571 15.104 35.364571 35.693714 35.364571z m346.806857 350.354286h178.395429c36.973714 0 58.514286-21.577143 58.514285-58.514286v-175.835428a34.742857 34.742857 0 0 0-35.693714-35.328 34.267429 34.267429 0 0 0-35.328 35.328v22.820571l6.729143 99.657143-74.24-78.116572-91.940571-92.525714a33.462857 33.462857 0 0 0-25.051429-10.313143c-21.869714 0-37.632 14.774857-37.632 36.644572 0 9.947429 3.876571 18.944 10.971429 25.709714l92.233142 92.233143 78.409143 73.947428-100.278857-6.765714h-25.088c-20.553143 0-35.657143 14.811429-35.657143 35.364572 0 20.589714 15.104 35.693714 35.657143 35.693714z" /></svg>