<?xml version="1.0" standalone="no"?><!DOCTYPE svg PUBLIC "-//W3C//DTD SVG 1.1//EN" "http://www.w3.org/Graphics/SVG/1.1/DTD/svg11.dtd"><svg class="icon" width="200px" height="200.00px" viewBox="0 0 1024 1024" version="1.1" xmlns="http://www.w3.org/2000/svg"><path fill="#000000" d="M521.325714 442.477714a31.085714 31.085714 0 0 0 31.158857-31.524571 29.330286 29.330286 0 0 0-8.996571-21.540572l-87.405714-86.784a337.554286 337.554286 0 0 1 56.868571-4.498285c123.757714 0 222.427429 98.998857 222.427429 224.036571A222.793143 222.793143 0 0 1 512 745.874286a222.976 222.976 0 0 1-223.378286-223.707429c0-19.273143-12.544-33.097143-31.195428-33.097143-19.273143 0-32.768 13.824-32.768 33.097143A286.902857 286.902857 0 0 0 512 809.874286a286.72 286.72 0 0 0 287.341714-287.707429 285.257143 285.257143 0 0 0-286.354285-286.72c-15.140571 0-30.573714 1.316571-45.970286 3.547429l76.8-75.190857a31.707429 31.707429 0 0 0 8.667428-21.869715c0-17.700571-13.494857-32.146286-31.158857-32.146285a28.708571 28.708571 0 0 0-22.491428 9.654857L367.030857 253.44a31.853714 31.853714 0 0 0-9.947428 23.442286c0 8.996571 2.889143 16.713143 9.947428 23.771428l132.096 132.754286c5.485714 6.144 12.873143 9.033143 22.198857 9.033143z" /></svg>