<?xml version="1.0" standalone="no"?><!DOCTYPE svg PUBLIC "-//W3C//DTD SVG 1.1//EN" "http://www.w3.org/Graphics/SVG/1.1/DTD/svg11.dtd"><svg class="icon" width="200px" height="200.00px" viewBox="0 0 1024 1024" version="1.1" xmlns="http://www.w3.org/2000/svg"><path fill="#000000" d="M743.424 755.2c100.278857 0 179.346286-73.581714 179.346286-165.522286 0-68.132571-38.875429-128.877714-102.838857-155.574857 0.329143-145.590857-104.484571-250.404571-239.177143-250.404571-85.467429 0-149.76 44.361143-189.952 102.546285C309.174857 264.411429 223.378286 325.156571 220.16 415.817143c-73.618286 13.165714-118.930286 79.396571-118.930286 159.744 0 98.048 85.467429 179.675429 197.997715 179.675428h444.196571z m-90.331429-247.478857c0 74.24-59.465143 134.034286-133.046857 134.034286-73.289143 0-132.425143-59.794286-132.425143-133.412572 0-12.214857 10.24-22.162286 22.491429-22.162286a22.674286 22.674286 0 0 1 23.149714 22.162286 87.04 87.04 0 0 0 86.784 87.771429 87.186286 87.186286 0 0 0 87.405715-87.771429c0-45.933714-35.657143-83.565714-80.676572-84.845714-3.218286-0.329143-6.729143-0.329143-9.618286-0.329143l23.442286 23.771429a20.114286 20.114286 0 0 1 5.12 13.531428 20.516571 20.516571 0 0 1-21.211428 20.882286 21.869714 21.869714 0 0 1-14.445715-6.107429l-55.917714-56.246857a22.345143 22.345143 0 0 1-0.329143-30.537143l55.588572-56.905143a22.747429 22.747429 0 0 1 15.469714-6.729142c12.178286 0 20.845714 9.654857 20.845714 20.553142a21.028571 21.028571 0 0 1-5.449143 14.482286l-17.334857 17.993143c2.230857 0 5.12-0.329143 7.68 0 64.950857 2.267429 122.514286 58.514286 122.514286 129.828571z" /></svg>