<?xml version="1.0" standalone="no"?><!DOCTYPE svg PUBLIC "-//W3C//DTD SVG 1.1//EN" "http://www.w3.org/Graphics/SVG/1.1/DTD/svg11.dtd"><svg class="icon" width="200px" height="200.00px" viewBox="0 0 1024 1024" version="1.1" xmlns="http://www.w3.org/2000/svg"><path fill="#000000" d="M206.336 742.985143c20.224 0 35.328-14.445714 35.328-34.377143v-211.821714a36.096 36.096 0 0 0 11.264 23.478857l212.114286 211.821714c7.753143 7.387429 16.420571 10.898286 25.746285 10.898286 19.931429 0 34.742857-14.445714 34.742858-34.048a34.157714 34.157714 0 0 0-10.605715-25.417143l-72.338285-73.289143-93.257143-83.236571 69.485714 2.56h397.238857c21.577143 0 36.352-14.774857 36.352-35.657143 0-21.211429-14.811429-36.022857-36.352-36.022857H418.779429l-69.12 2.925714 92.891428-83.565714L514.925714 303.908571a34.157714 34.157714 0 0 0 10.605715-25.417142c0-19.602286-14.774857-34.048-34.742858-34.048a36.352 36.352 0 0 0-25.673142 10.898285l-212.150858 211.821715c-6.436571 6.436571-10.605714 14.811429-11.264 23.478857V279.186286c0-19.931429-15.104-34.742857-35.328-34.742857-19.931429 0-35.035429 14.811429-35.035428 34.742857v429.421714c0 19.931429 15.104 34.377143 35.035428 34.377143z" /></svg>