<?xml version="1.0" standalone="no"?><!DOCTYPE svg PUBLIC "-//W3C//DTD SVG 1.1//EN" "http://www.w3.org/Graphics/SVG/1.1/DTD/svg11.dtd"><svg class="icon" width="200px" height="200.00px" viewBox="0 0 1024 1024" version="1.1" xmlns="http://www.w3.org/2000/svg"><path fill="#000000" d="M777.179429 757.138286c22.491429 0 32.475429-16.384 35.364571-32.146286 2.56-12.836571 3.218286-29.549714 3.218286-48.530286 0-150.747429-62.683429-219.538286-211.2-219.538285H392.777143l-76.507429 4.498285 93.878857-85.504 72.009143-72.96a35.949714 35.949714 0 0 0 10.605715-25.380571c0-19.602286-14.811429-34.377143-35.364572-34.377143-8.996571 0-17.664 3.84-26.038857 11.885714L219.794286 465.92a38.290286 38.290286 0 0 0-11.593143 27.026286c0 9.618286 4.205714 19.273143 11.593143 26.660571l212.114285 211.492572c7.753143 7.716571 16.420571 11.264 25.417143 11.264 20.553143 0 35.364571-14.774857 35.364572-34.377143a35.949714 35.949714 0 0 0-10.605715-25.417143l-72.045714-72.630857L315.977143 524.068571l76.8 4.498286h207.36c105.691429 0 143.36 43.410286 143.36 150.125714 0 17.993143-1.316571 30.829714-1.316572 43.044572 0 20.918857 14.153143 35.364571 35.035429 35.364571z" /></svg>