<?xml version="1.0" standalone="no"?><!DOCTYPE svg PUBLIC "-//W3C//DTD SVG 1.1//EN" "http://www.w3.org/Graphics/SVG/1.1/DTD/svg11.dtd"><svg class="icon" width="200px" height="200.00px" viewBox="0 0 1024 1024" version="1.1" xmlns="http://www.w3.org/2000/svg"><path fill="#000000" d="M686.848 804.717714c18.651429 0 35.035429-0.329143 48.237714-2.925714 15.396571-2.852571 32.109714-12.8 32.109715-34.669714 0-20.918857-14.774857-34.084571-35.328-34.084572-12.214857 0-25.088 0.950857-42.788572 0.950857-102.838857 0-147.492571-35.657143-147.492571-139.812571l0.292571-206.043429-2.889143-83.565714 57.526857 63.634286 99.328 99.657143c6.436571 6.436571 15.433143 10.605714 25.417143 10.605714 19.602286 0 34.377143-14.774857 34.377143-35.364571a35.291429 35.291429 0 0 0-11.227428-25.380572l-211.529143-212.114286a37.558857 37.558857 0 0 0-26.697143-11.593142c-9.618286 0-19.565714 4.169143-26.660572 11.556571l-211.492571 212.114286a35.291429 35.291429 0 0 0-11.264 25.417143c0 20.589714 14.482286 35.364571 34.084571 35.364571a36.132571 36.132571 0 0 0 25.709715-10.605714l99.328-99.657143 57.234285-63.305143-2.56 83.236571v210.541715c0 145.92 71.314286 206.043429 216.283429 206.043428z" /></svg>