<?xml version="1.0" standalone="no"?><!DOCTYPE svg PUBLIC "-//W3C//DTD SVG 1.1//EN" "http://www.w3.org/Graphics/SVG/1.1/DTD/svg11.dtd"><svg class="icon" width="200px" height="200.00px" viewBox="0 0 1024 1024" version="1.1" xmlns="http://www.w3.org/2000/svg"><path fill="#000000" d="M251.611429 620.214857c25.088 22.820571 55.003429 5.12 55.003428-24.758857v-61.403429h170.678857v170.678858h-62.061714c-29.878857 0-47.213714 30.208-24.722286 54.966857l94.171429 102.875428c15.433143 17.334857 38.875429 17.334857 54.308571 0l93.878857-102.546285c22.820571-25.088 5.485714-55.296-24.758857-55.296h-61.403428v-170.678858h170.057143v61.44c0 29.842286 30.208 47.542857 55.259428 24.722286l102.546286-93.878857c17.371429-15.725714 17.042286-39.204571 0-54.308571l-102.838857-94.171429c-24.758857-22.491429-54.966857-5.12-54.966857 24.758857v61.696h-170.057143V293.302857h61.403428c30.208 0 47.542857-30.208 24.758857-55.259428L538.697143 135.168c-15.762286-17.334857-39.241143-16.384-54.345143 0.658286l-93.842286 102.838857c-22.528 24.429714-5.12 54.637714 24.722286 54.637714h62.061714v171.008H306.614857V402.651429c0-29.915429-30.208-47.250286-54.637714-24.758858l-102.875429 93.842286c-16.713143 15.104-17.993143 38.582857-0.329143 54.345143l102.875429 94.171429z" /></svg>