<?xml version="1.0" standalone="no"?><!DOCTYPE svg PUBLIC "-//W3C//DTD SVG 1.1//EN" "http://www.w3.org/Graphics/SVG/1.1/DTD/svg11.dtd"><svg class="icon" width="200px" height="200.00px" viewBox="0 0 1024 1024" version="1.1" xmlns="http://www.w3.org/2000/svg"><path fill="#000000" d="M198.582857 634.989714v142.738286c0 20.224 13.531429 34.706286 34.084572 34.706286h143.36c32.475429 0 42.422857-35.035429 20.589714-56.905143l-46.921143-46.921143 162.011429-162.011429 161.974857 162.340572-46.592 46.592c-21.869714 21.869714-11.922286 56.905143 20.553143 56.905143h143.36c20.260571 0 34.048-14.482286 34.048-34.742857v-142.701715c0-32.768-35.328-42.093714-56.868572-20.553143l-46.921143 46.921143-162.011428-162.304 162.011428-162.011428 46.921143 46.592c21.540571 21.869714 56.905143 12.214857 56.905143-20.553143V220.342857c0-19.931429-13.824-34.377143-34.084571-34.377143h-143.36c-32.475429 0-42.422857 34.742857-20.589715 56.905143l46.957715 46.592-162.340572 162.340572-162.011428-162.340572 46.957714-46.592c21.833143-22.198857 11.885714-56.905143-20.589714-56.905143h-143.36c-20.553143 0-34.048 14.445714-34.048 34.377143v142.738286c0 32.768 35.035429 42.422857 56.868571 20.553143L302.445714 336.713143l162.011429 162.304-162.377143 162.340571-46.592-46.921143c-21.833143-21.577143-56.868571-12.214857-56.868571 20.553143z" /></svg>