<?xml version="1.0" standalone="no"?><!DOCTYPE svg PUBLIC "-//W3C//DTD SVG 1.1//EN" "http://www.w3.org/Graphics/SVG/1.1/DTD/svg11.dtd"><svg class="icon" width="200px" height="200.00px" viewBox="0 0 1024 1024" version="1.1" xmlns="http://www.w3.org/2000/svg"><path fill="#000000" d="M208.896 286.902857a34.742857 34.742857 0 0 0 0 51.090286l165.851429 162.011428c6.436571 6.436571 16.384 10.605714 25.088 10.605715 20.224 0 34.048-14.153143 34.048-34.084572a31.085714 31.085714 0 0 0-9.947429-23.771428L355.108571 386.56 306.285714 344.137143l68.132572 2.56h417.243428c19.894857 0 34.377143-14.482286 34.377143-34.377143 0-19.968-14.482286-34.121143-34.377143-34.121143H374.381714l-68.132571 2.267429 48.859428-42.093715 68.754286-66.230857a31.780571 31.780571 0 0 0 9.984-24.137143c0-19.565714-13.824-33.718857-34.048-33.718857-8.704 0-18.651429 4.169143-25.088 10.605715l-165.851428 162.011428zM814.774857 712.411429a34.742857 34.742857 0 0 0 0-51.090286l-165.522286-162.011429a39.058286 39.058286 0 0 0-25.380571-10.605714c-19.931429 0-33.755429 14.153143-33.755429 34.084571 0 9.325714 3.218286 17.371429 9.618286 23.771429l68.790857 66.194286 48.859429 42.130285-68.132572-2.230857H232.045714a33.462857 33.462857 0 0 0-34.377143 34.377143c0 19.602286 14.774857 34.084571 34.377143 34.084572h417.206857l68.132572-2.267429-48.859429 42.130286-68.754285 66.194285a32.475429 32.475429 0 0 0-9.654858 23.771429c0 19.968 13.824 34.084571 33.755429 34.084571 8.667429 0 18.651429-4.169143 25.380571-10.605714l165.522286-162.011428z" /></svg>