<?xml version="1.0" standalone="no"?><!DOCTYPE svg PUBLIC "-//W3C//DTD SVG 1.1//EN" "http://www.w3.org/Graphics/SVG/1.1/DTD/svg11.dtd"><svg class="icon" width="200px" height="200.00px" viewBox="0 0 1024 1024" version="1.1" xmlns="http://www.w3.org/2000/svg"><path fill="#000000" d="M777.179429 228.388571c-20.882286 0-35.035429 14.482286-35.035429 35.364572 0 12.544 1.28 25.051429 1.28 43.081143 0 106.715429-37.595429 150.089143-143.36 150.089143H392.777143l-76.8 4.827428 94.171428-85.833143 72.009143-72.96a35.401143 35.401143 0 0 0 10.605715-25.380571c0-19.602286-14.811429-34.377143-35.364572-34.377143-8.996571 0-17.664 3.84-25.380571 11.227429L219.794286 465.92a38.290286 38.290286 0 0 0-11.593143 27.026286c0 9.618286 4.205714 19.273143 11.593143 26.660571l211.492571 210.870857c8.374857 8.338286 17.042286 11.885714 26.038857 11.885715 20.553143 0 35.364571-14.482286 35.364572-34.377143a35.949714 35.949714 0 0 0-10.605715-25.417143l-72.045714-72.630857-93.842286-85.833143 76.507429 4.498286h211.821714c148.48 0 211.2-68.754286 211.2-219.538286 0-18.651429-0.658286-35.364571-3.218285-48.530286-2.925714-15.725714-12.873143-32.146286-35.364572-32.146286z" /></svg>