<?xml version="1.0" standalone="no"?><!DOCTYPE svg PUBLIC "-//W3C//DTD SVG 1.1//EN" "http://www.w3.org/Graphics/SVG/1.1/DTD/svg11.dtd"><svg class="icon" width="200px" height="200.00px" viewBox="0 0 1024 1024" version="1.1" xmlns="http://www.w3.org/2000/svg"><path fill="#000000" d="M743.424 755.2c100.278857 0 179.346286-73.581714 179.346286-165.522286 0-68.132571-38.875429-128.877714-102.838857-155.574857 0.329143-145.590857-104.484571-250.404571-239.177143-250.404571-85.467429 0-149.76 44.361143-189.952 102.546285C309.174857 264.411429 223.378286 325.156571 220.16 415.817143c-73.618286 13.165714-118.930286 79.396571-118.930286 159.744 0 98.048 85.467429 179.675429 197.997715 179.675428h444.196571z m-348.416-247.149714c0-71.387429 57.197714-127.634286 122.441143-130.194286 2.56 0 5.156571 0.329143 7.424 0.329143l-17.042286-17.993143a19.858286 19.858286 0 0 1-5.814857-14.482286c0-10.934857 8.704-20.553143 20.918857-20.553143a20.845714 20.845714 0 0 1 15.433143 6.729143l55.588571 56.905143c8.045714 7.68 8.374857 22.491429 0 30.537143l-56.246857 56.246857a21.906286 21.906286 0 0 1-14.445714 6.107429 20.260571 20.260571 0 0 1-20.918857-20.882286 21.577143 21.577143 0 0 1 4.827428-13.531429l23.771429-23.771428h-9.947429c-44.982857 1.609143-80.347429 39.204571-80.347428 85.211428a87.113143 87.113143 0 1 0 174.226286 0c0-12.251429 10.24-22.198857 22.784-22.198857 12.544 0 22.857143 9.947429 22.857142 22.162286 0 73.618286-59.465143 133.412571-132.754285 133.412571-73.618286 0-132.754286-59.794286-132.754286-134.034285z" /></svg>