<?xml version="1.0" standalone="no"?><!DOCTYPE svg PUBLIC "-//W3C//DTD SVG 1.1//EN" "http://www.w3.org/Graphics/SVG/1.1/DTD/svg11.dtd"><svg class="icon" width="200px" height="200.00px" viewBox="0 0 1024 1024" version="1.1" xmlns="http://www.w3.org/2000/svg"><path fill="#000000" d="M337.152 804.717714c144.969143 0 216.32-60.123429 216.32-206.043428v-210.541715l-2.56-83.236571 57.197714 63.305143 99.328 99.657143c6.4 6.436571 15.433143 10.605714 25.709715 10.605714 19.602286 0 34.048-14.774857 34.048-35.364571a36.205714 36.205714 0 0 0-10.898286-25.380572l-211.821714-212.114286a37.558857 37.558857 0 0 0-26.697143-11.593142c-9.618286 0-19.602286 4.169143-26.697143 11.556571l-211.456 212.114286a35.291429 35.291429 0 0 0-11.264 25.417143c0 20.589714 14.774857 35.364571 34.377143 35.364571a35.949714 35.949714 0 0 0 25.417143-10.605714l99.291428-99.657143 57.563429-63.634286-2.925715 83.565714 0.365715 206.043429c0 104.155429-44.690286 139.812571-147.565715 139.812571-17.664 0-30.537143-0.950857-42.752-0.950857-20.553143 0-35.364571 13.165714-35.364571 34.084572 0 21.833143 16.749714 31.817143 32.182857 34.706285 13.165714 2.56 29.549714 2.889143 48.201143 2.889143z" /></svg>