<?xml version="1.0" standalone="no"?><!DOCTYPE svg PUBLIC "-//W3C//DTD SVG 1.1//EN" "http://www.w3.org/Graphics/SVG/1.1/DTD/svg11.dtd"><svg class="icon" width="200px" height="200.00px" viewBox="0 0 1024 1024" version="1.1" xmlns="http://www.w3.org/2000/svg"><path fill="#000000" d="M532.882286 742.985143a36.352 36.352 0 0 0 25.709714-10.898286l211.821714-211.821714a36.498286 36.498286 0 0 0 11.593143-23.478857v211.821714c0 19.931429 15.104 34.377143 35.035429 34.377143 20.224 0 35.364571-14.445714 35.364571-34.377143V279.186286c0-19.931429-15.104-34.742857-35.364571-34.742857-19.931429 0-35.035429 14.811429-35.035429 34.742857v211.492571a38.034286 38.034286 0 0 0-11.593143-23.478857l-211.821714-211.821714a36.352 36.352 0 0 0-25.709714-10.898286c-20.224 0-35.035429 14.445714-35.035429 34.048 0 10.276571 4.169143 18.980571 10.605714 25.417143l72.338286 73.289143L674.011429 460.8l-69.449143-2.925714H207.616c-21.577143 0-36.315429 14.811429-36.315429 36.022857 0 20.882286 14.774857 35.657143 36.315429 35.657143H604.525714l69.449143-2.56-93.257143 83.236571-72.301714 73.289143a35.401143 35.401143 0 0 0-10.605714 25.417143c0 19.602286 14.811429 34.048 35.035428 34.048z" /></svg>