<?xml version="1.0" standalone="no"?><!DOCTYPE svg PUBLIC "-//W3C//DTD SVG 1.1//EN" "http://www.w3.org/Graphics/SVG/1.1/DTD/svg11.dtd"><svg class="icon" width="200px" height="200.00px" viewBox="0 0 1024 1024" version="1.1" xmlns="http://www.w3.org/2000/svg"><path fill="#000000" d="M816.054857 499.053714c0-9.984-4.169143-19.638857-11.556571-26.697143l-211.163429-211.163428c-8.374857-8.045714-17.042286-11.593143-26.038857-11.593143-20.589714 0-35.364571 14.482286-35.364571 34.084571 0 10.276571 4.169143 18.944 10.605714 25.380572l72.301714 73.289143 93.257143 85.211428-74.605714-4.534857H243.931429c-21.540571 0-36.315429 14.774857-36.315429 36.022857 0 20.845714 14.774857 35.657143 36.315429 35.657143h389.558857l74.605714-4.498286-93.257143 85.211429-72.301714 73.252571a35.364571 35.364571 0 0 0-10.605714 25.380572c0 19.638857 14.774857 34.084571 35.364571 34.084571a36.205714 36.205714 0 0 0 25.380571-10.934857l211.821715-211.821714c7.387429-7.058286 11.556571-16.713143 11.556571-26.331429z" /></svg>