<?xml version="1.0" standalone="no"?><!DOCTYPE svg PUBLIC "-//W3C//DTD SVG 1.1//EN" "http://www.w3.org/Graphics/SVG/1.1/DTD/svg11.dtd"><svg class="icon" width="200px" height="200.00px" viewBox="0 0 1024 1024" version="1.1" xmlns="http://www.w3.org/2000/svg"><path fill="#000000" d="M246.491429 228.388571c-22.162286 0-32.146286 16.384-35.035429 32.146286-2.56 13.165714-3.218286 29.878857-3.218286 48.530286 0 150.747429 62.683429 219.538286 211.2 219.538286h211.821715l76.470857-4.498286-93.842286 85.833143-72.009143 72.630857a34.669714 34.669714 0 0 0-10.605714 25.380571c0 19.931429 14.811429 34.377143 35.364571 34.377143 8.996571 0 17.664-3.510857 26.038857-11.849143l211.163429-210.870857c7.716571-7.387429 11.922286-17.042286 11.922286-26.697143 0-9.947429-4.205714-19.602286-11.922286-26.989714L592.091429 254.427429c-7.753143-7.387429-16.420571-11.264-25.417143-11.264-20.553143 0-35.364571 14.811429-35.364572 34.377142 0 10.313143 4.205714 19.017143 10.605715 25.417143l72.045714 72.96 94.134857 85.833143-76.8-4.827428h-207.36c-105.691429 0-143.36-43.373714-143.36-150.089143 0-18.029714 0.987429-30.537143 0.987429-43.081143 0-20.882286-14.116571-35.364571-35.035429-35.364572z" /></svg>