<?xml version="1.0" standalone="no"?><!DOCTYPE svg PUBLIC "-//W3C//DTD SVG 1.1//EN" "http://www.w3.org/Graphics/SVG/1.1/DTD/svg11.dtd"><svg class="icon" width="200px" height="200.00px" viewBox="0 0 1024 1024" version="1.1" xmlns="http://www.w3.org/2000/svg"><path fill="#000000" d="M685.897143 199.460571h-250.075429c-21.540571 0-35.035429 12.214857-34.742857 31.817143 0.365714 19.931429 13.202286 32.182857 34.742857 32.182857h245.906286c29.878857 0 45.970286 15.396571 45.970286 46.592v333.933715l-45.348572-49.481143-25.709714-25.380572c-13.494857-13.165714-32.475429-14.482286-45.641143-0.658285-13.531429 13.165714-13.165714 32.475429 0.329143 45.970285l109.933714 109.604572c24.429714 24.100571 52.370286 24.100571 76.8 0L907.702857 614.4c13.824-13.531429 14.153143-32.804571 0.658286-45.970286-13.531429-13.531429-32.146286-12.873143-45.970286 0.658286l-25.709714 25.380571-44.690286 49.188572V304.237714c0-69.12-36.644571-104.777143-106.057143-104.777143z m-570.514286 231.753143c13.458286 13.531429 32.438857 12.873143 45.933714-0.658285l25.709715-25.380572 44.982857-49.188571v339.456c0 68.754286 36.352 104.777143 105.764571 104.777143h250.404572c21.211429 0 34.742857-12.214857 34.377143-32.146286 0-19.602286-13.165714-31.817143-34.377143-31.817143H341.979429c-29.586286 0-45.970286-15.433143-45.970286-46.628571V355.693714l45.312 49.481143 25.709714 25.380572c13.824 13.165714 32.475429 14.153143 45.970286 0.658285 13.165714-13.531429 13.165714-32.475429-0.658286-45.970285L302.445714 275.638857c-24.429714-24.137143-52.077714-24.137143-76.507428 0l-109.933715 109.604572c-13.531429 13.531429-13.824 32.475429-0.658285 45.970285z" /></svg>