<?xml version="1.0" standalone="no"?><!DOCTYPE svg PUBLIC "-//W3C//DTD SVG 1.1//EN" "http://www.w3.org/Graphics/SVG/1.1/DTD/svg11.dtd"><svg class="icon" width="200px" height="200.00px" viewBox="0 0 1024 1024" version="1.1" xmlns="http://www.w3.org/2000/svg"><path fill="#000000" d="M512 840.411429c15.104 0 28.269714-11.264 28.269714-26.697143V185.965714c0-15.433143-13.165714-26.989714-28.269714-26.989714-14.774857 0-28.269714 11.556571-28.269714 26.989714V813.714286c0 15.433143 13.165714 26.697143 28.269714 26.697143zM124.342857 693.174857l247.222857-151.04c34.669714-21.211429 34.998857-63.341714 0-84.553143L124.342857 306.468571c-36.644571-22.198857-72.630857-4.169143-72.630857 38.253715v310.162285c0 43.081143 36.937143 59.794286 72.630857 38.253715z m774.948572 0c36.022857 21.540571 72.996571 4.827429 72.996571-38.253714V344.758857c0-42.422857-36.315429-60.452571-72.96-38.253714l-246.857143 151.04c-35.364571 21.211429-35.035429 63.341714 0 84.553143l246.857143 151.076571z" /></svg>