<?xml version="1.0" standalone="no"?><!DOCTYPE svg PUBLIC "-//W3C//DTD SVG 1.1//EN" "http://www.w3.org/Graphics/SVG/1.1/DTD/svg11.dtd"><svg class="icon" width="200px" height="200.00px" viewBox="0 0 1024 1024" version="1.1" xmlns="http://www.w3.org/2000/svg"><path fill="#000000" d="M246.491429 757.138286c20.918857 0 35.035429-14.445714 35.035428-35.364572 0-12.214857-0.950857-25.051429-0.950857-43.044571 0-106.715429 37.595429-150.125714 143.36-150.125714h207.323429l76.8-4.498286-94.171429 85.833143-72.009143 72.630857a35.949714 35.949714 0 0 0-10.605714 25.380571c0 19.638857 14.811429 34.377143 35.364571 34.377143a35.291429 35.291429 0 0 0 25.417143-11.227428l211.785143-211.492572c7.716571-7.387429 11.922286-17.042286 11.922286-26.697143 0-9.947429-4.205714-19.602286-11.922286-26.989714l-211.163429-210.834286c-8.374857-8.045714-17.042286-11.922286-26.038857-11.922285-20.553143 0-35.364571 14.811429-35.364571 34.377142 0 9.984 3.876571 19.017143 10.605714 25.417143l72.045714 72.96 93.842286 85.504-76.507428-4.498285h-211.821715c-148.48 0-211.2 68.790857-211.2 219.538285 0 18.980571 0.658286 35.693714 3.218286 48.530286 2.925714 15.725714 12.873143 32.182857 35.035429 32.182857z" /></svg>