<?xml version="1.0" standalone="no"?><!DOCTYPE svg PUBLIC "-//W3C//DTD SVG 1.1//EN" "http://www.w3.org/Graphics/SVG/1.1/DTD/svg11.dtd"><svg class="icon" width="200px" height="200.00px" viewBox="0 0 1024 1024" version="1.1" xmlns="http://www.w3.org/2000/svg"><path fill="#000000" d="M557.641143 798.610286c25.088 0 43.702857-18.651429 43.702857-43.702857v-115.090286h7.716571c117.650286 0 189.330286 34.377143 239.469715 128.585143 12.544 23.149714 28.598857 28.598857 45.348571 28.598857 22.784 0 39.862857-21.211429 39.862857-61.732572 0-233.325714-102.875429-375.734857-324.681143-375.734857h-7.68V244.772571c0-24.722286-18.651429-44.982857-44.068571-44.982857-17.334857 0-29.257143 7.058286-47.908571 24.429715L254.537143 461.421714a51.931429 51.931429 0 0 0-17.042286 37.595429c0 12.251429 5.12 26.368 17.371429 37.632l254.537143 239.140571c16.749714 15.725714 30.866286 22.820571 48.237714 22.820572z m-170.349714 0c22.491429 0 39.204571-12.873143 41.472-28.269715v-9.325714l-206.701715-190.610286c-20.882286-18.980571-33.755429-44.032-33.755428-71.058285 0-26.697143 12.214857-51.748571 33.755428-71.314286l206.701715-189.366857v-9.325714c-2.267429-15.725714-18.980571-29.257143-42.130286-29.257143-17.042286 0-28.891429 7.094857-47.542857 24.466285l-254.902857 237.202286c-12.544 11.885714-17.371429 25.380571-17.371429 37.595429 0 11.885714 4.827429 25.709714 17.700571 37.632l254.537143 238.811428c16.420571 16.091429 30.866286 22.820571 48.237715 22.820572z" /></svg>