<?xml version="1.0" standalone="no"?><!DOCTYPE svg PUBLIC "-//W3C//DTD SVG 1.1//EN" "http://www.w3.org/Graphics/SVG/1.1/DTD/svg11.dtd"><svg class="icon" width="200px" height="200.00px" viewBox="0 0 1024 1024" version="1.1" xmlns="http://www.w3.org/2000/svg"><path fill="#000000" d="M512 852.297143c122.770286 0 204.763429-81.956571 204.763429-205.385143v-54.966857c0-18.322286-14.811429-33.133714-32.804572-33.133714-18.285714 0-33.097143 14.811429-33.097143 33.133714v54.966857c0 83.565714-55.588571 139.483429-138.861714 139.483429-83.565714 0-139.52-55.954286-139.52-139.483429V350.866286c0-83.273143 55.954286-138.861714 139.52-138.861715 82.285714 0 137.581714 54.308571 138.861714 136.594286h-45.348571c-24.393143 0-31.451429 18.322286-17.005714 38.253714l75.52 106.422858c11.593143 16.347429 29.586286 16.347429 41.472 0l75.849142-106.093715c14.482286-20.260571 7.716571-38.582857-17.042285-38.582857h-47.542857C715.776 226.816 633.782857 145.773714 512 145.773714c-123.099429 0-205.385143 82.285714-205.385143 205.092572v296.045714c0 123.428571 82.285714 205.385143 205.385143 205.385143z" /></svg>