<?xml version="1.0" standalone="no"?><!DOCTYPE svg PUBLIC "-//W3C//DTD SVG 1.1//EN" "http://www.w3.org/Graphics/SVG/1.1/DTD/svg11.dtd"><svg class="icon" width="200px" height="200.00px" viewBox="0 0 1024 1024" version="1.1" xmlns="http://www.w3.org/2000/svg"><path fill="#000000" d="M554.752 798.610286c17.664 0 31.488-6.765714 48.530286-22.820572l254.573714-238.811428c12.544-11.922286 17.371429-25.746286 17.371429-37.632 0-12.214857-4.827429-25.709714-17.371429-37.595429l-254.537143-237.202286c-18.651429-17.371429-30.902857-24.429714-47.908571-24.429714-25.746286 0-44.068571 19.931429-44.068572 44.982857v114.432h-8.045714c-221.769143 0-324.608 142.409143-324.608 375.734857 0 40.850286 17.334857 62.061714 39.862857 62.061715 17.005714 0 32.768-5.485714 45.312-28.928 50.468571-93.878857 122.148571-128.256 239.469714-128.256h8.045715v115.053714c0 25.088 18.285714 43.410286 43.373714 43.410286z" /></svg>