<?xml version="1.0" standalone="no"?><!DOCTYPE svg PUBLIC "-//W3C//DTD SVG 1.1//EN" "http://www.w3.org/Graphics/SVG/1.1/DTD/svg11.dtd"><svg class="icon" width="200px" height="200.00px" viewBox="0 0 1024 1024" version="1.1" xmlns="http://www.w3.org/2000/svg"><path fill="#000000" d="M512 194.304c-21.211429 0-35.986286 14.811429-35.986286 36.022857v396.946286l2.889143 69.778286-83.565714-93.257143-72.996572-72.630857a36.132571 36.132571 0 0 0-25.709714-10.605715c-19.602286 0-34.048 14.811429-34.048 35.035429 0 9.325714 3.510857 18.029714 11.227429 25.746286l211.529143 212.114285c7.058286 7.387429 16.676571 11.264 26.660571 11.264a36.534857 36.534857 0 0 0 26.331429-11.264l211.858285-212.114285a35.437714 35.437714 0 0 0 11.227429-25.746286c0-20.224-14.774857-35.035429-34.377143-35.035429a35.949714 35.949714 0 0 0-25.380571 10.605715l-73.289143 72.667428-83.273143 92.891429 2.56-69.449143V230.326857c0-21.211429-14.774857-36.022857-35.657143-36.022857z" /></svg>