<?xml version="1.0" standalone="no"?><!DOCTYPE svg PUBLIC "-//W3C//DTD SVG 1.1//EN" "http://www.w3.org/Graphics/SVG/1.1/DTD/svg11.dtd"><svg class="icon" width="200px" height="189.45px" viewBox="0 0 1081 1024" version="1.1" xmlns="http://www.w3.org/2000/svg"><path fill="#000000" d="M46.269074 766.793143h75.556572c30.537143 0 46.262857-15.725714 46.262857-46.299429v-208.274285a43.629714 43.629714 0 0 1-1.572572-13.165715c0-4.498286 0.292571-9.033143 1.572572-12.873143V278.198857c0-31.158857-15.725714-45.933714-46.262857-46.262857H46.269074c-30.537143 0-46.262857 15.725714-46.262857 46.262857v442.294857c-0.329143 30.537143 15.433143 46.299429 46.262857 46.299429z m526.189715-8.667429c28.306286 0 52.077714-21.211429 52.077714-60.452571v-185.453714c4.169143 15.725714 16.091429 28.891429 35.035428 40.155428l329.472 193.499429c13.824 8.045714 26.038857 12.251429 40.155429 12.251428 28.306286 0 52.077714-21.211429 52.077714-60.452571V301.019429c0-39.204571-23.771429-60.416-52.077714-60.416-14.116571 0-26.331429 4.169143-40.155429 12.214857l-329.472 193.499428c-19.273143 11.556571-30.866286 24.137143-35.035428 39.862857V300.982857c0-39.204571-23.478857-60.416-51.748572-60.416-14.153143 0-26.331429 4.169143-40.484571 12.214857l-329.508571 193.499429c-18.944 11.556571-30.829714 24.137143-34.706286 39.862857v26.038857c4.205714 15.725714 15.762286 28.891429 34.742857 40.155429l329.472 193.499428c14.116571 8.045714 26.002286 12.251429 40.155429 12.251429z" /></svg>