<?xml version="1.0" standalone="no"?><!DOCTYPE svg PUBLIC "-//W3C//DTD SVG 1.1//EN" "http://www.w3.org/Graphics/SVG/1.1/DTD/svg11.dtd"><svg class="icon" width="200px" height="200.00px" viewBox="0 0 1024 1024" version="1.1" xmlns="http://www.w3.org/2000/svg"><path fill="#000000" d="M254.866286 711.826286h513.938285c33.133714 0 53.394286-17.993143 53.394286-44.982857 0-34.084571-30.866286-63.341714-59.794286-90.989715-22.820571-22.162286-27.977143-68.461714-32.182857-111.177143-5.12-117.686857-39.497143-200.594286-122.770285-230.509714-13.165714-42.422857-48.201143-75.190857-95.780572-75.190857-47.250286 0-82.285714 32.768-95.780571 75.190857-82.944 29.915429-117.650286 112.822857-122.477715 230.473143-4.169143 42.752-9.618286 89.051429-32.109714 111.213714-28.928 27.648-59.794286 56.905143-59.794286 90.953143 0 27.026286 20.224 44.982857 53.357715 44.982857z m256.804571 132.425143c57.234286 0 98.669714-40.813714 102.875429-87.405715h-205.385143c4.169143 46.592 45.604571 87.405714 102.509714 87.405715z" /></svg>