<?xml version="1.0" standalone="no"?><!DOCTYPE svg PUBLIC "-//W3C//DTD SVG 1.1//EN" "http://www.w3.org/Graphics/SVG/1.1/DTD/svg11.dtd"><svg class="icon" width="200px" height="200.00px" viewBox="0 0 1024 1024" version="1.1" xmlns="http://www.w3.org/2000/svg"><path fill="#000000" d="M177.078857 405.833143h84.224V361.472c0-31.195429 17.005714-47.908571 48.530286-47.908571h118.930286c31.488 0 48.530286 16.713143 48.530285 47.908571v44.361143h72.301715V361.472c0-31.195429 17.042286-47.908571 49.846857-47.908571h112.822857c33.097143 0 50.102857 16.713143 50.102857 47.908571v44.361143h84.224V313.563429c0-61.074286-32.768-92.891429-92.525714-92.891429H269.604571c-59.794286 0-92.562286 31.817143-92.562285 92.891429v92.269714zM97.645714 749.421714c0 17.371429 11.264 28.306286 28.269715 28.306286h19.931428c17.042286 0 28.306286-10.971429 28.306286-28.306286v-46.262857c3.84 0.950857 15.104 1.572571 23.149714 1.572572h629.028572c8.045714 0 19.273143-0.621714 23.149714-1.572572v46.262857c0 17.371429 11.227429 28.306286 28.269714 28.306286h19.931429c17.042286 0 28.269714-10.971429 28.269714-28.306286v-195.437714c0-63.963429-35.328-98.998857-99.620571-98.998857h-629.028572c-64.292571 0-99.657143 35.035429-99.657143 98.998857v195.437714z" /></svg>