<?xml version="1.0" standalone="no"?><!DOCTYPE svg PUBLIC "-//W3C//DTD SVG 1.1//EN" "http://www.w3.org/Graphics/SVG/1.1/DTD/svg11.dtd"><svg class="icon" width="200px" height="200.00px" viewBox="0 0 1024 1024" version="1.1" xmlns="http://www.w3.org/2000/svg"><path fill="#000000" d="M511.670857 832.365714c182.272 0 332.690286-150.454857 332.690286-332.690285 0-181.942857-150.747429-332.361143-333.019429-332.361143-181.906286 0-332.032 150.418286-332.032 332.361143 0 182.235429 150.454857 332.690286 332.361143 332.690285z m-210.834286-274.505143l108.617143-139.483428c7.716571-9.325714 15.433143-13.531429 23.771429-13.531429 6.473143 0 12.580571 2.267429 19.638857 5.814857L588.8 484.571429l107.995429-57.526858c22.491429-11.593143 41.142857 10.276571 25.709714 30.208l-109.275429 139.812572c-7.424 9.325714-15.433143 13.824-23.771428 13.824-6.473143 0-12.580571-2.230857-19.638857-6.107429l-135.972572-73.910857-107.337143 57.526857c-21.869714 11.264-42.422857-9.325714-25.709714-30.537143z" /></svg>