<?xml version="1.0" standalone="no"?><!DOCTYPE svg PUBLIC "-//W3C//DTD SVG 1.1//EN" "http://www.w3.org/Graphics/SVG/1.1/DTD/svg11.dtd"><svg class="icon" width="200px" height="200.00px" viewBox="0 0 1024 1024" version="1.1" xmlns="http://www.w3.org/2000/svg"><path fill="#000000" d="M743.424 755.2c100.278857 0 179.346286-73.581714 179.346286-165.522286 0-68.132571-38.875429-128.877714-102.838857-155.574857 0.329143-145.590857-104.484571-250.404571-239.177143-250.404571-85.467429 0-149.76 44.361143-189.952 102.546285C309.174857 264.411429 223.378286 325.156571 220.16 415.817143c-73.618286 13.165714-118.930286 79.396571-118.930286 159.744 0 98.048 85.467429 179.675429 197.997715 179.675428h444.196571zM301.129143 557.202286l108.982857-139.154286c7.387429-9.325714 15.433143-13.824 23.771429-13.824 6.107429 0 12.544 2.56 19.309714 6.107429l135.936 73.581714 107.995428-57.197714c22.528-11.556571 41.472 10.276571 26.038858 30.208l-109.275429 139.812571c-7.68 9.325714-15.725714 13.531429-24.100571 13.531429-6.107429 0-12.544-2.267429-19.273143-6.144l-136.301715-73.581715-107.337142 57.526857c-21.869714 11.264-42.130286-9.325714-25.746286-30.866285z" /></svg>