<?xml version="1.0" standalone="no"?><!DOCTYPE svg PUBLIC "-//W3C//DTD SVG 1.1//EN" "http://www.w3.org/Graphics/SVG/1.1/DTD/svg11.dtd"><svg class="icon" width="200px" height="200.00px" viewBox="0 0 1024 1024" version="1.1" xmlns="http://www.w3.org/2000/svg"><path fill="#000000" d="M511.670857 810.496c8.374857 0 20.589714-6.436571 30.537143-12.836571 179.675429-115.748571 294.765714-251.355429 294.765714-388.608 0-118.637714-81.956571-200.923429-184.502857-200.923429-64 0-111.872 35.364571-140.8 88.100571-28.269714-52.736-76.507429-88.100571-140.434286-88.100571-102.875429 0-184.832 82.285714-184.832 200.923429 0 137.216 115.382857 272.859429 294.765715 388.608 9.947429 6.4 22.162286 12.836571 30.500571 12.836571z m-103.497143-271.286857c0-3.510857 1.609143-6.729143 4.498286-9.947429l131.145143-163.620571c10.934857-13.531429 28.928-4.169143 22.491428 12.214857l-42.422857 113.773714h80.054857c6.4 0 12.214857 5.156571 12.214858 11.593143a13.421714 13.421714 0 0 1-4.827429 9.947429l-131.145143 163.620571c-10.934857 13.494857-28.928 4.169143-22.491428-12.544l42.752-113.773714h-80.054858c-6.729143 0-12.214857-4.827429-12.214857-11.264z" /></svg>