<?xml version="1.0" standalone="no"?><!DOCTYPE svg PUBLIC "-//W3C//DTD SVG 1.1//EN" "http://www.w3.org/Graphics/SVG/1.1/DTD/svg11.dtd"><svg class="icon" width="200px" height="200.00px" viewBox="0 0 1024 1024" version="1.1" xmlns="http://www.w3.org/2000/svg"><path fill="#000000" d="M383.122286 260.864v31.488h257.755428v-31.488c0-14.482286-9.947429-23.771429-26.038857-23.771429H408.868571c-15.762286 0-25.709714 9.289143-25.709714 23.771429z m128.548571 225.974857c-126.317714 0-246.857143-19.309714-363.849143-68.169143v-23.442285c0-67.84 35.364571-102.875429 103.826286-102.875429h64.585143v-34.377143c0-51.456 33.133714-81.993143 88.429714-81.993143h214.381714c55.296 0 88.393143 30.537143 88.393143 81.993143v34.377143h64.585143c68.790857 0 103.862857 35.035429 103.862857 102.875429v23.442285c-117.028571 48.859429-237.568 68.169143-364.214857 68.169143z m-260.022857 324.937143c-68.461714 0-103.826286-34.706286-103.826286-102.838857v-229.193143a999.204571 999.204571 0 0 0 274.834286 59.136v25.417143c0 24.429714 14.116571 37.924571 38.875429 37.924571h100.278857c25.088 0 39.241143-13.531429 39.241143-37.924571v-25.417143a999.204571 999.204571 0 0 0 274.797714-59.136v229.193143c0 68.132571-35.035429 102.838857-103.826286 102.838857H251.611429z" /></svg>