<?xml version="1.0" standalone="no"?><!DOCTYPE svg PUBLIC "-//W3C//DTD SVG 1.1//EN" "http://www.w3.org/Graphics/SVG/1.1/DTD/svg11.dtd"><svg class="icon" width="200px" height="200.00px" viewBox="0 0 1024 1024" version="1.1" xmlns="http://www.w3.org/2000/svg"><path fill="#000000" d="M250.038857 853.577143c13.531429 0 23.771429-6.436571 39.862857-21.211429l90.953143-83.565714c-17.993143-14.482286-33.426286-38.912-33.426286-88.722286V433.737143c0-101.229714 62.025143-162.011429 163.291429-162.011429h231.424l-0.329143-9.947428c-5.778286-63.963429-48.201143-107.044571-124.708571-107.044572H170.313143c-77.165714 0-125.659429 44.982857-125.659429 123.428572v322.084571c0 77.458286 47.542857 125.037714 123.428572 125.037714h51.419428v93.220572c0 21.211429 11.264 35.035429 30.537143 35.035428z m541.622857 46.262857c19.602286 0 30.829714-13.824 30.829715-34.998857v-93.257143h33.097142c75.885714 0 123.428571-47.542857 123.428572-125.001143v-204.434286c0-78.445714-48.530286-123.428571-125.659429-123.428571h-332.982857c-80.054857 0-125.696 44.690286-125.696 124.708571v203.154286c0 78.08 45.970286 125.037714 125.696 125.037714h113.115429l118.601143 107.008c16.091429 14.811429 26.038857 21.211429 39.533714 21.211429z" /></svg>