<?xml version="1.0" standalone="no"?><!DOCTYPE svg PUBLIC "-//W3C//DTD SVG 1.1//EN" "http://www.w3.org/Graphics/SVG/1.1/DTD/svg11.dtd"><svg class="icon" width="200px" height="200.00px" viewBox="0 0 1024 1024" version="1.1" xmlns="http://www.w3.org/2000/svg"><path fill="#000000" d="M242.980571 887.003429h38.546286c27.977143 0 46.921143-18.980571 46.921143-46.592v-50.834286c61.732571 4.534857 123.757714 6.765714 183.552 6.765714a2368 2368 0 0 0 183.552-6.729143v50.797715c0 27.611429 18.944 46.592 46.921143 46.592h38.875428c27.977143 0 46.921143-18.980571 46.921143-46.592V443.428571h14.482286c20.553143 0 35.364571-13.531429 35.364571-32.768V276.918857c0-19.602286-14.811429-32.768-35.364571-32.768h-14.482286v-33.426286c0-44.982857-25.709714-72.338286-72.96-78.445714C688.128 123.977143 599.771429 119.442286 512 119.442286c-87.771429 0-175.506286 4.169143-243.309714 12.836571-46.957714 6.436571-72.96 33.426286-72.96 78.445714v33.426286h-14.482286c-20.553143 0-35.364571 13.165714-35.364571 32.768v133.741714c0 19.273143 14.811429 32.768 35.364571 32.768h14.482286V840.411429c0 27.611429 18.944 46.592 47.250285 46.592z m52.370286-315.648c-21.211429-3.547429-31.817143-16.091429-31.817143-39.533715V238.665143c0-26.038857 11.885714-39.862857 35.693715-42.752 124.708571-15.104 299.885714-14.445714 426.203428 0 23.771429 2.925714 35.364571 16.713143 35.364572 42.788571v293.12c0 23.771429-10.605714 36.315429-31.817143 39.533715-126.646857 19.273143-309.869714 19.931429-433.627429 0z m20.882286 145.92c-24.100571 0-42.057143-17.993143-42.057143-41.764572 0-24.137143 17.956571-42.130286 42.057143-42.130286 23.771429 0 41.801143 17.993143 41.801143 42.130286 0 23.771429-17.993143 41.764571-41.801143 41.764572z m391.826286 0c-24.100571 0-42.093714-17.993143-42.093715-41.764572 0-24.137143 17.993143-42.130286 42.093715-42.130286 23.771429 0 42.130286 17.993143 42.130285 42.130286 0 23.771429-18.322286 41.764571-42.130285 41.764572z m-266.130286-12.836572c-17.371429 0-29.586286-12.214857-29.586286-29.586286 0-17.334857 12.214857-29.257143 29.586286-29.257142h139.483428c17.371429 0 29.915429 11.922286 29.915429 29.257142 0 17.371429-12.544 29.586286-29.915429 29.586286h-139.483428z" /></svg>