<?xml version="1.0" standalone="no"?><!DOCTYPE svg PUBLIC "-//W3C//DTD SVG 1.1//EN" "http://www.w3.org/Graphics/SVG/1.1/DTD/svg11.dtd"><svg class="icon" width="200px" height="200.00px" viewBox="0 0 1024 1024" version="1.1" xmlns="http://www.w3.org/2000/svg"><path fill="#000000" d="M167.131429 811.776h38.875428a42.788571 42.788571 0 0 0 43.373714-43.373714v-55.588572c71.68 4.461714 177.444571 8.009143 262.619429 8.009143 85.211429 0 190.902857-3.218286 262.290286-8.045714v55.588571c0 24.466286 18.944 43.410286 43.702857 43.410286h38.582857c24.758857 0 43.702857-18.944 43.702857-43.373714v-190.610286c0-56.905143-10.605714-88.393143-40.484571-127.268571l-28.635429-36.022858c-11.885714-57.526857-33.097143-118.272-44.324571-142.08-17.993143-38.253714-52.736-60.708571-97.097143-66.852571-23.442286-3.218286-92.233143-4.827429-177.737143-4.827429-85.504 0-154.624 1.938286-177.737143 4.827429-44.361143 5.485714-79.396571 28.598857-97.097143 66.852571-11.227429 23.771429-32.438857 84.553143-44.361143 142.08l-28.598857 35.986286c-30.208 38.912-40.484571 70.4-40.484571 127.268572v190.646857a42.788571 42.788571 0 0 0 43.373714 43.373714zM264.777143 384.914286c7.387429-31.817143 21.577143-74.24 31.195428-91.282286 9.325714-17.042286 19.931429-24.100571 39.862858-26.697143 22.820571-3.181714 77.787429-5.12 176.128-5.12 98.011429 0 153.307429 1.28 176.128 5.12 19.931429 2.925714 30.244571 9.654857 39.862857 26.697143 9.984 16.713143 23.149714 59.465143 30.866285 91.282286 3.547429 13.824-2.56 20.260571-17.042285 19.638857-49.481143-2.925714-111.835429-6.107429-229.814857-6.107429s-180.297143 3.181714-229.814858 6.107429c-14.774857 0.621714-20.260571-5.814857-17.371428-19.638857z m11.593143 245.906285c-30.537143 0-54.016-23.149714-54.016-53.686857 0-30.866286 23.478857-53.979429 54.016-53.979428 30.537143 0 53.650286 23.149714 53.650285 53.979428 0 30.537143-23.113143 53.686857-53.650285 53.686857z m471.186285 0c-30.829714 0-53.979429-23.149714-53.979428-53.686857 0-30.866286 23.149714-53.979429 53.979428-53.979428 30.537143 0 53.686857 23.149714 53.686858 53.979428 0 30.537143-23.149714 53.686857-53.686858 53.686857z m-322.377142-13.531428c-23.149714 0-39.204571-16.054857-39.204572-38.875429 0-22.820571 16.091429-38.875429 39.204572-38.875428h173.568c22.820571 0 38.875429 16.091429 38.875428 38.875428 0 22.820571-16.054857 38.912-38.875428 38.912h-173.568z" /></svg>