<?xml version="1.0" standalone="no"?><!DOCTYPE svg PUBLIC "-//W3C//DTD SVG 1.1//EN" "http://www.w3.org/Graphics/SVG/1.1/DTD/svg11.dtd"><svg class="icon" width="200px" height="200.00px" viewBox="0 0 1024 1024" version="1.1" xmlns="http://www.w3.org/2000/svg"><path fill="#000000" d="M244.882286 475.245714l216.649143 88.064c17.371429 7.387429 34.084571 14.153143 50.468571 14.153143 16.384 0 33.426286-6.729143 50.468571-14.153143l216.649143-88.064c14.445714-6.107429 24.100571-18.651429 24.100572-33.426285 0-24.137143-17.664-40.813714-39.533715-40.813715-11.593143 0-26.989714 6.729143-38.253714 11.264L512 498.724571l-213.430857-86.454857c-11.264-4.534857-26.331429-11.264-38.253714-11.264-21.833143 0-39.497143 16.713143-39.497143 40.813715 0 14.774857 9.618286 27.318857 24.064 33.426285z" /></svg>