<?xml version="1.0" standalone="no"?><!DOCTYPE svg PUBLIC "-//W3C//DTD SVG 1.1//EN" "http://www.w3.org/Graphics/SVG/1.1/DTD/svg11.dtd"><svg class="icon" width="200px" height="200.00px" viewBox="0 0 1024 1024" version="1.1" xmlns="http://www.w3.org/2000/svg"><path fill="#000000" d="M529.664 784.457143c10.313143 0 19.309714-3.84 26.697143-10.934857l250.075428-244.589715c8.667429-8.667429 13.165714-18.322286 13.165715-29.586285 0-11.227429-4.498286-21.540571-13.494857-29.878857l-250.075429-244.297143a36.425143 36.425143 0 0 0-26.331429-10.934857c-21.577143 0-38.582857 16.713143-38.582857 37.961142 0 10.24 4.498286 20.224 11.885715 27.611429l224.987428 219.245714-224.987428 219.830857a37.924571 37.924571 0 0 0 26.697142 65.572572z m-287.341714 0c10.605714 0 19.273143-3.84 26.697143-10.934857l250.038857-244.589715c9.033143-8.667429 13.165714-18.322286 13.165714-29.586285 0-11.227429-4.461714-21.540571-13.165714-29.878857l-250.075429-244.297143a37.156571 37.156571 0 0 0-26.660571-10.934857A37.668571 37.668571 0 0 0 204.068571 252.196571c0 10.24 4.169143 20.224 11.556572 27.611429l225.353143 219.245714-225.353143 219.830857a40.009143 40.009143 0 0 0-11.556572 27.648c0 21.211429 16.713143 37.924571 38.253715 37.924572z" /></svg>