<?xml version="1.0" standalone="no"?><!DOCTYPE svg PUBLIC "-//W3C//DTD SVG 1.1//EN" "http://www.w3.org/Graphics/SVG/1.1/DTD/svg11.dtd"><svg class="icon" width="200px" height="200.00px" viewBox="0 0 1024 1024" version="1.1" xmlns="http://www.w3.org/2000/svg"><path fill="#000000" d="M743.424 755.2c100.278857 0 179.346286-73.581714 179.346286-165.522286 0-68.132571-38.875429-128.877714-102.838857-155.574857 0.329143-145.590857-104.484571-250.404571-239.177143-250.404571-85.467429 0-149.76 44.361143-189.952 102.546285C309.174857 264.411429 223.378286 325.156571 220.16 415.817143c-73.618286 13.165714-118.930286 79.396571-118.930286 159.744 0 98.048 85.467429 179.675429 197.997715 179.675428h444.196571z m-254.902857-131.766857c-11.556571 0-20.845714-5.12-28.891429-15.433143l-72.045714-89.051429a33.060571 33.060571 0 0 1-8.045714-21.211428c0-16.384 12.873143-28.598857 28.635428-28.598857 9.984 0 18.322286 4.498286 24.429715 12.873143l54.637714 69.741714 107.702857-178.724572c6.107429-10.276571 15.396571-16.091429 25.380571-16.091428 16.091429 0 29.549714 11.922286 29.549715 27.355428 0 7.387429-3.84 15.104-7.387429 20.882286l-126.317714 202.166857c-6.436571 10.313143-16.384 16.091429-27.648 16.091429z" /></svg>