<?xml version="1.0" standalone="no"?><!DOCTYPE svg PUBLIC "-//W3C//DTD SVG 1.1//EN" "http://www.w3.org/Graphics/SVG/1.1/DTD/svg11.dtd"><svg class="icon" width="200px" height="200.00px" viewBox="0 0 1024 1024" version="1.1" xmlns="http://www.w3.org/2000/svg"><path fill="#000000" d="M497.846857 765.805714l88.393143-216.612571c7.387429-17.371429 14.153143-34.377143 14.153143-50.468572 0-16.420571-6.765714-33.426286-14.153143-50.468571l-88.393143-216.978286c-6.107429-14.116571-18.651429-23.771429-33.426286-23.771428-24.100571 0-40.813714 17.664-40.813714 39.497143 0 11.593143 6.765714 27.062857 11.264 38.290285l86.784 213.430857-86.784 213.430858c-4.498286 11.227429-11.264 26.331429-11.264 38.253714 0 21.833143 16.713143 39.497143 40.813714 39.497143 14.811429 0 27.318857-9.618286 33.426286-24.100572z" /></svg>