<?xml version="1.0" standalone="no"?><!DOCTYPE svg PUBLIC "-//W3C//DTD SVG 1.1//EN" "http://www.w3.org/Graphics/SVG/1.1/DTD/svg11.dtd"><svg class="icon" width="200px" height="200.00px" viewBox="0 0 1024 1024" version="1.1" xmlns="http://www.w3.org/2000/svg"><path fill="#000000" d="M467.309714 773.522286c7.387429 7.094857 16.420571 10.971429 26.697143 10.971428a37.668571 37.668571 0 0 0 38.253714-37.961143c0-10.605714-4.169143-20.260571-11.593142-27.648l-224.987429-219.830857 224.987429-219.245714c7.424-7.387429 11.593143-17.334857 11.593142-27.611429a37.668571 37.668571 0 0 0-38.253714-37.961142 36.425143 36.425143 0 0 0-26.331428 10.971428l-250.112 244.260572c-8.996571 8.338286-13.494857 18.651429-13.494858 29.878857 0 11.264 4.498286 20.918857 13.165715 29.586285l250.075428 244.589715z m287.378286 0c7.387429 7.094857 16.091429 10.971429 26.697143 10.971428a37.668571 37.668571 0 0 0 38.217143-37.961143c0-10.605714-4.498286-20.260571-11.556572-27.648l-225.316571-219.830857 225.28-219.245714c7.424-7.387429 11.593143-17.334857 11.593143-27.611429a37.668571 37.668571 0 0 0-38.253715-37.961142c-10.605714 0-19.273143 3.876571-26.697142 10.971428l-250.038858 244.260572c-8.704 8.338286-13.165714 18.651429-13.531428 29.878857 0 11.264 4.534857 20.918857 13.531428 29.586285l250.075429 244.589715z" /></svg>