<?xml version="1.0" standalone="no"?><!DOCTYPE svg PUBLIC "-//W3C//DTD SVG 1.1//EN" "http://www.w3.org/Graphics/SVG/1.1/DTD/svg11.dtd"><svg class="icon" width="200px" height="191.58px" viewBox="0 0 1069 1024" version="1.1" xmlns="http://www.w3.org/2000/svg"><path fill="#000000" d="M733.476571 204.288c16.091429 0 29.257143-13.531429 29.257143-29.257143v-66.56c0-16.054857-13.165714-29.220571-29.257143-29.220571-16.091429 0-29.257143 13.165714-29.257142 29.257143v66.56c0 15.725714 13.165714 29.220571 29.257142 29.220571z m-190.939428 62.025143c11.556571 11.593143 30.537143 11.593143 41.472 0.329143a29.622857 29.622857 0 0 0-0.329143-41.142857l-47.250286-47.250286a28.635429 28.635429 0 0 0-40.813714 0 29.257143 29.257143 0 0 0 0 41.142857l46.921143 46.921143z m340.699428 0.329143a29.403429 29.403429 0 0 0 41.472-0.329143L971.629714 219.428571a29.293714 29.293714 0 0 0 0-41.142857 28.891429 28.891429 0 0 0-40.813714 0l-47.542857 47.250286a29.622857 29.622857 0 0 0 0 41.142857z m-63.634285 286.72c45.970286-31.195429 74.898286-80.676571 74.898285-137.252572a160.438857 160.438857 0 0 0-160.731428-161.024 157.220571 157.220571 0 0 0-136.594286 77.787429c13.824 13.787429 25.709714 29.549714 35.693714 48.530286 104.118857 7.68 175.798857 74.898286 186.733715 171.958857zM257.462857 741.412571h357.741714c91.611429 0 162.340571-69.778286 162.340572-160.731428 0-91.282286-72.96-160.073143-171.008-160.402286-36.315429-69.12-102.217143-114.432-186.112-114.432-107.044571 0-197.046857 82.285714-206.665143 189.988572-55.954286 16.091429-91.611429 63.305143-91.611429 121.490285 0 73.618286 54.966857 124.086857 135.314286 124.086857z m716.8-296.045714h66.523429c16.091429 0 28.928-13.165714 28.928-29.257143a28.891429 28.891429 0 0 0-28.928-29.257143h-66.56c-15.725714 0-29.257143 13.165714-29.257143 29.257143 0 16.091429 13.531429 29.257143 29.257143 29.257143z m-43.739428 209.225143a29.293714 29.293714 0 0 0 41.142857-0.292571 28.891429 28.891429 0 0 0 0-40.850286l-47.250286-47.250286a29.622857 29.622857 0 0 0-41.142857 0 29.293714 29.293714 0 0 0 0 41.142857l47.250286 47.250286z" /></svg>