<?xml version="1.0" standalone="no"?><!DOCTYPE svg PUBLIC "-//W3C//DTD SVG 1.1//EN" "http://www.w3.org/Graphics/SVG/1.1/DTD/svg11.dtd"><svg class="icon" width="200px" height="200.00px" viewBox="0 0 1024 1024" version="1.1" xmlns="http://www.w3.org/2000/svg"><path fill="#000000" d="M511.670857 831.707429c182.272 0 332.690286-150.418286 332.690286-332.361143 0-181.906286-150.747429-332.361143-333.019429-332.361143-181.906286 0-332.032 150.454857-332.032 332.361143 0 181.942857 150.454857 332.361143 332.361143 332.361143z m-162.011428-291.84a25.380571 25.380571 0 0 1-25.709715-25.709715c0-14.482286 11.264-25.746286 25.746286-25.746285h136.265143V303.945143c0-14.482286 11.264-25.746286 25.380571-25.746286 14.811429 0 26.038857 11.264 26.038857 25.746286v210.212571a25.453714 25.453714 0 0 1-26.038857 25.709715h-161.645714z" /></svg>