<?xml version="1.0" standalone="no"?><!DOCTYPE svg PUBLIC "-//W3C//DTD SVG 1.1//EN" "http://www.w3.org/Graphics/SVG/1.1/DTD/svg11.dtd"><svg class="icon" width="200px" height="200.00px" viewBox="0 0 1024 1024" version="1.1" xmlns="http://www.w3.org/2000/svg"><path fill="#000000" d="M820.882286 569.088c99.328-20.224 158.793143-101.888 158.793143-155.574857 0-13.165714-5.485714-22.491429-16.091429-22.491429-16.384 0-40.484571 20.260571-85.467429 20.260572-77.787429 0.329143-126.646857-46.921143-126.646857-117.979429 0-43.702857 21.869714-75.190857 21.869715-92.891428 0-10.276571-7.094857-17.042286-19.931429-16.713143-58.514286 2.267429-136.630857 67.84-154.331429 154.953143 10.971429 10.605714 20.918857 23.771429 29.622858 41.435428 105.728 7.387429 187.684571 88.100571 192.182857 189.001143zM257.462857 741.376h357.741714c91.611429 0 162.340571-69.741714 162.340572-160.694857 0-91.282286-72.96-160.073143-171.008-160.402286-36.315429-69.12-102.217143-114.432-186.112-114.432-107.044571 0-197.046857 82.285714-206.665143 189.952-55.954286 16.091429-91.611429 63.341714-91.611429 121.526857 0 73.581714 54.966857 124.050286 135.314286 124.050286z" /></svg>