<?xml version="1.0" standalone="no"?><!DOCTYPE svg PUBLIC "-//W3C//DTD SVG 1.1//EN" "http://www.w3.org/Graphics/SVG/1.1/DTD/svg11.dtd"><svg class="icon" width="200px" height="200.00px" viewBox="0 0 1024 1024" version="1.1" xmlns="http://www.w3.org/2000/svg"><path fill="#000000" d="M295.350857 655.250286h400.822857c104.484571 0 185.161143-79.067429 185.161143-180.662857 0-103.131429-83.565714-180.626286-193.828571-179.675429-41.472-83.236571-117.028571-130.194286-208.603429-130.194286-120.210286 0-221.147429 92.598857-232.411428 213.467429-62.683429 18.285714-104.118857 71.350857-104.118858 136.594286 0 82.944 62.354286 140.470857 152.978286 140.470857z m265.508572 159.085714l41.472-71.68a20.516571 20.516571 0 0 0-7.387429-29.257143c-10.605714-6.070857-22.528-2.56-28.635429 8.411429l-41.764571 72.301714a19.931429 19.931429 0 0 0 7.68 28.269714 20.48 20.48 0 0 0 28.635429-8.045714z m74.898285 91.318857l94.829715-163.620571a20.699429 20.699429 0 1 0-36.022858-20.589715l-94.171428 163.291429a21.028571 21.028571 0 0 0 7.387428 28.928 20.041143 20.041143 0 0 0 27.977143-8.045714z m-330.422857-90.989714l41.435429-71.972572a20.736 20.736 0 0 0-7.387429-28.928c-10.605714-6.107429-22.491429-2.56-28.891428 8.338286l-41.801143 72.009143a20.48 20.48 0 0 0 7.68 28.598857 21.211429 21.211429 0 0 0 28.964571-8.045714z m74.861714 91.318857l94.500572-163.620571a20.845714 20.845714 0 0 0-7.058286-28.598858 20.662857 20.662857 0 0 0-28.891428 8.045715L344.868571 885.028571a20.662857 20.662857 0 0 0 7.058286 28.928c10.276571 5.778286 22.198857 2.267429 28.306286-8.045714z" /></svg>