<?xml version="1.0" standalone="no"?><!DOCTYPE svg PUBLIC "-//W3C//DTD SVG 1.1//EN" "http://www.w3.org/Graphics/SVG/1.1/DTD/svg11.dtd"><svg class="icon" width="200px" height="200.00px" viewBox="0 0 1024 1024" version="1.1" xmlns="http://www.w3.org/2000/svg"><path fill="#000000" d="M822.162286 525.714286c99.657143-19.931429 159.122286-101.558857 159.122285-155.574857 0-12.873143-5.778286-22.198857-16.384-22.198858-16.384 0-40.521143 20.260571-85.504 20.260572-77.458286 0-126.317714-46.921143-126.317714-118.272 0-43.739429 21.540571-74.898286 21.540572-92.891429 0-10.276571-7.094857-17.042286-19.931429-16.713143-58.514286 2.230857-136.301714 67.803429-154.294857 155.245715 10.934857 10.276571 21.211429 23.771429 29.586286 41.472 105.728 7.387429 187.684571 87.734857 192.182857 188.672zM257.462857 697.344h357.741714c91.611429 0 162.340571-69.741714 162.340572-160.694857 0-91.611429-72.96-160.073143-171.008-160.402286-36.315429-69.449143-102.217143-114.432-186.112-114.432-107.044571 0-197.046857 82.285714-206.665143 189.952-55.954286 16.091429-91.611429 63.341714-91.611429 121.197714 0 73.910857 54.966857 124.379429 135.314286 124.379429z m275.456 117.028571h-66.523428l28.598857-54.674285c3.876571-6.729143 0.950857-12.214857-6.107429-12.214857h-72.96c-8.996571 0-11.885714 3.547429-14.774857 9.984l-42.130286 95.122285c-3.181714 7.716571 0 12.873143 8.374857 12.873143h55.296l-41.801142 101.229714c-1.938286 4.205714-0.950857 7.716571 1.938285 9.033143 3.218286 0.950857 6.436571 0.292571 9.947429-3.218285l144.969143-142.409143c6.765714-6.729143 4.169143-15.725714-4.827429-15.725715z" /></svg>