<?xml version="1.0" standalone="no"?><!DOCTYPE svg PUBLIC "-//W3C//DTD SVG 1.1//EN" "http://www.w3.org/Graphics/SVG/1.1/DTD/svg11.dtd"><svg class="icon" width="200px" height="200.00px" viewBox="0 0 1024 1024" version="1.1" xmlns="http://www.w3.org/2000/svg"><path fill="#000000" d="M295.350857 655.250286h400.822857c104.484571 0 185.161143-79.067429 185.161143-180.662857 0-103.131429-83.565714-180.626286-193.828571-179.675429-41.472-83.236571-117.028571-130.194286-208.603429-130.194286-120.210286 0-221.147429 92.598857-232.411428 213.467429-62.683429 18.285714-104.118857 71.350857-104.118858 136.594286 0 82.944 62.354286 140.470857 152.978286 140.470857z m298.605714 122.770285h-68.132571l30.537143-58.806857c3.84-7.058286 0.950857-12.544-6.107429-12.544h-75.849143c-9.325714 0-12.544 3.218286-15.433142 9.984l-44.690286 101.888c-3.547429 8.045714 0 12.836571 8.374857 12.836572h56.868571l-43.373714 105.764571c-1.938286 4.169143-0.987429 8.045714 2.230857 9.325714 2.925714 0.950857 6.436571 0.329143 9.984-3.218285l150.747429-149.138286c7.058286-7.094857 4.169143-16.091429-5.12-16.091429z" /></svg>