<?xml version="1.0" standalone="no"?><!DOCTYPE svg PUBLIC "-//W3C//DTD SVG 1.1//EN" "http://www.w3.org/Graphics/SVG/1.1/DTD/svg11.dtd"><svg class="icon" width="200px" height="200.00px" viewBox="0 0 1024 1024" version="1.1" xmlns="http://www.w3.org/2000/svg"><path fill="#000000" d="M295.350857 655.250286h400.822857c104.484571 0 185.161143-79.067429 185.161143-180.662857 0-103.131429-83.565714-180.626286-193.828571-179.675429-41.472-83.236571-117.028571-130.194286-208.603429-130.194286-120.210286 0-221.147429 92.598857-232.411428 213.467429-62.683429 18.285714-104.118857 71.350857-104.118858 136.594286 0 82.944 62.354286 140.470857 152.978286 140.470857z m44.032 119.881143l19.931429-35.035429a20.48 20.48 0 0 0-7.387429-28.891429c-10.605714-6.144-22.491429-2.267429-28.598857 8.338286l-20.260571 35.364572a20.48 20.48 0 0 0 7.387428 28.598857c10.605714 5.778286 23.149714 1.938286 28.928-8.374857z m140.470857 49.188571l48.237715-83.565714c5.778286-10.605714 2.889143-23.149714-7.424-29.257143-10.605714-6.107429-22.820571-2.56-28.891429 8.374857l-48.566857 84.187429a20.553143 20.553143 0 0 0 7.716571 28.635428 21.321143 21.321143 0 0 0 28.928-8.374857z m196.388572-47.908571l19.931428-34.998858a20.48 20.48 0 0 0-7.387428-28.964571c-10.605714-6.107429-22.491429-2.230857-28.598857 8.045714l-20.260572 35.693715a20.077714 20.077714 0 0 0 7.387429 28.269714c10.605714 6.107429 23.149714 2.267429 28.928-8.045714zM278.966857 874.496a36.571429 36.571429 0 0 0 36.315429-36.644571 36.425143 36.425143 0 0 0-36.315429-35.986286 36.425143 36.425143 0 0 0-36.315428 35.986286 36.571429 36.571429 0 0 0 36.315428 36.644571z m336.822857 1.28c19.638857 0 36.352-16.713143 36.352-36.644571a36.425143 36.425143 0 0 0-36.315428-35.986286 36.425143 36.425143 0 0 0-36.315429 35.986286c0 19.931429 16.384 36.644571 36.315429 36.644571z m-196.388571 47.908571a36.498286 36.498286 0 0 0 36.022857-36.644571 36.571429 36.571429 0 0 0-35.986286-36.022857c-19.931429 0-36.644571 16.749714-36.644571 36.022857 0 20.260571 16.713143 36.644571 36.644571 36.644571z" /></svg>