<?xml version="1.0" standalone="no"?><!DOCTYPE svg PUBLIC "-//W3C//DTD SVG 1.1//EN" "http://www.w3.org/Graphics/SVG/1.1/DTD/svg11.dtd"><svg class="icon" width="200px" height="191.76px" viewBox="0 0 1068 1024" version="1.1" xmlns="http://www.w3.org/2000/svg"><path fill="#000000" d="M732.525714 161.865143a29.257143 29.257143 0 0 0 28.891429-29.257143v-66.194286a29.147429 29.147429 0 0 0-28.891429-29.622857c-16.091429 0-29.257143 13.202286-29.257143 29.622857v66.194286c0 15.725714 13.165714 29.257143 29.257143 29.257143zM541.257143 224.182857a29.403429 29.403429 0 0 0 41.472 0 29.220571 29.220571 0 0 0 0-40.813714l-47.250286-47.579429a29.293714 29.293714 0 0 0-41.142857 0 29.293714 29.293714 0 0 0 0 41.142857L541.257143 224.182857z m340.699428 0a29.769143 29.769143 0 0 0 41.801143 0l46.592-46.921143a29.403429 29.403429 0 0 0 0.329143-41.472 29.001143 29.001143 0 0 0-41.142857 0.329143l-47.250286 47.250286c-11.556571 10.898286-11.264 29.549714-0.329143 40.813714z m-63.634285 287.012572c46.299429-31.451429 74.898286-80.676571 74.898285-137.545143a160.438857 160.438857 0 0 0-160.731428-161.060572 157.220571 157.220571 0 0 0-136.594286 77.787429c13.824 14.153143 25.709714 29.586286 35.693714 48.566857 104.118857 8.045714 175.798857 74.861714 186.733715 172.251429zM257.426286 697.417143h357.741714c91.611429 0 162.340571-69.778286 162.340571-160.731429 0-91.611429-72.96-160.073143-171.008-160.402285-36.315429-69.412571-102.217143-114.432-186.112-114.432-107.044571 0-197.046857 82.285714-206.665142 189.988571-55.954286 16.054857-91.611429 63.305143-91.611429 121.161143 0 73.947429 54.966857 124.379429 135.314286 124.379428z m715.812571-294.436572h66.194286c16.091429 0 29.257143-12.873143 29.257143-28.928 0-16.091429-13.165714-29.257143-29.257143-29.257142h-66.194286c-15.725714 0-29.257143 13.165714-29.257143 29.257142a29.257143 29.257143 0 0 0 29.257143 28.891429z m-43.702857 209.225143a28.891429 28.891429 0 0 0 40.813714 0 29.293714 29.293714 0 0 0 0-41.142857l-47.250285-47.250286a29.622857 29.622857 0 0 0-41.142858 0 29.293714 29.293714 0 0 0 0.329143 41.142858l47.250286 47.250285zM514.56 853.942857l41.472-72.045714a20.224 20.224 0 0 0-7.387429-28.891429c-10.605714-6.107429-22.198857-2.56-28.598857 8.338286l-41.801143 72.338286a19.931429 19.931429 0 0 0 7.716572 28.269714 20.772571 20.772571 0 0 0 28.598857-8.045714z m-255.524571 0.292572l41.472-71.972572a20.736 20.736 0 0 0-7.387429-28.928c-10.605714-6.107429-22.528-2.56-28.928 8.045714L222.354286 833.609143a20.553143 20.553143 0 0 0 7.716571 28.598857 21.211429 21.211429 0 0 0 28.928-8.045714z m356.461714 90.002285l41.472-71.68c6.107429-10.605714 3.218286-23.113143-7.387429-29.257143-10.605714-6.070857-22.528-2.56-28.598857 8.411429l-41.801143 72.301714a19.821714 19.821714 0 0 0 7.387429 28.269715c10.605714 6.107429 23.149714 2.267429 28.928-8.045715z m-255.524572 0.365715l41.472-72.045715a20.589714 20.589714 0 0 0-7.716571-28.891428c-10.605714-6.144-22.198857-2.56-28.635429 8.338285l-41.764571 72.301715a19.931429 19.931429 0 0 0 7.68 28.306285 21.211429 21.211429 0 0 0 28.964571-8.045714z" /></svg>