<?xml version="1.0" standalone="no"?><!DOCTYPE svg PUBLIC "-//W3C//DTD SVG 1.1//EN" "http://www.w3.org/Graphics/SVG/1.1/DTD/svg11.dtd"><svg class="icon" width="200px" height="200.00px" viewBox="0 0 1024 1024" version="1.1" xmlns="http://www.w3.org/2000/svg"><path fill="#000000" d="M295.350857 655.250286h400.822857c104.484571 0 185.161143-79.067429 185.161143-180.662857 0-103.131429-83.565714-180.626286-193.828571-179.675429-41.472-83.236571-117.028571-130.194286-208.603429-130.194286-120.210286 0-221.147429 92.598857-232.411428 213.467429-62.683429 18.285714-104.118857 71.350857-104.118858 136.594286 0 82.944 62.354286 140.470857 152.978286 140.470857z m298.605714 122.770285h-68.132571l30.537143-58.806857c3.84-7.058286 0.950857-12.544-6.107429-12.544h-75.849143c-9.325714 0-12.544 3.218286-15.433142 9.984l-44.690286 101.888c-3.547429 8.045714 0 12.836571 8.374857 12.836572h56.868571l-43.373714 105.764571c-1.938286 4.169143-0.987429 8.045714 2.230857 9.325714 2.925714 0.950857 6.436571 0.329143 9.984-3.218285l150.747429-149.138286c7.058286-7.094857 4.169143-16.091429-5.12-16.091429zM224.329143 821.430857a20.845714 20.845714 0 0 0 28.598857-8.374857l41.472-71.68a20.589714 20.589714 0 0 0-7.387429-29.257143c-10.605714-5.778286-22.198857-2.194286-28.635428 8.411429l-41.764572 72.301714a20.297143 20.297143 0 0 0 7.68 28.598857z m448.365714 0a20.845714 20.845714 0 0 0 28.635429-8.374857l41.472-71.68a20.589714 20.589714 0 0 0-7.424-29.257143c-10.605714-5.778286-22.162286-2.194286-28.598857 8.411429l-41.764572 72.301714a20.297143 20.297143 0 0 0 7.68 28.598857zM286.354286 911.104a21.211429 21.211429 0 0 0 28.928-8.045714l41.472-71.972572a20.736 20.736 0 0 0-7.387429-28.928c-10.971429-6.107429-22.528-2.56-28.928 8.338286L278.637714 882.834286a20.187429 20.187429 0 0 0 7.716572 28.269714z m448.365714 0a21.211429 21.211429 0 0 0 28.964571-8.045714l41.472-71.972572a20.736 20.736 0 0 0-7.387428-28.928c-10.971429-6.107429-22.528-2.56-28.928 8.338286L727.04 882.834286a20.187429 20.187429 0 0 0 7.68 28.269714z" /></svg>