<?xml version="1.0" standalone="no"?><!DOCTYPE svg PUBLIC "-//W3C//DTD SVG 1.1//EN" "http://www.w3.org/Graphics/SVG/1.1/DTD/svg11.dtd"><svg class="icon" width="200px" height="200.00px" viewBox="0 0 1024 1024" version="1.1" xmlns="http://www.w3.org/2000/svg"><path fill="#000000" d="M295.350857 655.250286h400.822857c104.484571 0 185.161143-79.067429 185.161143-180.662857 0-103.131429-83.565714-180.626286-193.828571-179.675429-41.472-83.236571-117.028571-130.194286-208.603429-130.194286-120.210286 0-221.147429 92.598857-232.411428 213.467429-62.683429 18.285714-104.118857 71.350857-104.118858 136.594286 0 82.944 62.354286 140.470857 152.978286 140.470857z m44.032 119.881143l19.931429-35.035429a20.48 20.48 0 0 0-7.387429-28.891429c-10.605714-6.144-22.491429-2.267429-28.598857 8.338286l-20.260571 35.364572a20.48 20.48 0 0 0 7.387428 28.598857c10.605714 5.778286 23.149714 1.938286 28.928-8.374857z m140.470857 49.188571l48.237715-83.565714c5.778286-10.605714 2.889143-23.149714-7.424-29.257143-10.605714-6.107429-22.820571-2.56-28.891429 8.374857l-48.566857 84.187429a20.553143 20.553143 0 0 0 7.716571 28.635428 21.321143 21.321143 0 0 0 28.928-8.374857z m196.388572-47.908571l19.931428-34.998858a20.48 20.48 0 0 0-7.387428-28.964571c-10.605714-6.107429-22.491429-2.230857-28.598857 8.045714l-20.260572 35.693715a20.077714 20.077714 0 0 0 7.387429 28.269714c10.605714 6.107429 23.149714 2.267429 28.928-8.045714zM274.797714 915.017143c6.4 0 10.898286-5.814857 10.24-12.544l-2.56-30.537143 25.088 17.664c5.12 3.876571 12.873143 2.56 16.091429-2.889143 3.510857-5.485714 1.28-13.165714-5.485714-16.091428l-27.648-12.8 27.977142-13.202286a11.410286 11.410286 0 0 0 5.485715-15.725714c-2.925714-5.851429-11.264-6.802286-16.420572-2.925715l-25.051428 17.664 2.889143-30.537143a10.861714 10.861714 0 0 0-10.605715-12.507428c-7.094857 0-11.593143 5.778286-11.264 12.507428l2.925715 30.537143-25.417143-17.993143c-5.12-3.510857-12.544-2.889143-16.091429 3.218286-3.218286 5.485714-1.28 12.544 5.485714 15.725714l27.648 13.202286-27.648 12.873143a11.629714 11.629714 0 0 0-5.778285 16.091429 11.264 11.264 0 0 0 16.384 2.852571l25.380571-17.334857-2.56 30.208c-0.329143 6.729143 3.84 12.544 10.934857 12.544z m338.139429 1.28c6.729143 0 11.227429-6.107429 10.605714-12.544l-2.925714-30.537143 25.417143 17.664c5.12 3.876571 12.544 2.56 16.091428-2.889143a11.264 11.264 0 0 0-5.485714-16.091428l-27.648-12.8 27.977143-13.202286a11.483429 11.483429 0 0 0 5.485714-15.725714c-3.254857-5.814857-11.264-6.765714-16.420571-2.925715l-25.380572 17.664 3.218286-30.500571c0.621714-6.765714-4.205714-12.544-10.971429-12.544-7.058286 0-11.556571 5.778286-10.898285 12.544l2.56 30.500571-25.051429-17.993143c-5.485714-3.84-12.873143-2.889143-16.091428 3.218286-3.218286 5.485714-1.28 12.544 5.485714 15.725714l27.611428 13.202286-27.940571 12.873143a11.190857 11.190857 0 0 0-5.485714 16.091429c3.218286 5.778286 10.971429 6.729143 16.420571 2.852571l25.051429-17.664-2.230857 30.537143c-0.658286 6.436571 3.510857 12.544 10.605714 12.544z m-183.222857 47.908571c6.436571 0 10.934857-5.814857 10.276571-12.580571l-2.56-30.500572 25.051429 17.664c5.156571 3.84 12.873143 2.889143 16.091428-2.56a11.373714 11.373714 0 0 0-5.485714-16.420571l-27.611429-12.836571 27.940572-13.165715a11.52 11.52 0 0 0 5.814857-15.762285c-3.218286-5.778286-11.593143-6.765714-16.713143-2.925715l-25.088 17.700572 2.889143-30.537143a10.861714 10.861714 0 0 0-10.605714-12.544c-7.058286 0-11.556571 5.814857-10.934857 12.544l2.56 30.537143-25.380572-17.664a10.934857 10.934857 0 0 0-16.091428 2.889143c-3.181714 5.485714-1.28 12.544 5.485714 15.725714l27.977143 13.165714-27.977143 12.873143a11.593143 11.593143 0 0 0-5.485714 16.420571c3.254857 5.778286 10.971429 6.4 16.091428 2.889143l25.380572-17.700571-2.56 30.208c-0.329143 6.765714 3.876571 12.544 10.934857 12.544z" /></svg>