<?xml version="1.0" standalone="no"?><!DOCTYPE svg PUBLIC "-//W3C//DTD SVG 1.1//EN" "http://www.w3.org/Graphics/SVG/1.1/DTD/svg11.dtd"><svg class="icon" width="200px" height="200.00px" viewBox="0 0 1024 1024" version="1.1" xmlns="http://www.w3.org/2000/svg"><path fill="#000000" d="M295.350857 655.250286h400.822857c104.484571 0 185.161143-79.067429 185.161143-180.662857 0-103.131429-83.565714-180.626286-193.828571-179.675429-41.472-83.236571-117.028571-130.194286-208.603429-130.194286-120.210286 0-221.147429 92.598857-232.411428 213.467429-62.683429 18.285714-104.118857 71.350857-104.118858 136.594286 0 82.944 62.354286 140.470857 152.978286 140.470857z m74.605714 250.404571l94.134858-162.669714c6.107429-10.898286 2.925714-23.113143-7.387429-29.257143-10.898286-6.070857-22.491429-2.56-28.891429 8.411429L333.568 885.394286a20.443429 20.443429 0 0 0 7.387429 28.598857c10.605714 5.778286 23.149714 1.938286 28.928-8.338286z m-128.292571 0.329143l94.208-162.998857c6.107429-10.898286 2.889143-22.820571-7.424-28.891429-10.605714-6.144-22.491429-2.925714-28.891429 8.045715L205.312 885.394286c-5.778286 10.276571-3.218286 22.491429 7.387429 28.598857 10.605714 5.778286 23.149714 2.267429 28.928-8.045714z m256.182857 0l93.878857-162.998857c6.107429-10.898286 3.218286-22.820571-7.424-28.891429a20.004571 20.004571 0 0 0-28.598857 8.045715l-94.500571 163.254857c-5.485714 10.276571-3.218286 22.491429 7.716571 28.598857a21.211429 21.211429 0 0 0 28.928-8.045714z m127.268572 0l94.537142-163.620571c6.107429-10.276571 3.218286-22.820571-7.387428-28.598858-10.313143-5.485714-22.528-2.56-28.306286 8.045715L589.787429 885.028571c-6.107429 10.276571-3.547429 22.820571 7.058285 28.928a20.662857 20.662857 0 0 0 28.306286-8.045714z" /></svg>