<?xml version="1.0" standalone="no"?><!DOCTYPE svg PUBLIC "-//W3C//DTD SVG 1.1//EN" "http://www.w3.org/Graphics/SVG/1.1/DTD/svg11.dtd"><svg class="icon" width="200px" height="200.00px" viewBox="0 0 1024 1024" version="1.1" xmlns="http://www.w3.org/2000/svg"><path fill="#000000" d="M295.350857 655.250286h400.822857c104.484571 0 185.161143-79.067429 185.161143-180.662857 0-103.131429-83.565714-180.626286-193.828571-179.675429-41.472-83.236571-117.028571-130.194286-208.603429-130.194286-120.210286 0-221.147429 92.598857-232.411428 213.467429-62.683429 18.285714-104.118857 71.350857-104.118858 136.594286 0 82.944 62.354286 140.470857 152.978286 140.470857z m15.433143 169.069714c6.436571 0 10.934857-6.107429 10.276571-12.544l-2.889142-30.537143 25.417142 17.700572c5.12 3.84 12.836571 2.56 16.054858-2.925715 3.547429-5.449143 1.28-13.165714-5.485715-16.054857l-27.611428-12.836571 27.940571-13.165715a11.483429 11.483429 0 0 0 5.485714-15.762285c-3.218286-5.814857-11.264-6.765714-16.384-2.925715l-25.088 17.700572 2.925715-30.537143a10.715429 10.715429 0 0 0-10.642286-12.544c-7.387429 0-11.556571 5.485714-11.264 12.544l2.925714 30.537143-25.417143-17.993143c-5.12-3.547429-12.544-2.925714-16.091428 3.218286-3.181714 5.449143-1.243429 12.507429 5.485714 15.725714l27.648 13.165714-27.648 12.873143a11.556571 11.556571 0 0 0-5.778286 16.091429c3.218286 5.778286 11.264 6.729143 16.384 2.889143l25.417143-17.700572-2.56 30.537143c-0.658286 6.436571 3.510857 12.544 10.898286 12.544z m356.132571 0c6.436571 0 10.971429-6.107429 10.313143-12.544l-2.925714-30.537143 25.417143 17.700572c5.12 3.84 12.836571 2.56 16.091428-2.925715 3.510857-5.449143 1.243429-13.165714-5.485714-16.054857l-27.648-12.836571 27.977143-13.165715a11.483429 11.483429 0 0 0 5.485714-15.762285c-3.254857-5.814857-11.300571-6.765714-16.457143-2.925715l-25.051428 17.700572 2.925714-30.537143c0.621714-7.094857-4.205714-12.544-10.605714-12.544-7.424 0-11.593143 5.485714-11.264 12.544l2.56 30.537143-25.051429-17.993143c-5.156571-3.547429-12.544-2.925714-16.091428 3.218286-3.218286 5.449143-1.28 12.507429 5.485714 15.725714l27.611429 13.165714-27.648 12.873143a11.337143 11.337143 0 0 0-5.778286 16.091429c3.218286 5.778286 11.264 6.729143 16.420571 2.889143l25.051429-17.700572-2.230857 30.537143c-0.658286 6.436571 3.510857 12.544 10.898285 12.544z m-178.066285 0c6.436571 0 10.934857-6.107429 10.276571-12.544l-2.889143-30.537143 25.417143 17.700572c5.12 3.84 12.836571 2.56 16.091429-2.925715 3.510857-5.449143 1.243429-13.165714-5.485715-16.054857l-27.648-12.836571 27.940572-13.165715a11.483429 11.483429 0 0 0 5.485714-15.762285c-3.218286-5.814857-11.264-6.765714-16.384-2.925715l-25.088 17.700572 2.925714-30.537143c0.621714-7.094857-4.205714-12.544-10.605714-12.544-7.424 0-11.593143 5.485714-11.264 12.544l2.889143 30.537143-25.417143-17.993143c-5.12-3.547429-12.507429-2.925714-16.091428 3.218286-3.181714 5.449143-1.243429 12.507429 5.485714 15.725714l27.648 13.165714-27.648 12.873143a11.337143 11.337143 0 0 0-5.778286 16.091429c3.218286 5.778286 11.264 6.729143 16.384 2.889143l25.417143-17.700572-2.56 30.537143c-0.658286 6.436571 3.510857 12.544 10.898286 12.544z m-69.741715 120.539429c6.436571 0 10.934857-5.778286 10.276572-12.544l-2.889143-30.537143 25.380571 17.700571c5.156571 3.84 12.873143 2.56 16.091429-2.925714 3.547429-5.449143 1.28-13.165714-5.485714-16.054857l-27.611429-12.873143 27.940572-13.165714a11.410286 11.410286 0 0 0 5.485714-15.725715c-3.218286-5.814857-11.264-6.765714-16.420572-2.925714l-25.051428 17.700571 2.889143-30.537142c0.658286-6.765714-4.169143-12.544-10.605715-12.544-7.387429 0-11.556571 5.778286-11.264 12.544l2.925715 30.537142-25.417143-17.700571c-5.12-3.84-12.544-3.181714-16.091429 2.925714-3.181714 5.449143-1.243429 12.507429 5.485715 15.725715l27.648 13.165714-27.648 12.873143c-6.729143 3.218286-8.996571 10.605714-5.778286 16.091428 3.218286 5.778286 11.227429 6.729143 16.384 2.889143l25.380571-17.371428-2.56 30.208c-0.621714 6.765714 3.547429 12.544 10.934857 12.544z m-178.102857 0c6.473143 0 10.971429-5.778286 10.313143-12.544l-2.56-30.537143 25.051429 17.700571c5.12 3.84 12.873143 2.56 16.091428-2.925714 3.510857-5.449143 1.28-13.165714-5.485714-16.054857l-27.648-12.873143 27.977143-13.165714a11.410286 11.410286 0 0 0 5.485714-15.725715c-2.925714-5.814857-11.264-6.765714-16.420571-2.925714l-25.051429 17.700571 2.889143-30.537142a10.861714 10.861714 0 0 0-10.605714-12.544c-7.094857 0-11.593143 5.778286-11.264 12.544l2.925714 30.537142-25.417143-17.700571c-5.12-3.84-12.544-3.181714-16.091428 2.925714-3.181714 5.449143-1.28 12.507429 5.485714 15.725715l27.648 13.165714-27.648 12.873143a11.702857 11.702857 0 0 0-5.778286 16.091428c3.218286 5.778286 11.227429 6.729143 16.384 2.889143l25.380572-17.371428-2.56 30.208c-0.658286 6.765714 3.84 12.544 10.934857 12.544z m356.205715 0c6.4 0 10.898286-5.778286 10.24-12.544l-2.889143-30.537143 25.417143 17.700571c5.12 3.84 12.836571 2.56 16.054857-2.925714 3.547429-5.449143 1.28-13.165714-5.485715-16.054857l-27.611428-12.873143 27.940571-13.165714a11.410286 11.410286 0 0 0 5.485715-15.725715c-3.218286-5.814857-11.264-6.765714-16.384-2.925714l-25.088 17.700571 2.925714-30.537142c0.621714-6.765714-4.205714-12.544-10.605714-12.544-7.424 0-11.593143 5.778286-11.264 12.544l2.56 30.537142-25.088-17.700571c-5.12-3.84-12.544-3.181714-16.091429 2.925714-3.181714 5.449143-1.243429 12.507429 5.485714 15.725715l27.648 13.165714-27.648 12.873143c-6.729143 3.218286-8.996571 10.605714-5.778285 16.091428 3.218286 5.778286 11.264 6.729143 16.384 2.889143l25.088-17.371428-2.267429 30.208c-0.621714 6.765714 3.547429 12.544 10.971429 12.544z" /></svg>