<?xml version="1.0" standalone="no"?><!DOCTYPE svg PUBLIC "-//W3C//DTD SVG 1.1//EN" "http://www.w3.org/Graphics/SVG/1.1/DTD/svg11.dtd"><svg class="icon" width="200px" height="200.00px" viewBox="0 0 1024 1024" version="1.1" xmlns="http://www.w3.org/2000/svg"><path fill="#000000" d="M822.162286 525.714286c99.657143-19.931429 159.122286-101.558857 159.122285-155.574857 0-12.873143-5.778286-22.198857-16.384-22.198858-16.384 0-40.521143 20.260571-85.504 20.260572-77.458286 0-126.317714-46.921143-126.317714-118.272 0-43.739429 21.540571-74.898286 21.540572-92.891429 0-10.276571-7.094857-17.042286-19.931429-16.713143-58.514286 2.230857-136.301714 67.803429-154.294857 155.245715 10.934857 10.276571 21.211429 23.771429 29.586286 41.472 105.728 7.387429 187.684571 87.734857 192.182857 188.672zM257.462857 697.344h357.741714c91.611429 0 162.340571-69.741714 162.340572-160.694857 0-91.611429-72.96-160.073143-171.008-160.402286-36.315429-69.449143-102.217143-114.432-186.112-114.432-107.044571 0-197.046857 82.285714-206.665143 189.952-55.954286 16.091429-91.611429 63.341714-91.611429 121.197714 0 73.910857 54.966857 124.379429 135.314286 124.379429z m257.133714 156.525714l41.472-71.972571a20.224 20.224 0 0 0-7.387428-28.928c-10.605714-6.107429-22.198857-2.56-28.598857 8.338286l-41.801143 72.338285a19.931429 19.931429 0 0 0 7.716571 28.269715 20.772571 20.772571 0 0 0 28.598857-8.045715z m-255.524571 0.365715l41.472-72.045715a20.736 20.736 0 0 0-7.387429-28.891428c-10.605714-6.144-22.528-2.56-28.928 8.045714L222.354286 833.609143a20.553143 20.553143 0 0 0 7.716571 28.598857 21.211429 21.211429 0 0 0 28.928-8.045714z m356.461714 89.965714l41.472-71.68c6.107429-10.605714 3.218286-23.149714-7.387428-29.257143-10.605714-6.107429-22.528-2.56-28.598857 8.374857l-41.801143 72.338286a19.821714 19.821714 0 0 0 7.387428 28.269714c10.605714 6.107429 23.149714 2.230857 28.928-8.045714z m-255.524571 0.329143l41.472-72.009143a20.589714 20.589714 0 0 0-7.716572-28.891429c-10.605714-6.144-22.198857-2.596571-28.635428 8.338286l-41.764572 72.301714a19.931429 19.931429 0 0 0 7.68 28.306286 21.211429 21.211429 0 0 0 28.964572-8.045714z" /></svg>