<?xml version="1.0" standalone="no"?><!DOCTYPE svg PUBLIC "-//W3C//DTD SVG 1.1//EN" "http://www.w3.org/Graphics/SVG/1.1/DTD/svg11.dtd"><svg class="icon" width="200px" height="200.00px" viewBox="0 0 1024 1024" version="1.1" xmlns="http://www.w3.org/2000/svg"><path fill="#000000" d="M295.350857 655.250286h400.822857c104.484571 0 185.161143-79.067429 185.161143-180.662857 0-103.131429-83.565714-180.626286-193.828571-179.675429-41.472-83.236571-117.028571-130.194286-208.603429-130.194286-120.210286 0-221.147429 92.598857-232.411428 213.467429-62.683429 18.285714-104.118857 71.350857-104.118858 136.594286 0 82.944 62.354286 140.470857 152.978286 140.470857z m265.508572 159.085714l41.472-71.68a20.516571 20.516571 0 0 0-7.387429-29.257143c-10.605714-6.070857-22.528-2.56-28.635429 8.411429l-41.764571 72.301714a19.931429 19.931429 0 0 0 7.68 28.269714 20.48 20.48 0 0 0 28.635429-8.045714z m-255.524572 0.365714l41.435429-72.045714a20.736 20.736 0 0 0-7.387429-28.891429c-10.605714-6.107429-22.491429-2.56-28.891428 8.338286l-41.801143 72.009143a20.48 20.48 0 0 0 7.68 28.598857 21.211429 21.211429 0 0 0 28.964571-8.045714z m356.461714 89.965715l41.472-71.68a21.028571 21.028571 0 0 0-7.424-29.257143c-10.605714-6.070857-22.491429-2.56-28.891428 8.411428l-41.472 72.301715a19.821714 19.821714 0 0 0 7.387428 28.269714c10.605714 6.107429 23.149714 2.267429 28.891429-8.045714z m-255.853714 0.365714l41.435429-71.68a20.516571 20.516571 0 0 0-7.387429-29.257143c-10.605714-6.144-22.162286-2.596571-28.598857 8.338286l-41.801143 72.301714a19.931429 19.931429 0 0 0 7.716572 28.306286 20.48 20.48 0 0 0 28.635428-8.045715z" /></svg>