<?xml version="1.0" standalone="no"?><!DOCTYPE svg PUBLIC "-//W3C//DTD SVG 1.1//EN" "http://www.w3.org/Graphics/SVG/1.1/DTD/svg11.dtd"><svg class="icon" width="200px" height="200.00px" viewBox="0 0 1024 1024" version="1.1" xmlns="http://www.w3.org/2000/svg"><path fill="#000000" d="M295.350857 655.250286h400.822857c104.484571 0 185.161143-79.067429 185.161143-180.662857 0-103.131429-83.565714-180.626286-193.828571-179.675429-41.472-83.236571-117.028571-130.194286-208.603429-130.194286-120.210286 0-221.147429 92.598857-232.411428 213.467429-62.683429 18.285714-104.118857 71.350857-104.118858 136.594286 0 82.944 62.354286 140.470857 152.978286 140.470857z m426.861714 79.067428H307.858286a21.504 21.504 0 0 0-22.125715 21.540572 21.577143 21.577143 0 0 0 22.162286 21.869714h414.317714a21.577143 21.577143 0 0 0 22.198858-21.869714 21.504 21.504 0 0 0-22.198858-21.540572z m0 108.982857H307.858286a21.577143 21.577143 0 0 0-22.125715 21.833143c0 12.214857 9.618286 21.577143 22.162286 21.577143h414.317714a21.504 21.504 0 0 0 22.198858-21.577143 21.577143 21.577143 0 0 0-22.198858-21.833143z" /></svg>