<?xml version="1.0" standalone="no"?><!DOCTYPE svg PUBLIC "-//W3C//DTD SVG 1.1//EN" "http://www.w3.org/Graphics/SVG/1.1/DTD/svg11.dtd"><svg class="icon" width="200px" height="200.00px" viewBox="0 0 1024 1024" version="1.1" xmlns="http://www.w3.org/2000/svg"><path fill="#000000" d="M165.814857 562.029714c0 43.081143 29.257143 71.68 72.667429 71.68h138.825143v139.190857c0 43.373714 28.635429 72.301714 71.68 72.301715h126.317714c42.788571 0 71.68-28.891429 71.68-72.301715v-139.190857h138.861714c43.410286 0 72.338286-28.598857 72.338286-71.68v-126.317714c0-42.752-28.928-71.68-72.338286-71.68h-138.861714V225.499429c0-43.410286-28.891429-72.338286-71.68-72.338286h-126.317714c-43.044571 0-71.68 28.928-71.68 72.338286v138.532571H238.153143c-43.410286 0-72.338286 28.928-72.338286 71.68v126.317714z" /></svg>