<?xml version="1.0" standalone="no"?><!DOCTYPE svg PUBLIC "-//W3C//DTD SVG 1.1//EN" "http://www.w3.org/Graphics/SVG/1.1/DTD/svg11.dtd"><svg class="icon" width="200px" height="200.00px" viewBox="0 0 1024 1024" version="1.1" xmlns="http://www.w3.org/2000/svg"><path fill="#000000" d="M217.892571 628.882286h589.165715l43.410285-177.115429h1.609143a81.700571 81.700571 0 0 0 81.334857-81.627428 81.408 81.408 0 0 0-81.334857-81.334858 81.627429 81.627429 0 0 0-73.947428 115.748572l-93.220572 67.145143c-9.618286 6.765714-16.384 4.498286-21.504-3.218286l-110.921143-163.913143a82.395429 82.395429 0 0 0 41.142858-71.021714 81.481143 81.481143 0 0 0-162.962286 0c0 30.208 16.713143 56.868571 41.142857 71.021714L360.96 468.48c-5.12 7.424-10.934857 9.654857-20.260571 2.925714l-94.500572-68.169143c4.498286-9.947429 7.094857-21.211429 7.094857-33.097142A81.846857 81.846857 0 0 0 171.885714 288.804571a81.700571 81.700571 0 0 0-81.627428 81.334858A81.773714 81.773714 0 0 0 171.885714 451.766857h2.267429l43.702857 177.115429z m12.214858 51.126857l10.605714 42.752c13.165714 53.028571 42.093714 80.018286 97.389714 80.018286h348.452572c55.259429 0 84.187429-26.331429 97.060571-80.018286l10.605714-42.788572H230.107429z" /></svg>