<?xml version="1.0" standalone="no"?><!DOCTYPE svg PUBLIC "-//W3C//DTD SVG 1.1//EN" "http://www.w3.org/Graphics/SVG/1.1/DTD/svg11.dtd"><svg class="icon" width="200px" height="200.00px" viewBox="0 0 1024 1024" version="1.1" xmlns="http://www.w3.org/2000/svg"><path fill="#000000" d="M512 831.707429c181.942857 0 332.361143-150.418286 332.361143-332.361143 0-181.906286-150.747429-332.361143-332.690286-332.361143-182.235429 0-332.361143 150.454857-332.361143 332.361143 0 181.942857 150.454857 332.361143 332.690286 332.361143z m-115.053714-403.053715a26.88 26.88 0 0 1 0-37.924571 26.404571 26.404571 0 0 1 38.217143 0l76.178285 76.178286L639.268571 338.651429c10.971429-10.971429 27.026286-10.276571 38.253715 0a26.697143 26.697143 0 0 1 0 38.253714L530.651429 524.068571a26.806857 26.806857 0 0 1-38.582858 0l-95.122285-95.451428z m-215.698286 254.244572v93.549714c0 42.057143 20.589714 62.317714 63.305143 62.317714h99.986286c-70.729143-34.706286-124.708571-86.454857-163.291429-155.867428z m661.211429 0c-38.619429 69.412571-92.598857 121.161143-163.328 155.904h99.986285c42.752 0 63.305143-20.260571 63.305143-62.390857v-93.513143z" /></svg>