<?xml version="1.0" standalone="no"?><!DOCTYPE svg PUBLIC "-//W3C//DTD SVG 1.1//EN" "http://www.w3.org/Graphics/SVG/1.1/DTD/svg11.dtd"><svg class="icon" width="200px" height="200.00px" viewBox="0 0 1024 1024" version="1.1" xmlns="http://www.w3.org/2000/svg"><path fill="#000000" d="M484.681143 112.676571v251.355429l3.218286 62.025143-55.954286-63.305143-17.993143-17.664a28.525714 28.525714 0 0 0-19.602286-8.045714 24.832 24.832 0 0 0-25.709714 25.709714c0 7.68 2.56 14.482286 7.716571 19.273143l113.481143 113.810286c6.729143 7.058286 14.445714 10.605714 21.833143 10.605714 7.387429 0 15.433143-3.547429 22.198857-10.605714l113.444572-113.810286a25.673143 25.673143 0 0 0 7.716571-19.273143 24.832 24.832 0 0 0-25.709714-25.709714 28.525714 28.525714 0 0 0-19.602286 8.045714l-17.993143 17.664-55.954285 63.305143 3.218285-62.025143V112.676571c0-16.384-12.836571-26.989714-27.318857-26.989714a26.550857 26.550857 0 0 0-26.989714 26.989714zM201.837714 724.662857h205.056v58.185143h-1.28c-16.091429 0-29.257143 13.165714-29.257143 29.257143 0 15.725714 13.165714 28.928 29.257143 28.928h212.48c16.054857 0 29.257143-13.165714 29.257143-28.891429 0-16.091429-13.202286-29.257143-29.257143-29.257143h-1.316571v-58.221714h204.763428c50.139429 0 80.347429-29.878857 80.347429-80.018286V257.353143c0-50.176-30.208-80.091429-80.347429-80.091429h-235.922285v61.44h232.374857c13.824 0 22.198857 8.667429 22.198857 22.162286v301.824c0 9.947429-4.205714 13.494857-13.531429 13.494857H197.046857c-9.325714 0-13.531429-3.547429-13.531428-13.531428V260.900571c0-13.531429 8.411429-22.198857 22.198857-22.198857h232.082285V177.298286H201.837714c-49.846857 0-80.054857 29.878857-80.054857 80.018285v387.328c0 50.139429 30.208 80.018286 80.054857 80.018286z" /></svg>