<?xml version="1.0" standalone="no"?><!DOCTYPE svg PUBLIC "-//W3C//DTD SVG 1.1//EN" "http://www.w3.org/Graphics/SVG/1.1/DTD/svg11.dtd"><svg class="icon" width="200px" height="200.00px" viewBox="0 0 1024 1024" version="1.1" xmlns="http://www.w3.org/2000/svg"><path fill="#000000" d="M82.907429 499.675429c0 108.324571 40.484571 207.652571 111.177142 281.892571 12.544 13.494857 30.573714 12.544 41.179429 0.621714 10.605714-11.227429 8.338286-27.940571-3.547429-40.813714-60.745143-63.634286-93.842286-148.845714-93.842285-241.737143s33.097143-178.029714 93.842285-241.700571c11.885714-12.836571 14.153143-29.549714 3.547429-41.142857-10.605714-11.556571-28.635429-12.507429-41.142857 0.987428-70.729143 73.910857-111.213714 173.568-111.213714 281.892572z m857.892571 0c0-108.324571-40.521143-207.981714-111.213714-281.892572-12.873143-13.531429-30.866286-12.544-41.472-0.987428-10.276571 11.593143-8.374857 28.306286 3.84 41.142857 60.745143 63.634286 93.878857 148.845714 93.878857 241.737143s-33.133714 178.066286-93.878857 241.737142c-12.214857 12.8-14.116571 29.549714-3.84 40.777143 10.605714 11.922286 28.598857 12.873143 41.472-0.621714 70.692571-74.24 111.177143-173.568 111.177143-281.892571z m-740.937143 0c0 77.165714 27.684571 148.845714 77.165714 202.496 12.873143 14.153143 31.524571 14.153143 42.422858 1.609142 10.971429-12.214857 8.045714-27.648-4.169143-41.142857-39.204571-44.032-60.416-100.937143-60.416-162.962285 0-62.354286 21.211429-118.930286 60.416-162.962286 12.214857-13.531429 15.104-29.257143 4.169143-41.142857-10.898286-12.873143-29.549714-12.544-42.422858 1.28-49.481143 54.016-77.165714 125.659429-77.165714 202.825143z m623.616 0c0-77.165714-27.648-148.845714-76.836571-202.825143-12.873143-13.824-31.817143-14.153143-42.752-1.28-10.605714 11.885714-8.045714 27.648 4.169143 41.142857 39.241143 44.032 60.452571 100.571429 60.452571 162.962286 0 62.025143-21.211429 118.930286-60.452571 162.962285-12.214857 13.494857-14.774857 28.891429-4.169143 41.142857 10.934857 12.544 29.878857 12.544 42.752-1.609142 49.188571-53.686857 76.8-125.366857 76.8-202.496z m-506.258286 0A188.708571 188.708571 0 0 0 357.668571 616.96c11.885714 15.104 32.182857 15.433143 43.410286 2.56 10.605714-11.885714 6.729143-26.331429-3.876571-41.142857-16.384-21.540571-25.380571-48.859429-25.380572-78.738286 0-29.915429 8.996571-57.234286 25.380572-78.774857 10.605714-15.104 14.482286-29.549714 3.876571-41.435429-11.264-12.544-31.524571-12.214857-43.410286 2.56a190.354286 190.354286 0 0 0-40.484571 117.650286z m389.229715 0a188.708571 188.708571 0 0 0-40.813715-117.650286c-11.556571-14.774857-31.817143-15.104-43.081142-2.56-10.898286 11.885714-7.058286 26.331429 3.876571 41.435428 16.384 21.577143 25.051429 48.859429 25.051429 78.774858 0 29.878857-8.667429 57.197714-25.051429 78.738285-10.934857 14.811429-14.774857 29.257143-3.876571 41.142857 11.264 12.873143 31.524571 12.544 43.081142-2.56a187.099429 187.099429 0 0 0 40.813715-117.321142z m-194.779429 78.409142c42.422857 0 78.445714-35.657143 78.445714-78.738285a79.177143 79.177143 0 0 0-78.445714-78.445715c-42.093714 0-78.409143 35.364571-78.409143 78.445715s36.315429 78.738286 78.409143 78.738285z" /></svg>