<?xml version="1.0" standalone="no"?><!DOCTYPE svg PUBLIC "-//W3C//DTD SVG 1.1//EN" "http://www.w3.org/Graphics/SVG/1.1/DTD/svg11.dtd"><svg class="icon" width="200px" height="200.00px" viewBox="0 0 1024 1024" version="1.1" xmlns="http://www.w3.org/2000/svg"><path fill="#000000" d="M159.707429 766.793143l211.821714-208.932572-171.629714-167.789714c-6.107429-5.778286-5.778286-13.165714 0.329142-17.664l274.176-208.932571c16.091429-12.214857 24.722286-17.993143 37.302858-17.993143 12.8 0 21.211429 5.449143 37.558857 17.993143l274.212571 208.932571c6.107429 4.498286 6.107429 11.885714 0 17.993143l-170.386286 167.460571 210.870858 208.274286c5.778286-9.947429 8.996571-26.989714 8.996571-50.468571v-317.549715c0-39.533714-7.058286-59.136-37.924571-83.565714l-251.026286-192.548571c-26.697143-20.589714-46.299429-31.817143-72.338286-31.817143-25.709714 0-45.312 11.227429-71.972571 31.817143L188.635429 314.514286c-30.537143 24.100571-37.924571 44.032-37.924572 83.565714v317.549714c0 23.771429 3.218286 40.850286 8.996572 51.126857z m89.051428 53.686857h518.473143c31.158857 0 53.357714-5.814857 66.194286-17.042286l-280.612572-278.052571c-14.445714-14.445714-26.697143-20.882286-40.484571-20.882286-13.824 0-26.331429 6.436571-40.521143 20.882286l-281.892571 279.332571c11.593143 10.605714 31.195429 15.725714 58.843428 15.725715z" /></svg>