<?xml version="1.0" standalone="no"?><!DOCTYPE svg PUBLIC "-//W3C//DTD SVG 1.1//EN" "http://www.w3.org/Graphics/SVG/1.1/DTD/svg11.dtd"><svg class="icon" width="200px" height="200.00px" viewBox="0 0 1024 1024" version="1.1" xmlns="http://www.w3.org/2000/svg"><path fill="#000000" d="M512.329143 533.101714c13.824 0 26.038857-6.436571 40.484571-20.882285l280.283429-278.052572c-12.544-11.227429-34.706286-16.713143-65.901714-16.713143H248.795429c-27.648 0-47.250286 5.12-58.514286 15.433143l281.6 279.332572c14.116571 14.445714 26.660571 20.882286 40.484571 20.882285z m-352.914286 194.486857l231.094857-228.864-230.765714-227.913142c-5.814857 10.313143-9.033143 27.318857-9.033143 51.456v355.145142c0 23.478857 2.925714 40.228571 8.667429 50.176z m705.206857-0.365714c5.449143-9.947429 8.338286-26.660571 8.338286-49.810286V322.267429c0-23.478857-3.218286-40.521143-8.996571-50.468572l-229.814858 226.925714 230.473143 228.534858zM256.438857 782.262857H774.948571c28.306286 0 48.237714-5.485714 59.794286-16.091428l-235.264-233.691429-19.931428 19.638857c-22.198857 21.540571-43.410286 31.817143-67.181715 31.817143-23.771429 0-45.348571-10.276571-67.510857-31.817143l-19.931428-19.602286-234.971429 233.033143c12.873143 10.934857 35.364571 16.713143 66.56 16.713143z" /></svg>