<?xml version="1.0" standalone="no"?><!DOCTYPE svg PUBLIC "-//W3C//DTD SVG 1.1//EN" "http://www.w3.org/Graphics/SVG/1.1/DTD/svg11.dtd"><svg class="icon" width="200px" height="200.00px" viewBox="0 0 1024 1024" version="1.1" xmlns="http://www.w3.org/2000/svg"><path fill="#000000" d="M743.424 755.2c100.278857 0 179.346286-73.581714 179.346286-165.522286 0-68.132571-38.875429-128.877714-102.838857-155.574857 0.329143-145.590857-104.484571-250.404571-239.177143-250.404571-85.467429 0-149.76 44.361143-189.952 102.546285C309.174857 264.411429 223.378286 325.156571 220.16 415.817143c-73.618286 13.165714-118.930286 79.396571-118.930286 159.744 0 98.048 85.467429 179.675429 197.997715 179.675428h444.196571z m-231.131429-218.550857c-18.944 0-29.549714-10.605714-30.171428-29.915429l-4.827429-133.376c-0.658286-19.602286 13.824-33.755429 34.706286-33.755428 20.589714 0 35.693714 14.482286 35.035429 34.084571l-4.827429 133.046857c-0.950857 19.638857-11.556571 29.915429-29.878857 29.915429zM512 657.188571c-21.211429 0-39.204571-15.104-39.204571-36.644571 0-21.577143 17.664-36.644571 39.204571-36.644571 21.540571 0 39.204571 15.104 39.204571 36.644571 0 21.833143-17.664 36.644571-39.204571 36.644571z" /></svg>