<?xml version="1.0" standalone="no"?><!DOCTYPE svg PUBLIC "-//W3C//DTD SVG 1.1//EN" "http://www.w3.org/Graphics/SVG/1.1/DTD/svg11.dtd"><svg class="icon" width="200px" height="200.00px" viewBox="0 0 1024 1024" version="1.1" xmlns="http://www.w3.org/2000/svg"><path fill="#000000" d="M348.379429 860.013714c13.531429 0 23.478857-6.436571 39.533714-20.918857l118.637714-107.008 210.212572 0.292572c96.731429 0 151.04-55.917714 151.04-151.405715V331.300571c0-95.451429-54.308571-151.405714-151.04-151.405714H306.944c-96.438857 0-151.076571 55.954286-151.076571 151.405714v249.746286c0 95.780571 56.246857 151.04 148.809142 151.04h12.873143v93.257143c0 21.211429 11.227429 34.706286 30.829715 34.706286z m163.949714-349.074285c-18.980571 0-29.915429-10.605714-30.537143-29.915429l-4.498286-160.365714c-0.658286-19.931429 13.494857-33.755429 34.706286-33.755429 20.589714 0 35.693714 14.116571 35.035429 34.048l-5.12 160.073143c-0.658286 19.638857-11.264 29.915429-29.622858 29.915429z m0 111.177142c-21.869714 0-39.862857-15.725714-39.862857-36.937142 0-21.211429 17.993143-36.937143 39.862857-36.937143 21.833143 0 39.497143 15.396571 39.497143 36.937143s-17.956571 36.937143-39.497143 36.937142z" /></svg>