<?xml version="1.0" standalone="no"?><!DOCTYPE svg PUBLIC "-//W3C//DTD SVG 1.1//EN" "http://www.w3.org/Graphics/SVG/1.1/DTD/svg11.dtd"><svg class="icon" width="200px" height="200.00px" viewBox="0 0 1024 1024" version="1.1" xmlns="http://www.w3.org/2000/svg"><path fill="#000000" d="M683.008 522.166857l9.947429-10.605714c17.700571-18.285714 17.993143-39.862857-0.329143-58.148572l-8.996572-8.996571c51.126857-45.019429 106.422857-49.517714 142.409143-85.833143 49.810286-50.468571 36.937143-123.099429-1.28-161.682286-37.924571-38.582857-110.592-50.797714-161.682286-1.28-36.644571 35.657143-40.813714 91.282286-85.833142 142.372572l-8.667429-8.996572c-18.322286-18.651429-40.192-17.993143-58.514286-0.329142l-10.605714 9.984c-21.540571 20.260571-18.285714 39.497143 0.987429 58.514285l12.836571 13.165715-235.264 235.264c-103.497143 103.497143-62.390857 101.595429-112.822857 171.666285l33.097143 34.706286c67.803429-50.468571 71.68-4.827429 176.128-108.617143l236.909714-235.300571 13.165714 13.165714c19.273143 18.980571 37.924571 22.162286 58.514286 0.950857zM416.548571 606.72c-10.605714-11.885714-8.374857-22.820571 3.181715-34.742857l127.305143-128.219429 31.488 31.488-128.256 128.585143c-10.605714 10.276571-23.771429 13.494857-33.718858 2.889143z" /></svg>