<?xml version="1.0" standalone="no"?><!DOCTYPE svg PUBLIC "-//W3C//DTD SVG 1.1//EN" "http://www.w3.org/Graphics/SVG/1.1/DTD/svg11.dtd"><svg class="icon" width="200px" height="200.00px" viewBox="0 0 1024 1024" version="1.1" xmlns="http://www.w3.org/2000/svg"><path fill="#000000" d="M511.670857 831.707429c182.272 0 332.690286-150.418286 332.690286-332.361143 0-181.906286-150.747429-332.361143-333.019429-332.361143-181.906286 0-332.032 150.454857-332.032 332.361143 0 181.942857 150.454857 332.361143 332.361143 332.361143z m-97.060571-363.849143c-19.931429 0-36.315429-17.664-36.315429-42.093715 0-25.088 16.384-42.422857 36.315429-42.422857 19.602286 0 36.315429 17.334857 36.315428 42.422857 0 24.429714-16.713143 42.093714-36.315428 42.093715z m195.437714 0c-19.931429 0-36.022857-17.664-36.022857-42.093715 0-25.088 16.091429-42.422857 36.022857-42.422857 19.602286 0 36.644571 17.334857 36.644571 42.422857 0 24.429714-17.042286 42.093714-36.644571 42.093715z m-216.32 125.988571c0-8.045714 8.045714-11.885714 15.725714-8.338286 24.429714 12.836571 53.028571 27.648 101.888 27.648 49.188571 0 77.787429-15.104 102.217143-27.648 7.424-3.547429 15.762286 0.329143 15.762286 8.338286 0 22.528-47.250286 69.449143-117.979429 69.449143-70.363429 0-117.613714-46.957714-117.613714-69.449143z" /></svg>