<?xml version="1.0" standalone="no"?><!DOCTYPE svg PUBLIC "-//W3C//DTD SVG 1.1//EN" "http://www.w3.org/Graphics/SVG/1.1/DTD/svg11.dtd"><svg class="icon" width="200px" height="200.00px" viewBox="0 0 1024 1024" version="1.1" xmlns="http://www.w3.org/2000/svg"><path fill="#000000" d="M10.24 463.689143c0 105.728 77.458286 179.675429 193.170286 180.955428h1.316571C254.537143 711.204571 367.689143 752.64 512 752.64c144.310857 0 257.462857-41.472 307.602286-107.995429h0.950857c115.748571-1.28 193.206857-75.227429 193.206857-180.955428 0-70.4-40.813714-113.810286-109.604571-113.810286h-70.070858C797.44 282.697143 685.238857 245.430857 512 245.430857c-172.946286 0-285.110857 37.302857-322.084571 104.448H119.844571C51.090286 349.878857 10.24 393.289143 10.24 463.725714z m323.657143-35.693714c0-15.725714 13.202286-29.257143 29.257143-29.257143h298.313143c16.091429 0 29.257143 13.531429 29.257142 29.257143 0 16.091429-13.165714 29.257143-29.257142 29.257142H363.154286c-16.091429 0-29.257143-13.165714-29.257143-29.257142z m513.353143 135.314285v-154.258285h56.905143c32.146286 0 50.102857 20.845714 50.102857 54.637714 0 63.963429-43.044571 111.542857-108.617143 120.210286 0.950857-6.765714 1.609143-13.824 1.609143-20.589715zM69.741714 463.725714c0-33.755429 17.956571-54.637714 50.102857-54.637714h56.905143v154.258286c0 6.765714 0.658286 13.824 1.609143 20.589714-65.572571-8.667429-108.617143-56.246857-108.617143-120.210286z m264.192 92.891429c0-16.091429 13.165714-29.257143 29.257143-29.257143h298.276572c16.091429 0 29.257143 13.165714 29.257142 29.257143 0 16.091429-13.165714 29.257143-29.257142 28.891428H363.154286a28.891429 28.891429 0 0 1-29.257143-28.891428z" /></svg>