<?xml version="1.0" standalone="no"?><!DOCTYPE svg PUBLIC "-//W3C//DTD SVG 1.1//EN" "http://www.w3.org/Graphics/SVG/1.1/DTD/svg11.dtd"><svg class="icon" width="200px" height="200.00px" viewBox="0 0 1024 1024" version="1.1" xmlns="http://www.w3.org/2000/svg"><path fill="#000000" d="M512 338.651429c29.257143 0 47.908571 6.436571 78.738286 20.553142l172.288 79.067429-27.648-202.825143c-5.12-39.204571-27.940571-63.963429-66.523429-63.963428h-19.931428v-19.894858c0-32.804571-18.651429-50.834286-51.419429-50.834285h-171.008c-32.768 0-51.419429 18.029714-51.419429 50.834285v19.894858H355.108571c-38.253714 0-60.123429 24.758857-66.194285 69.449142l-27.648 197.046858 171.958857-78.774858C464.091429 345.088 482.742857 338.651429 512 338.651429z m-140.434286-34.377143c-8.411429 0-13.860571-5.814857-13.860571-14.153143V240.603429c0-8.338286 5.485714-14.153143 13.824-14.153143h96.438857c10.276571 0 17.042286 5.814857 17.042286 14.153143v49.517714c0 8.338286-6.765714 14.116571-17.042286 14.116571h-96.438857z m181.248 0c-8.338286 0-13.824-5.814857-13.824-14.153143V240.603429c0-8.338286 5.485714-14.153143 13.824-14.153143h96.438857c10.276571 0 17.042286 5.814857 17.042286 14.153143v49.517714c0 8.338286-6.765714 14.116571-17.042286 14.116571h-96.438857zM512 812.726857c13.165714 0 19.931429-4.205714 43.410286-21.869714 25.380571-18.651429 61.696-44.032 110.226285-44.032 30.866286 0 56.246857 8.667429 85.504 26.697143l90.331429-155.904c28.598857-48.530286 16.384-86.491429-32.182857-108.982857l-237.202286-108.617143c-13.494857-6.144-33.097143-16.420571-60.086857-16.420572-27.318857 0-46.592 10.276571-60.123429 16.384L214.674286 508.708571c-48.530286 22.491429-60.745143 60.416-32.146286 108.982858l90.331429 155.867428c29.257143-17.993143 54.637714-26.697143 85.504-26.697143 48.201143 0 84.845714 25.417143 109.933714 44.068572 23.771429 17.664 30.537143 21.869714 43.702857 21.869714z m0 91.904c90.331429 0 103.826286-65.572571 153.636571-65.572571 50.797714 0 58.843429 65.572571 161.682286 65.572571h1.938286a25.965714 25.965714 0 0 0 26.038857-26.331428 25.929143 25.929143 0 0 0-26.038857-26.038858h-1.938286c-32.475429 0-51.419429-13.165714-76.507428-31.195428-21.211429-15.433143-48.201143-34.742857-85.174858-34.742857-37.924571 0-65.572571 20.297143-86.454857 36.022857-22.491429 17.042286-39.533714 29.915429-67.181714 29.915428-27.977143 0-44.982857-12.873143-67.181714-29.915428-21.211429-15.725714-48.530286-35.986286-86.454857-35.986286-36.937143 0-64.292571 19.273143-85.211429 34.742857-25.051429 17.956571-44.324571 31.158857-76.470857 31.158857h-1.938286a26.185143 26.185143 0 1 0 0 52.370286h1.938286c102.546286 0 110.884571-65.572571 161.645714-65.572571 49.846857 0 63.012571 65.572571 153.673143 65.572571z" /></svg>