<?xml version="1.0" standalone="no"?><!DOCTYPE svg PUBLIC "-//W3C//DTD SVG 1.1//EN" "http://www.w3.org/Graphics/SVG/1.1/DTD/svg11.dtd"><svg class="icon" width="200px" height="200.00px" viewBox="0 0 1024 1024" version="1.1" xmlns="http://www.w3.org/2000/svg"><path fill="#000000" d="M510.72 243.2c42.752 0 77.458286-35.364571 77.458286-76.507429 0-43.081143-34.742857-77.787429-77.458286-77.787428-42.788571 0-76.507429 34.706286-76.507429 77.787428 0 41.142857 33.755429 76.470857 76.507429 76.470858z m109.604571 612.315429c18.285714 0 34.742857-13.531429 34.742858-36.022858 0-8.338286-2.267429-16.091429-6.765715-25.051428l-68.790857-139.52a232.265143 232.265143 0 0 0-19.602286-32.768l-42.130285-59.794286 2.56-8.045714c11.593143-36.937143 16.091429-59.465143 18.651428-94.793143l7.094857-99.328c3.510857-48.859429-24.758857-88.722286-75.885714-88.722286-37.302857 0-64.256 20.260571-98.998857 53.979429L318.537143 377.856c-17.993143 17.664-23.771429 32.146286-25.380572 54.637714L286.354286 514.194286c-1.609143 22.162286 10.934857 36.644571 30.866285 37.924571 18.944 1.28 33.097143-9.984 35.364572-33.755428l7.387428-89.380572 31.158858-27.611428c5.814857-5.156571 14.153143-2.267429 13.531428 6.4l-5.814857 80.384c-2.889143 38.875429 14.153143 67.181714 33.426286 91.282285l68.790857 86.454857c6.765714 8.374857 7.716571 11.556571 10.934857 17.664l73.289143 148.845715c8.667429 17.334857 21.540571 23.149714 35.035428 23.149714z m15.104-379.611429h77.787429c22.491429 0 36.644571-13.165714 36.644571-33.133714 0-19.894857-14.482286-33.097143-36.937142-33.097143H631.588571l-56.576-61.403429-6.107428 88.393143 24.100571 24.137143c11.556571 11.556571 22.491429 15.104 42.422857 15.104z m-326.875428 379.611429c11.227429 0 21.211429-5.156571 28.269714-13.531429l103.497143-123.099429c10.605714-12.836571 11.885714-16.091429 16.384-28.598857 2.56-8.374857 4.827429-16.384 6.765714-24.137143l-59.136-73.874285-17.371428 80.64-98.011429 116.370285c-9.033143 10.276571-15.140571 19.273143-15.140571 32.146286 0 19.931429 15.104 34.084571 34.742857 34.084572z" /></svg>