<?xml version="1.0" standalone="no"?><!DOCTYPE svg PUBLIC "-//W3C//DTD SVG 1.1//EN" "http://www.w3.org/Graphics/SVG/1.1/DTD/svg11.dtd"><svg class="icon" width="200px" height="200.00px" viewBox="0 0 1024 1024" version="1.1" xmlns="http://www.w3.org/2000/svg"><path fill="#000000" d="M496.274286 822.381714c172.909714 0 288.621714-116.662857 288.621714-292.169143 0-290.56-248.466286-412.086857-420.096-412.086857-32.804571 0-54.345143 12.214857-54.345143 35.693715 0 8.996571 4.205714 18.651429 11.264 26.989714 39.497143 47.579429 76.507429 99.657143 76.8 161.353143 0 6.436571-0.292571 12.214857-1.572571 18.651428-18.980571-39.497143-50.468571-62.683429-79.104-62.683428-15.104 0-25.380571 10.605714-25.380572 27.318857 0 9.654857 2.267429 27.648 2.267429 43.410286 0 73.618286-55.954286 111.872-55.954286 230.144 0 134.034286 102.546286 223.378286 257.462857 223.378285z m7.68-98.998857c-59.757714 0-99.291429-35.657143-99.291429-89.344 0-55.954286 39.204571-74.605714 44.324572-113.152 0.658286-3.84 3.547429-5.485714 7.094857-2.56 14.116571 12.836571 23.442286 28.891429 31.158857 48.201143 16.384-24.722286 22.820571-71.350857 17.042286-121.490286-0.658286-4.169143 2.56-6.436571 6.436571-4.827428a183.369143 183.369143 0 0 1 106.715429 164.900571c0 64.292571-38.582857 118.272-113.481143 118.272z" /></svg>