<?xml version="1.0" standalone="no"?><!DOCTYPE svg PUBLIC "-//W3C//DTD SVG 1.1//EN" "http://www.w3.org/Graphics/SVG/1.1/DTD/svg11.dtd"><svg class="icon" width="200px" height="189.45px" viewBox="0 0 1081 1024" version="1.1" xmlns="http://www.w3.org/2000/svg"><path fill="#000000" d="M51.968 757.138286c14.153143 0 26.368-4.169143 40.228571-12.214857l329.435429-193.462858c18.980571-11.300571 30.866286-24.466286 34.742857-40.228571v185.490286c0 38.875429 23.771429 60.416 52.041143 60.416 14.153143 0 26.331429-4.169143 40.192-12.214857l329.435429-193.462858c19.309714-11.300571 30.866286-24.466286 35.035428-40.228571v209.261714c0 30.537143 15.433143 46.299429 46.299429 46.299429h75.556571c30.500571 0 46.262857-15.725714 46.262857-46.299429V278.198857c0-31.158857-15.725714-46.262857-46.262857-46.262857h-75.556571c-30.537143 0-46.299429 15.725714-46.299429 46.262857v206.994286c-4.169143-15.725714-15.725714-28.269714-34.998857-39.862857l-329.508571-193.462857c-13.787429-8.045714-26.002286-12.214857-40.155429-12.214858-28.269714 0-52.077714 21.211429-52.077714 60.416v185.161143c-3.84-15.762286-15.433143-28.306286-34.706286-39.862857L92.16 251.867429c-14.116571-8.045714-26.038857-12.214857-40.484571-12.214858-28.306286 0-51.748571 21.211429-51.748572 60.416v396.653715c0 38.875429 23.771429 60.416 52.077714 60.416z" /></svg>