<?xml version="1.0" standalone="no"?><!DOCTYPE svg PUBLIC "-//W3C//DTD SVG 1.1//EN" "http://www.w3.org/Graphics/SVG/1.1/DTD/svg11.dtd"><svg class="icon" width="200px" height="200.00px" viewBox="0 0 1024 1024" version="1.1" xmlns="http://www.w3.org/2000/svg"><path fill="#000000" d="M197.632 451.145143c0 35.693714 20.589714 52.077714 56.246857 52.077714h227.254857V321.938286h-48.201143c-49.188571 0-77.458286-29.915429-77.458285-64.950857 0-34.048 23.771429-54.966857 58.514285-54.966858 36.937143 0 67.145143 29.586286 67.145143 74.898286v44.982857h61.403429v181.321143h227.254857c35.986286 0 56.246857-16.384 56.246857-52.077714v-71.350857c0-39.862857-22.198857-57.856-62.354286-57.856h-63.012571a96.914286 96.914286 0 0 0 29.915429-71.058286c0-64.256-51.126857-109.933714-115.090286-109.933714-47.542857 0-87.771429 26.697143-103.497143 74.24-15.725714-47.542857-56.246857-74.24-103.826286-74.24-63.963429 0-115.053714 45.677714-115.053714 109.933714 0 28.635429 11.227429 53.028571 29.878857 71.058286H259.986286c-38.546286 0-62.354286 17.993143-62.354286 57.856v71.314285z m412.086857-249.124572c34.742857 0 58.514286 20.918857 58.514286 54.966858 0 35.035429-28.306286 64.950857-77.494857 64.950857h-48.201143v-44.982857c0-45.348571 30.208-74.934857 67.181714-74.934858zM241.993143 739.766857c0 54.674286 32.475429 84.553143 87.405714 84.553143h151.771429v-281.892571h-239.177143v197.339428z m300.544 84.553143h151.698286c54.966857 0 87.442286-29.878857 87.442285-84.516571v-197.376h-239.140571v281.892571z" /></svg>