<?xml version="1.0" standalone="no"?><!DOCTYPE svg PUBLIC "-//W3C//DTD SVG 1.1//EN" "http://www.w3.org/Graphics/SVG/1.1/DTD/svg11.dtd"><svg class="icon" width="200px" height="200.00px" viewBox="0 0 1024 1024" version="1.1" xmlns="http://www.w3.org/2000/svg"><path fill="#000000" d="M512 831.378286c181.613714 0 332.068571-150.089143 332.068571-332.032 0-181.613714-150.454857-332.032-332.397714-332.032-181.613714 0-331.702857 150.418286-331.702857 332.068571 0 181.906286 150.418286 331.995429 332.032 331.995429z m-220.16-453.851429c0 70.070857 48.201143 109.933714 134.656 109.933714 10.605714 0 16.713143 8.996571 10.276571 18.980572-15.104 23.771429-19.931429 36.937143-19.931428 54.308571 0 43.702857 37.302857 65.572571 64.292571 76.178286l-11.885714 50.139429c-10.605714 44.982857 38.253714 66.56 71.350857 31.195428l77.787429-83.894857c25.709714-27.977143 36.644571-49.188571 36.644571-72.338286 0-17.042286-19.602286-51.419429-39.497143-69.741714-19.017143-17.993143-37.668571-20.882286-69.778285-20.882286h-16.713143l-17.371429-33.755428 47.908572-17.993143c27.648 17.664 41.142857 27.611429 56.576 27.611428 29.878857 0 41.764571-32.768 19.931428-56.246857l-50.176-53.028571c-6.107429-6.107429-5.778286-11.227429-0.621714-17.664 14.153143-15.433143 33.097143-37.632 33.097143-62.683429 0-6.765714-1.28-12.873143-4.827429-19.273143 104.155429 41.435429 179.053714 143.36 179.053714 260.973715 0 153.344-127.268571 280.612571-280.612571 280.612571-153.307429 0-280.612571-127.268571-280.612571-280.612571 0-69.412571 26.038857-133.705143 69.12-183.222857a230.253714 230.253714 0 0 0-8.704 61.44z" /></svg>