<?xml version="1.0" standalone="no"?><!DOCTYPE svg PUBLIC "-//W3C//DTD SVG 1.1//EN" "http://www.w3.org/Graphics/SVG/1.1/DTD/svg11.dtd"><svg class="icon" width="200px" height="200.00px" viewBox="0 0 1024 1024" version="1.1" xmlns="http://www.w3.org/2000/svg"><path fill="#000000" d="M642.194286 789.942857c135.643429-49.188571 181.906286-162.340571 129.206857-306.980571l-21.869714-60.086857c-19.931429-54.674286-59.136-80.054857-90.331429-68.790858-7.68 2.889143-10.24 8.996571-7.68 16.091429l9.618286 26.002286c4.169143 11.556571 0.658286 19.273143-6.107429 21.869714-7.387429 2.56-15.104-0.987429-19.273143-12.544l-6.436571-17.042286c-11.885714-32.768-40.813714-46.921143-69.741714-36.315428-13.531429 4.827429-17.700571 13.165714-13.531429 24.758857l12.873143 35.657143c4.205714 11.593143 0.987429 18.980571-5.778286 21.577143-7.387429 2.56-15.104-0.658286-19.273143-12.580572l-12.214857-32.768c-13.165714-36.315429-40.813714-46.921143-69.449143-36.644571-12.836571 4.827429-17.664 13.531429-13.494857 24.758857l25.380572 70.070857c4.205714 11.556571 0.658286 19.273143-5.778286 21.540571-7.387429 2.889143-15.104-0.658286-19.273143-12.214857L354.816 224.877714c-8.667429-23.771429-30.208-33.755429-50.797714-26.368-21.833143 8.045714-31.158857 29.257143-22.491429 53.028572l122.148572 335.579428c2.925714 7.68-0.329143 13.494857-5.12 15.433143-4.534857 1.609143-9.654857 0-15.433143-6.107428L301.129143 508.342857c-12.836571-13.787429-26.989714-18.651429-43.044572-12.836571-22.528 8.374857-31.817143 29.257143-24.758857 48.859428 2.889143 7.058286 6.436571 12.836571 10.276572 17.664l106.422857 132.425143c88.685714 109.933714 190.573714 132.425143 292.169143 95.451429z" /></svg>