<?xml version="1.0" standalone="no"?><!DOCTYPE svg PUBLIC "-//W3C//DTD SVG 1.1//EN" "http://www.w3.org/Graphics/SVG/1.1/DTD/svg11.dtd"><svg class="icon" width="200px" height="200.00px" viewBox="0 0 1024 1024" version="1.1" xmlns="http://www.w3.org/2000/svg"><path fill="#000000" d="M511.670857 832.365714c182.272 0 332.690286-150.454857 332.690286-332.690285 0-181.942857-150.747429-332.361143-333.019429-332.361143-181.906286 0-332.032 150.418286-332.032 332.361143 0 182.235429 150.454857 332.690286 332.361143 332.690285z m-118.601143-210.212571c-48.201143 0-84.224-30.208-84.224-83.565714a84.845714 84.845714 0 0 1 53.394286-80.054858 67.364571 67.364571 0 0 1 64.256-57.856c5.12-0.658286 11.264-0.658286 17.042286 0.329143A120.868571 120.868571 0 0 1 541.257143 352.146286a121.526857 121.526857 0 0 1 122.148571 118.272c0.292571 3.876571 0.292571 8.045714 0.292572 12.544 28.928 7.716571 51.126857 34.377143 51.126857 68.132571a70.180571 70.180571 0 0 1-70.729143 71.058286h-251.026286z" /></svg>