<?xml version="1.0" standalone="no"?><!DOCTYPE svg PUBLIC "-//W3C//DTD SVG 1.1//EN" "http://www.w3.org/Graphics/SVG/1.1/DTD/svg11.dtd"><svg class="icon" width="200px" height="200.00px" viewBox="0 0 1024 1024" version="1.1" xmlns="http://www.w3.org/2000/svg"><path fill="#000000" d="M788.736 748.470857c78.774857-17.993143 134.034286-81.664 134.034286-158.464 0-68.461714-38.875429-129.206857-102.838857-155.904 0.329143-145.298286-104.484571-250.075429-239.177143-250.075428-85.467429 0-149.76 44.032-189.952 102.546285a120.027429 120.027429 0 0 0-63.926857 0l461.897142 461.897143z m-44.982857 84.516572c10.276571 9.984 26.331429 9.984 36.315428 0a26.112 26.112 0 0 0 0-36.315429L238.445714 255.414857a26.185143 26.185143 0 0 0-36.608 0 26.331429 26.331429 0 0 0 0 35.986286l541.915429 541.622857zM299.227429 755.565714h310.162285L228.498286 375.625143a124.342857 124.342857 0 0 0-8.338286 40.484571c-73.618286 13.165714-118.930286 79.067429-118.930286 159.744 0 97.718857 85.467429 179.675429 197.997715 179.675429z" /></svg>