<?xml version="1.0" standalone="no"?><!DOCTYPE svg PUBLIC "-//W3C//DTD SVG 1.1//EN" "http://www.w3.org/Graphics/SVG/1.1/DTD/svg11.dtd"><svg class="icon" width="200px" height="200.00px" viewBox="0 0 1024 1024" version="1.1" xmlns="http://www.w3.org/2000/svg"><path fill="#000000" d="M511.670857 831.707429c182.272 0 332.690286-150.418286 332.690286-332.361143 0-181.906286-150.747429-332.361143-333.019429-332.361143-181.906286 0-332.032 150.454857-332.032 332.361143 0 181.942857 150.454857 332.361143 332.361143 332.361143z m0-66.194286a264.886857 264.886857 0 0 1-265.508571-266.166857 264.557714 264.557714 0 0 1 265.179428-265.801143 265.654857 265.654857 0 0 1 266.496 265.801143 265.252571 265.252571 0 0 1-266.166857 266.166857z m-114.102857-148.845714h241.737143a67.584 67.584 0 0 0 67.803428-68.461715c0-32.146286-21.540571-57.856-49.188571-65.572571 0-3.84 0-7.68-0.329143-11.556572a116.516571 116.516571 0 0 0-117.613714-113.773714 116.736 116.736 0 0 0-93.878857 46.921143 71.497143 71.497143 0 0 0-16.384-0.658286 65.462857 65.462857 0 0 0-61.732572 55.954286 81.92 81.92 0 0 0-51.419428 76.8c0 51.419429 35.035429 80.347429 81.005714 80.347429z" /></svg>