<?xml version="1.0" standalone="no"?><!DOCTYPE svg PUBLIC "-//W3C//DTD SVG 1.1//EN" "http://www.w3.org/Graphics/SVG/1.1/DTD/svg11.dtd"><svg class="icon" width="200px" height="200.00px" viewBox="0 0 1024 1024" version="1.1" xmlns="http://www.w3.org/2000/svg"><path fill="#000000" d="M279.296 702.171429h194.121143v-196.717715c0-20.882286 17.700571-37.924571 38.582857-37.924571s38.253714 17.042286 38.253714 37.924571v196.754286h212.772572c95.158857 0 159.744-58.514286 159.744-138.898286 0-66.523429-38.875429-125.037714-102.838857-151.04 0.329143-145.298286-104.484571-250.075429-239.177143-250.075428-85.467429 0-149.76 44.032-189.952 102.180571-76.8-18.944-167.460571 39.241143-170.642286 129.865143-73.618286 12.873143-118.930286 77.787429-118.930286 153.965714 0 85.211429 71.021714 153.965714 178.066286 153.965715zM512 898.925714c7.68 0 15.104-2.596571 22.820571-10.313143l107.995429-104.155428a25.344 25.344 0 0 0 8.374857-18.944c0-15.104-12.214857-26.038857-27.026286-26.038857a26.88 26.88 0 0 0-19.894857 8.996571l-44.690285 47.542857-20.918858 23.808 3.218286-47.542857v-74.276571a30.061714 30.061714 0 1 0-60.123428 0v74.24l3.254857 47.579428-20.589715-23.771428-44.982857-47.579429a27.574857 27.574857 0 0 0-20.260571-8.996571c-14.774857 0-26.697143 10.934857-26.697143 26.038857 0 7.68 3.218286 13.494857 8.704 18.944l107.995429 104.155428c7.68 7.68 14.774857 10.276571 22.820571 10.276572z" /></svg>