<?xml version="1.0" standalone="no"?><!DOCTYPE svg PUBLIC "-//W3C//DTD SVG 1.1//EN" "http://www.w3.org/Graphics/SVG/1.1/DTD/svg11.dtd"><svg class="icon" width="200px" height="200.00px" viewBox="0 0 1024 1024" version="1.1" xmlns="http://www.w3.org/2000/svg"><path fill="#000000" d="M279.296 702.171429h201.874286v-178.688l2.194285-45.970286-18.614857 22.491428-44.690285 47.908572a28.416 28.416 0 0 1-20.882286 8.96c-15.104 0-27.318857-11.227429-27.318857-26.660572 0-8.045714 3.218286-14.153143 8.667428-19.602285l107.995429-104.155429c8.045714-7.68 15.104-10.276571 23.478857-10.276571 8.045714 0 15.433143 2.56 23.149714 10.276571l107.995429 104.155429c5.778286 5.485714 8.667429 11.556571 8.667428 19.602285 0 15.433143-12.214857 26.697143-27.648 26.697143a28.781714 28.781714 0 0 1-20.553142-9.033143l-44.690286-47.908571-18.651429-22.454857 2.56 45.933714V702.171429h220.196572c95.158857 0 159.744-58.514286 159.744-138.861715 0-66.523429-38.875429-125.037714-102.838857-151.04 0.329143-145.298286-104.484571-250.075429-239.177143-250.075428-85.467429 0-149.76 44.032-189.952 102.180571-76.8-18.944-167.460571 39.241143-170.642286 129.865143-73.618286 12.873143-118.930286 77.787429-118.930286 153.965714 0 85.211429 71.021714 153.965714 178.066286 153.965715zM512 867.730286a30.208 30.208 0 0 0 29.878857-29.586286v-149.467429a30.244571 30.244571 0 0 1-29.878857 28.598858 30.354286 30.354286 0 0 1-30.208-28.598858v149.467429c0 15.725714 13.494857 29.586286 30.208 29.586286z" /></svg>