<?xml version="1.0" standalone="no"?><!DOCTYPE svg PUBLIC "-//W3C//DTD SVG 1.1//EN" "http://www.w3.org/Graphics/SVG/1.1/DTD/svg11.dtd"><svg class="icon" width="200px" height="200.00px" viewBox="0 0 1024 1024" version="1.1" xmlns="http://www.w3.org/2000/svg"><path fill="#000000" d="M743.424 755.2c100.278857 0 179.346286-73.581714 179.346286-165.522286 0-68.132571-38.875429-128.877714-102.838857-155.574857 0.329143-145.590857-104.484571-250.404571-239.177143-250.404571-85.467429 0-149.76 44.361143-189.952 102.546285C309.174857 264.411429 223.378286 325.156571 220.16 415.817143c-73.618286 13.165714-118.930286 79.396571-118.930286 159.744 0 98.048 85.467429 179.675429 197.997715 179.675428h444.196571zM331.702857 507.392a98.157714 98.157714 0 0 1 98.048-98.669714c40.813714 0 76.8 24.100571 91.611429 61.696h146.578285c4.169143 0 7.68 1.28 11.556572 4.827428l25.088 25.709715a10.020571 10.020571 0 0 1-0.365714 13.824l-47.213715 47.250285c-4.169143 4.498286-10.276571 4.169143-14.482285 0l-27.648-27.648-38.217143 38.912c-3.876571 4.169143-9.984 3.84-14.482286-0.658285l-37.924571-37.302858c-18.980571 45.019429-53.357714 70.436571-94.500572 70.436572a98.304 98.304 0 0 1-98.011428-98.377143z m107.702857-0.329143a29.549714 29.549714 0 0 0-29.915428-29.549714 29.549714 29.549714 0 0 0-29.878857 29.549714c0 16.384 13.494857 29.915429 29.878857 29.915429 16.713143 0 29.915429-13.531429 29.915428-29.915429z" /></svg>