<?xml version="1.0" standalone="no"?><!DOCTYPE svg PUBLIC "-//W3C//DTD SVG 1.1//EN" "http://www.w3.org/Graphics/SVG/1.1/DTD/svg11.dtd"><svg class="icon" width="200px" height="200.00px" viewBox="0 0 1024 1024" version="1.1" xmlns="http://www.w3.org/2000/svg"><path fill="#000000" d="M788.114286 291.401143c69.12 0 104.448 35.035429 104.448 103.168v79.725714h-138.532572v-7.094857c-1.28-22.491429-15.104-35.328-38.546285-35.328H636.708571c-23.442286 0-37.302857 12.836571-38.582857 35.328v7.094857h-172.909714v-7.094857c-0.950857-22.491429-15.104-35.328-38.582857-35.328H308.224c-23.478857 0-37.632 12.836571-38.582857 35.328v7.094857H131.108571v-79.725714c0-68.132571 35.693714-103.168 104.448-103.168h81.334858v-34.084572c0-50.797714 32.804571-81.005714 87.771428-81.005714h214.381714c54.966857 0 87.771429 30.208 87.771429 81.005714v34.084572h81.298286z m-405.650286-30.866286v30.866286h259.072v-30.866286c0-15.104-10.276571-24.758857-26.697143-24.758857H408.868571c-16.420571 0-26.368 9.654857-26.368 24.758857z m-146.907429 552.228572c-68.754286 0-104.448-34.742857-104.448-103.204572V529.92h138.532572v7.094857c0.950857 22.491429 15.104 35.328 38.582857 35.328h78.409143c23.478857 0 37.632-12.836571 38.582857-35.328v-7.094857h172.909714v7.094857c1.316571 22.491429 15.140571 35.328 38.582857 35.328h78.774858c23.442286 0 37.266286-12.836571 38.546285-35.328v-7.094857h138.532572v179.675429c0 68.461714-35.328 103.204571-104.448 103.204571H235.52z" /></svg>