<?xml version="1.0" standalone="no"?><!DOCTYPE svg PUBLIC "-//W3C//DTD SVG 1.1//EN" "http://www.w3.org/Graphics/SVG/1.1/DTD/svg11.dtd"><svg class="icon" width="200px" height="200.00px" viewBox="0 0 1024 1024" version="1.1" xmlns="http://www.w3.org/2000/svg"><path fill="#000000" d="M169.325714 230.656c-7.021714 32.768-9.618286 76.178286-9.618285 105.106286 0 243.309714 145.298286 404.041143 367.067428 404.041143 108.982857 0 173.568-48.566857 205.714286-84.224 26.368 37.302857 41.142857 77.165714 57.856 129.828571 4.827429 15.762286 16.091429 22.198857 28.635428 22.198857 24.722286 0 44.982857-21.540571 44.982858-51.090286 0-44.690286-64.914286-123.136-98.669715-154.624-143.030857-132.425143-360.338286-53.028571-414.646857-197.046857-3.876571-10.24 6.729143-18.651429 16.384-8.996571 111.542857 114.761143 257.133714 18.980571 395.702857 145.92 12.178286 11.264 27.282286 5.485714 29.549715-7.68 1.609143-9.033143 2.56-23.771429 2.56-38.582857 0-157.513143-109.275429-236.580571-267.081143-236.580572-52.077714 0-113.152 13.165714-160.731429 13.165715-51.090286 0-108.982857-3.84-155.574857-53.028572-14.774857-15.433143-36.644571-12.214857-42.093714 11.593143z" /></svg>