<?xml version="1.0" standalone="no"?><!DOCTYPE svg PUBLIC "-//W3C//DTD SVG 1.1//EN" "http://www.w3.org/Graphics/SVG/1.1/DTD/svg11.dtd"><svg class="icon" width="200px" height="200.00px" viewBox="0 0 1024 1024" version="1.1" xmlns="http://www.w3.org/2000/svg"><path fill="#000000" d="M743.424 755.2c100.278857 0 179.346286-73.581714 179.346286-165.522286 0-68.132571-38.875429-128.877714-102.838857-155.574857 0.329143-145.590857-104.484571-250.404571-239.177143-250.404571-85.467429 0-149.76 44.361143-189.952 102.546285C309.174857 264.411429 223.378286 325.156571 220.16 415.817143c-73.618286 13.165714-118.930286 79.396571-118.930286 159.744 0 98.048 85.467429 179.675429 197.997715 179.675428h444.196571zM500.114286 548.571429a86.857143 86.857143 0 0 1-30.208-19.273143c-36.644571-35.035429-36.352-86.784-0.365715-122.477715l65.28-65.572571c35.693714-35.693714 86.784-35.364571 122.770286 0.658286 35.364571 35.328 35.693714 86.454857 0 122.148571L605.257143 516.388571c7.058286-18.944 6.436571-36.937143 1.28-52.077714l24.429714-24.100571c21.540571-20.882286 21.540571-50.797714 0-72.301715-21.211429-20.918857-50.797714-21.577143-72.338286 0.292572l-62.354285 62.354286c-21.833143 21.577143-22.162286 51.748571-0.329143 72.338285 10.313143 9.325714 21.211429 14.482286 32.804571 14.482286-3.218286 4.498286-4.498286 6.4-9.654857 12.507429l-18.944 18.651428z m-119.588572 69.741714c-35.986286-35.657143-35.986286-86.784 0-122.770286l52.077715-51.748571a74.825143 74.825143 0 0 0-1.28 51.419428l-24.429715 24.429715c-21.211429 21.540571-21.540571 51.090286 0 72.338285 21.540571 21.211429 50.797714 21.504 72.338286 0l62.646857-62.683428c21.577143-21.577143 21.869714-51.748571 0-72.045715-10.605714-10.24-21.833143-15.067429-34.377143-13.458285a245.76 245.76 0 0 1 11.264-13.531429l18.944-18.651428c8.996571 2.596571 20.260571 9.033143 30.866286 19.017142 36.315429 34.998857 35.693714 87.076571 0 122.770286l-65.243429 64.914286c-36.315429 36.022857-87.113143 36.022857-122.806857 0z" /></svg>