<?xml version="1.0" standalone="no"?><!DOCTYPE svg PUBLIC "-//W3C//DTD SVG 1.1//EN" "http://www.w3.org/Graphics/SVG/1.1/DTD/svg11.dtd"><svg class="icon" width="200px" height="200.00px" viewBox="0 0 1024 1024" version="1.1" xmlns="http://www.w3.org/2000/svg"><path fill="#000000" d="M290.523429 831.378286c18.322286 0 31.195429-8.045714 50.797714-27.318857l165.851428-164.571429c1.609143-1.609143 3.218286-2.889143 4.827429-2.889143 1.28 0 2.925714 1.28 4.498286 2.925714l165.851428 164.571429c19.602286 19.273143 32.475429 27.282286 50.797715 27.282286 24.429714 0 40.813714-18.651429 40.813714-44.361143 0-13.494857-5.12-29.549714-10.934857-45.604572L562.468571 196.242286c-11.593143-31.158857-27.977143-47.542857-50.468571-47.542857-22.491429 0-39.204571 16.054857-50.797714 47.542857L260.644571 741.412571c-5.778286 16.054857-10.934857 32.109714-10.934857 45.604572 0 25.746286 16.384 44.361143 40.813715 44.361143z" /></svg>