<?xml version="1.0" standalone="no"?><!DOCTYPE svg PUBLIC "-//W3C//DTD SVG 1.1//EN" "http://www.w3.org/Graphics/SVG/1.1/DTD/svg11.dtd"><svg class="icon" width="200px" height="200.00px" viewBox="0 0 1024 1024" version="1.1" xmlns="http://www.w3.org/2000/svg"><path fill="#000000" d="M743.424 755.2c100.278857 0 179.346286-73.581714 179.346286-165.522286 0-68.132571-38.875429-128.877714-102.838857-155.574857 0.329143-145.590857-104.484571-250.404571-239.177143-250.404571-85.467429 0-149.76 44.361143-189.952 102.546285C309.174857 264.411429 223.378286 325.156571 220.16 415.817143c-73.618286 13.165714-118.930286 79.396571-118.930286 159.744 0 98.048 85.467429 179.675429 197.997715 179.675428h444.196571z m-338.139429-142.994286v-116.077714c0-20.553143 8.045714-31.158857 24.758858-32.768v-33.426286c0-54.966857 33.097143-91.940571 81.956571-91.940571s81.956571 36.937143 81.956571 91.940571v33.426286c16.713143 1.609143 25.088 12.214857 25.088 32.768v116.041143c0 22.820571-10.313143 33.097143-31.195428 33.097143h-151.405714c-21.211429 0-31.158857-10.24-31.158858-33.097143z m60.416-149.504h92.891429v-35.986285c0-32.768-18.651429-54.308571-46.592-54.308572-27.977143 0-46.299429 21.833143-46.299429 54.308572v35.986285z" /></svg>