<?xml version="1.0" standalone="no"?><!DOCTYPE svg PUBLIC "-//W3C//DTD SVG 1.1//EN" "http://www.w3.org/Graphics/SVG/1.1/DTD/svg11.dtd"><svg class="icon" width="200px" height="200.00px" viewBox="0 0 1024 1024" version="1.1" xmlns="http://www.w3.org/2000/svg"><path fill="#000000" d="M511.670857 832.365714c182.272 0 332.690286-150.454857 332.690286-332.690285 0-181.942857-150.747429-332.361143-333.019429-332.361143-181.906286 0-332.032 150.418286-332.032 332.361143 0 182.235429 150.454857 332.690286 332.361143 332.690285z m-112.822857-170.349714c-21.211429 21.211429-48.530286 2.889143-38.546286-22.528l125.001143-318.171429c9.984-25.088 41.472-25.746286 51.456-0.365714l125.037714 318.537143c10.276571 25.709714-17.371429 43.739429-38.582857 22.528l-103.826285-103.862857c-5.12-5.12-11.556571-5.12-16.713143 0l-103.826286 103.862857z" /></svg>