<?xml version="1.0" standalone="no"?><!DOCTYPE svg PUBLIC "-//W3C//DTD SVG 1.1//EN" "http://www.w3.org/Graphics/SVG/1.1/DTD/svg11.dtd"><svg class="icon" width="200px" height="200.00px" viewBox="0 0 1024 1024" version="1.1" xmlns="http://www.w3.org/2000/svg"><path fill="#000000" d="M356.096 808.886857h311.808c43.044571 0 64.256-21.211429 64.256-68.132571v-240.749715c0-42.422857-17.334857-64-53.357714-67.510857v-79.36c0-122.148571-81.298286-180.992-166.802286-180.992S345.161143 230.948571 345.161143 353.097143v80.347428c-33.426286 5.156571-53.357714 26.368-53.357714 66.56v240.749715c0 46.921143 21.211429 68.132571 64.292571 68.132571z m50.797714-461.531428c0-74.934857 47.542857-116.077714 105.106286-116.077715 57.234286 0 105.106286 41.142857 105.106286 116.041143v84.553143l-210.212572 0.292571v-84.845714z" /></svg>