<?xml version="1.0" standalone="no"?><!DOCTYPE svg PUBLIC "-//W3C//DTD SVG 1.1//EN" "http://www.w3.org/Graphics/SVG/1.1/DTD/svg11.dtd"><svg class="icon" width="200px" height="200.00px" viewBox="0 0 1024 1024" version="1.1" xmlns="http://www.w3.org/2000/svg"><path fill="#000000" d="M268.068571 845.531429c39.168 0 132.717714-40.813714 191.232-81.956572 6.107429-4.498286 11.227429-6.107429 16.384-6.107428 4.169143 0.329143 8.045714 0.658286 11.556572 0.658285 231.753143-0.365714 397.604571-126.646857 397.604571-300.251428 0-166.144-166.180571-299.885714-373.174857-299.885715-206.994286 0-372.845714 133.741714-372.845714 299.885715 0 103.497143 62.354286 196.096 167.789714 253.001143 5.778286 3.510857 7.387429 8.338286 4.498286 14.116571-18.651429 31.195429-49.810286 65.901714-62.683429 82.285714-14.482286 18.322286-6.107429 38.253714 19.602286 38.253715z" /></svg>