<?xml version="1.0" standalone="no"?><!DOCTYPE svg PUBLIC "-//W3C//DTD SVG 1.1//EN" "http://www.w3.org/Graphics/SVG/1.1/DTD/svg11.dtd"><svg class="icon" width="200px" height="200.00px" viewBox="0 0 1024 1024" version="1.1" xmlns="http://www.w3.org/2000/svg"><path fill="#000000" d="M512 583.570286c65.243429 0 113.444571-48.859429 113.444571-120.210286V246.710857c0-71.350857-48.201143-120.210286-113.444571-120.210286-65.243429 0-113.444571 48.859429-113.444571 120.210286v216.649143c0 71.350857 48.201143 120.210286 113.444571 120.210286z m-245.577143-112.822857c0 133.083429 88.393143 224.036571 215.698286 236.251428v65.243429H364.141714a30.866286 30.866286 0 0 0-31.195428 30.537143 31.085714 31.085714 0 0 0 31.195428 30.537142h295.716572a31.085714 31.085714 0 0 0 31.158857-30.537142 30.866286 30.866286 0 0 0-31.158857-30.537143h-117.979429v-65.243429c127.268571-12.214857 215.698286-103.168 215.698286-236.251428v-63.305143a30.061714 30.061714 0 0 0-30.537143-30.208 30.610286 30.610286 0 0 0-31.195429 30.208v61.074285c0 109.604571-74.24 181.577143-183.844571 181.577143-109.604571 0-183.844571-71.972571-183.844571-181.613714v-61.074286a30.354286 30.354286 0 0 0-30.866286-30.171428 30.354286 30.354286 0 0 0-30.866286 30.208v63.305143z" /></svg>