<?xml version="1.0" standalone="no"?><!DOCTYPE svg PUBLIC "-//W3C//DTD SVG 1.1//EN" "http://www.w3.org/Graphics/SVG/1.1/DTD/svg11.dtd"><svg class="icon" width="200px" height="200.00px" viewBox="0 0 1024 1024" version="1.1" xmlns="http://www.w3.org/2000/svg"><path fill="#000000" d="M562.139429 256.365714c4.169143 0 6.765714-2.925714 7.387428-6.765714 9.654857-53.357714 9.325714-54.308571 64.621714-64.585143 4.169143-0.987429 7.058286-3.218286 7.058286-7.716571 0-4.205714-2.889143-6.765714-6.729143-7.716572-55.588571-10.971429-54.345143-11.885714-64.950857-64.292571-0.621714-4.169143-3.218286-7.058286-7.387428-7.058286-4.169143 0-6.729143 2.889143-7.387429 6.729143-10.605714 53.028571-8.996571 54.308571-64.621714 64.621714-4.169143 0.950857-7.058286 3.510857-7.058286 7.68 0 4.534857 2.925714 6.765714 6.765714 7.753143 55.917714 11.227429 55.259429 11.556571 64.914286 64.585143 0.658286 3.876571 3.218286 6.765714 7.387429 6.765714z m154.624 221.769143c6.4 0 11.227429-4.498286 12.214857-11.556571 10.24-85.211429 14.116571-87.771429 100.937143-101.266286 7.68-1.28 12.178286-5.485714 12.178285-12.544 0-6.4-4.498286-10.898286-10.934857-12.214857-87.734857-17.005714-91.904-16.054857-102.180571-101.229714-0.987429-7.058286-5.814857-11.556571-12.214857-11.556572-6.765714 0-11.593143 4.498286-12.544 11.227429-10.934857 86.784-13.824 89.380571-102.217143 101.558857-6.436571 0.987429-10.934857 5.814857-10.934857 12.214857 0 6.765714 4.498286 11.264 10.934857 12.544 88.722286 17.371429 90.953143 16.713143 102.217143 101.888a12.288 12.288 0 0 0 12.544 10.971429z m-248.795429 312.100572c119.588571 0 218.587429-62.354286 262.948571-166.180572 5.778286-14.116571 5.12-25.709714-1.938285-32.768-5.814857-5.778286-16.713143-6.765714-28.306286-1.609143-26.697143 10.934857-58.806857 16.713143-94.500571 16.713143-143.981714 0-238.482286-91.282286-238.482286-232.082286 0-37.302857 7.387429-78.738286 19.273143-103.131428 6.436571-13.531429 6.107429-24.795429 0.329143-31.853714-6.436571-7.387429-18.322286-8.374857-33.097143-2.56-103.497143 41.142857-173.604571 148.150857-173.604572 269.348571 0 162.633143 119.588571 284.16 287.378286 284.16z" /></svg>