<?xml version="1.0" standalone="no"?><!DOCTYPE svg PUBLIC "-//W3C//DTD SVG 1.1//EN" "http://www.w3.org/Graphics/SVG/1.1/DTD/svg11.dtd"><svg class="icon" width="200px" height="200.00px" viewBox="0 0 1024 1024" version="1.1" xmlns="http://www.w3.org/2000/svg"><path fill="#000000" d="M688.786286 606.061714c-170.057143 0-278.052571-105.398857-278.052572-274.505143 0-36.937143 8.704-86.125714 20.260572-112.164571 3.876571-8.338286 4.827429-14.153143 4.827428-18.651429a19.821714 19.821714 0 0 0-20.589714-20.224c-4.790857 0-12.507429 1.28-20.553143 4.169143-119.588571 47.908571-199.314286 174.189714-199.314286 308.224 0 188.708571 142.738286 324.022857 330.788572 324.022857 136.265143 0 255.524571-82.285714 297.618286-189.659428 3.547429-8.338286 4.498286-16.713143 4.498285-21.211429a20.260571 20.260571 0 0 0-19.894857-20.882285c-5.485714 0-10.605714 1.28-18.029714 4.498285-24.100571 8.374857-62.976 16.384-101.558857 16.384z" /></svg>