<?xml version="1.0" standalone="no"?><!DOCTYPE svg PUBLIC "-//W3C//DTD SVG 1.1//EN" "http://www.w3.org/Graphics/SVG/1.1/DTD/svg11.dtd"><svg class="icon" width="200px" height="200.00px" viewBox="0 0 1024 1024" version="1.1" xmlns="http://www.w3.org/2000/svg"><path fill="#000000" d="M774.290286 180.187429c-16.384 11.885714-194.486857 133.376-305.371429 231.424a248.027429 248.027429 0 0 1 159.744 160.073142c98.377143-111.213714 219.867429-288.987429 231.753143-305.700571 40.521143-57.526857-30.208-126.646857-86.125714-85.796571z m-305.700572 391.497142c24.758857 24.722286 42.788571 56.868571 48.237715 84.845715 24.429714-4.498286 44.690286-15.725714 65.243428-35.693715 3.547429-3.181714 6.765714-6.4 9.984-9.947428-12.873143-81.334857-81.664-150.089143-162.340571-162.633143-3.547429 2.889143-7.058286 6.4-10.276572 9.947429-19.931429 20.589714-31.524571 41.472-35.364571 65.901714 27.318857 4.827429 59.794286 22.491429 84.516571 47.542857zM163.218286 760.685714c58.88 77.787429 181.028571 100.937143 257.828571 42.752 65.243429-48.859429 76.470857-123.136 29.549714-185.161143-42.422857-56.246857-115.053714-70.070857-163.291428-32.768-51.419429 38.875429-30.829714 88.685714-61.074286 111.177143-26.002286 19.968-47.872 7.094857-64.585143 19.638857-13.165714 9.947429-12.873143 26.038857 1.609143 44.361143z" /></svg>