<?xml version="1.0" standalone="no"?><!DOCTYPE svg PUBLIC "-//W3C//DTD SVG 1.1//EN" "http://www.w3.org/Graphics/SVG/1.1/DTD/svg11.dtd"><svg class="icon" width="200px" height="200.00px" viewBox="0 0 1024 1024" version="1.1" xmlns="http://www.w3.org/2000/svg"><path fill="#000000" d="M703.890286 633.709714l124.379428-124.379428c37.302857-37.302857 36.352-81.664-1.572571-120.539429l-18.358857-18.651428c-33.426286 42.788571-128.548571 93.842286-146.541715 75.849142-2.925714-2.889143-3.218286-8.667429 0.950858-13.165714 38.253714-38.253714 64.292571-76.507429 70.070857-137.581714l-164.571429-165.193143c-33.426286-33.133714-89.014857-20.260571-104.448 39.497143-21.211429 81.993143-39.241143 130.852571-56.246857 167.826286l296.338286 296.338285zM207.945143 844.580571c51.419429 51.748571 118.930286 52.370286 169.691428 1.28 38.253714-37.924571 74.898286-121.819429 103.497143-166.838857l74.605715 74.898286c25.380571 25.709714 56.210286 25.709714 80.64 0.987429l27.318857-27.318858c25.088-25.417143 24.429714-54.674286-1.28-80.384l-257.133715-257.462857c-26.038857-25.709714-55.588571-26.038857-81.005714-0.950857l-26.989714 26.989714c-24.758857 24.758857-24.758857 55.296 0.950857 81.005715l74.605714 74.605714c-44.690286 28.233143-128.585143 65.206857-166.509714 103.131429-51.126857 51.126857-50.468571 118.308571 1.609143 170.057142z m87.734857-45.970285c-21.211429 0-38.582857-17.371429-38.582857-38.582857s17.371429-38.546286 38.582857-38.546286 38.253714 17.334857 38.253714 38.546286a38.4 38.4 0 0 1-38.253714 38.582857z" /></svg>