<?xml version="1.0" standalone="no"?><!DOCTYPE svg PUBLIC "-//W3C//DTD SVG 1.1//EN" "http://www.w3.org/Graphics/SVG/1.1/DTD/svg11.dtd"><svg class="icon" width="200px" height="200.00px" viewBox="0 0 1024 1024" version="1.1" xmlns="http://www.w3.org/2000/svg"><path fill="#000000" d="M352.256 766.793143h75.52c30.537143 0 46.299429-15.725714 46.299429-46.299429V278.198857c0-31.158857-15.725714-45.933714-46.299429-46.262857H352.256c-30.537143 0-46.299429 15.725714-46.299429 46.262857v442.294857c-0.329143 30.537143 15.433143 46.299429 46.299429 46.299429z m244.297143 0h75.190857c30.537143 0 46.299429-15.725714 46.299429-46.299429V278.198857c0-31.158857-15.725714-46.262857-46.299429-46.262857h-75.190857c-30.866286 0-46.299429 15.725714-46.299429 46.262857v442.294857c0 30.537143 15.433143 46.299429 46.262857 46.299429z" /></svg>