<?xml version="1.0" standalone="no"?><!DOCTYPE svg PUBLIC "-//W3C//DTD SVG 1.1//EN" "http://www.w3.org/Graphics/SVG/1.1/DTD/svg11.dtd"><svg class="icon" width="200px" height="200.00px" viewBox="0 0 1024 1024" version="1.1" xmlns="http://www.w3.org/2000/svg"><path fill="#000000" d="M324.608 279.186286c0 64.914286 35.693714 115.712 80.676571 115.712 45.348571 0 80.347429-50.797714 80.347429-115.712 0-65.243429-35.035429-115.712-80.347429-115.712-45.348571 0-80.676571 50.468571-80.676571 115.712z m213.101714 0c0 64.914286 35.364571 115.712 80.676572 115.712 44.982857 0 80.347429-50.797714 80.347428-115.712 0-65.243429-35.328-115.712-80.347428-115.712-45.348571 0-80.676571 50.468571-80.676572 115.712z m-371.565714 189.001143c0 65.243429 35.035429 116.041143 80.018286 116.041142 45.348571 0 80.713143-50.834286 80.713143-116.041142 0-64.950857-35.364571-115.712-80.713143-115.712-44.982857 0-80.018286 50.761143-80.018286 115.712z m530.651429 0c0 65.243429 35.072 116.041143 80.384 116.041142 45.348571 0 80.347429-50.834286 80.347428-116.041142 0-64.950857-35.035429-115.712-80.347428-115.712-45.348571 0-80.347429 50.761143-80.347429 115.712z m-430.994286 251.977142c0 67.181714 45.312 115.090286 111.542857 115.090286 32.438857 0 56.210286-8.996571 78.409143-17.042286 17.993143-6.107429 35.035429-11.885714 55.954286-11.885714 20.845714 0 37.888 5.778286 55.881142 11.885714 22.528 8.045714 45.970286 17.042286 78.445715 17.042286 66.194286 0 111.542857-47.908571 111.542857-115.090286 0-56.576-34.084571-85.467429-65.901714-111.542857-17.664-14.445714-34.742857-27.940571-46.262858-45.604571a341.76 341.76 0 0 1-24.429714-45.348572c-23.478857-49.810286-42.130286-97.718857-109.312-97.718857s-85.796571 47.908571-108.982857 97.718857c-7.350857 15.433143-15.067429 30.866286-24.393143 44.982858-11.593143 17.700571-28.928 31.524571-46.628571 46.006857-31.817143 26.038857-65.865143 54.930286-65.865143 111.542857z" /></svg>