<?xml version="1.0" standalone="no"?><!DOCTYPE svg PUBLIC "-//W3C//DTD SVG 1.1//EN" "http://www.w3.org/Graphics/SVG/1.1/DTD/svg11.dtd"><svg class="icon" width="200px" height="200.00px" viewBox="0 0 1024 1024" version="1.1" xmlns="http://www.w3.org/2000/svg"><path fill="#000000" d="M743.424 755.2c100.278857 0 179.346286-73.581714 179.346286-165.522286 0-68.132571-38.875429-128.877714-102.838857-155.574857 0.329143-145.590857-104.484571-250.404571-239.177143-250.404571-85.467429 0-149.76 44.361143-189.952 102.546285C309.174857 264.411429 223.378286 325.156571 220.16 415.817143c-73.618286 13.165714-118.930286 79.396571-118.930286 159.744 0 98.048 85.467429 179.675429 197.997715 179.675428h444.196571z m-211.163429-210.505143c-47.579429-0.365714-85.504-42.788571-85.833142-93.549714 0-50.139429 38.253714-91.611429 85.833142-91.611429 47.250286 0 85.504 41.472 85.504 91.611429 0 50.797714-38.253714 94.171429-85.504 93.549714zM352.877714 688.64c25.088-51.748571 86.820571-105.728 179.382857-105.728 92.233143 0 153.965714 53.979429 179.017143 105.728h-358.4z" /></svg>