<?xml version="1.0" standalone="no"?><!DOCTYPE svg PUBLIC "-//W3C//DTD SVG 1.1//EN" "http://www.w3.org/Graphics/SVG/1.1/DTD/svg11.dtd"><svg class="icon" width="200px" height="200.00px" viewBox="0 0 1024 1024" version="1.1" xmlns="http://www.w3.org/2000/svg"><path fill="#000000" d="M717.385143 478.134857c10.605714 0 18.980571-8.338286 18.980571-18.944V187.245714a18.870857 18.870857 0 0 0-18.980571-19.273143 18.870857 18.870857 0 0 0-18.944 19.273143v271.945143c0 10.934857 8.045714 18.944 18.944 18.944z m76.507428-36.644571c10.605714 0 18.980571-8.338286 18.980572-18.944v-199.314286a18.724571 18.724571 0 0 0-18.980572-18.651429 18.651429 18.651429 0 0 0-18.651428 18.651429v199.314286c0 10.605714 8.374857 18.944 18.651428 18.944zM369.590857 646.948571c94.829714 94.793143 209.92 167.753143 303.762286 167.753143 41.801143 0 78.738286-14.445714 108.324571-47.250285 17.371429-19.273143 27.977143-41.435429 27.977143-63.634286 0-17.042286-6.436571-33.426286-22.820571-44.982857l-98.998857-70.070857c-15.433143-10.971429-28.306286-16.091429-39.862858-16.091429-15.104 0-28.306286 8.374857-43.410285 23.149714l-23.149715 23.149715a17.188571 17.188571 0 0 1-12.507428 4.827428 33.243429 33.243429 0 0 1-13.165714-3.547428c-20.260571-10.934857-54.674286-40.813714-86.820572-72.630858-31.817143-32.182857-61.696-66.56-72.630857-86.784a33.243429 33.243429 0 0 1-3.547429-13.165714c0-4.205714 1.28-8.704 4.827429-12.251428l23.149714-23.442286c14.774857-15.104 23.149714-28.306286 23.149715-43.410286 0-11.556571-5.12-24.429714-16.091429-40.155428L358.4 230.656c-11.885714-16.420571-28.928-23.478857-46.921143-23.478857-21.577143 0-43.739429 9.654857-62.683428 27.977143-31.817143 30.208-45.970286 67.474286-45.970286 109.275428 0 93.842286 72.009143 207.652571 166.802286 302.445715z m271.286857-222.464c10.605714 0 18.980571-8.338286 18.980572-19.273142V240.274286a19.017143 19.017143 0 0 0-37.924572 0v164.937143c0 10.898286 8.338286 19.236571 18.944 19.236571zM870.765714 384c10.898286 0 18.651429-8.045714 18.651429-18.980571V280.502857c0-10.605714-8.045714-18.980571-18.651429-18.980571a19.017143 19.017143 0 0 0-18.980571 18.980571V364.982857c0 10.971429 8.374857 18.980571 18.980571 18.980572z m-306.980571-16.713143a18.797714 18.797714 0 0 0 19.273143-18.651428V297.508571a18.870857 18.870857 0 0 0-19.273143-18.980571 18.724571 18.724571 0 0 0-18.651429 18.980571v51.090286c0 10.276571 8.374857 18.651429 18.651429 18.651429z" /></svg>