<?xml version="1.0" standalone="no"?><!DOCTYPE svg PUBLIC "-//W3C//DTD SVG 1.1//EN" "http://www.w3.org/Graphics/SVG/1.1/DTD/svg11.dtd"><svg class="icon" width="200px" height="200.00px" viewBox="0 0 1024 1024" version="1.1" xmlns="http://www.w3.org/2000/svg"><path fill="#000000" d="M511.670857 359.533714c-143.652571 0.329143-277.065143 29.878857-343.588571 96.438857-29.915429 29.878857-45.348571 66.194286-43.410286 110.555429 1.28 26.038857 9.654857 48.859429 25.088 64.621714a55.222857 55.222857 0 0 0 48.530286 15.725715l119.588571-20.224c18.651429-2.925714 31.451429-8.704 39.862857-17.042286 10.605714-10.605714 13.787429-26.038857 13.787429-46.921143l0.329143-33.097143c0-5.156571 2.267429-9.033143 5.12-12.251428a21.686857 21.686857 0 0 1 12.251428-6.4c22.162286-5.12 67.474286-10.276571 122.770286-10.276572 54.966857 0 100.278857 3.84 122.477714 10.24 3.510857 0.987429 8.338286 2.925714 11.885715 6.436572 2.889143 3.218286 4.827429 7.094857 5.12 11.922285l0.365714 33.426286c0.292571 20.882286 3.510857 36.315429 14.116571 46.921143 8.374857 8.374857 21.211429 14.153143 39.862857 17.042286l118.272 19.931428c20.260571 3.510857 37.302857-3.876571 50.139429-16.713143 15.433143-14.811429 24.137143-37.632 24.758857-64 1.28-44.032-15.433143-80.347429-44.982857-109.897143-66.56-66.56-198.326857-96.438857-342.308571-96.438857z" /></svg>