<?xml version="1.0" standalone="no"?><!DOCTYPE svg PUBLIC "-//W3C//DTD SVG 1.1//EN" "http://www.w3.org/Graphics/SVG/1.1/DTD/svg11.dtd"><svg class="icon" width="200px" height="200.00px" viewBox="0 0 1024 1024" version="1.1" xmlns="http://www.w3.org/2000/svg"><path fill="#000000" d="M375.076571 646.912c94.829714 95.122286 210.212571 168.411429 304.384 168.411429 42.093714 0 79.067429-14.774857 108.617143-47.542858 17.371429-19.309714 27.977143-41.508571 27.977143-63.670857 0-17.042286-6.729143-33.755429-23.113143-45.348571l-98.706285-70.034286c-15.725714-10.971429-28.598857-16.091429-40.155429-16.091428-15.104 0-28.635429 8.374857-43.410286 23.149714l-23.149714 23.149714a18.614857 18.614857 0 0 1-12.507429 5.12 26.587429 26.587429 0 0 1-13.165714-3.84c-20.260571-10.934857-55.003429-40.484571-87.149714-72.630857-32.109714-32.182857-62.025143-66.56-72.630857-87.113143a27.574857 27.574857 0 0 1-3.510857-13.165714c0-3.876571 1.28-8.374857 4.790857-12.251429l23.149714-23.442285c14.482286-15.104 23.149714-28.306286 23.149714-43.410286 0-11.885714-5.12-24.722286-16.091428-40.155429L363.812571 230.326857c-11.885714-16.713143-28.598857-23.771429-46.921142-23.771428-21.869714 0-43.702857 9.618286-62.683429 27.940571-32.146286 30.208-46.262857 67.84-46.262857 109.275429 0 94.208 72.301714 208.310857 167.131428 303.140571z" /></svg>