<?xml version="1.0" standalone="no"?><!DOCTYPE svg PUBLIC "-//W3C//DTD SVG 1.1//EN" "http://www.w3.org/Graphics/SVG/1.1/DTD/svg11.dtd"><svg class="icon" width="200px" height="200.00px" viewBox="0 0 1024 1024" version="1.1" xmlns="http://www.w3.org/2000/svg"><path fill="#000000" d="M317.220571 800.182857h389.229715c69.778286 0 105.764571-35.949714 105.764571-104.740571V304.237714c0-68.754286-35.986286-104.777143-105.764571-104.777143H317.220571c-69.449143 0-105.764571 35.693714-105.764571 104.777143v391.204572c0 68.754286 36.315429 104.777143 105.764571 104.777143z m40.155429-300.507428c0-18.944 13.531429-32.146286 32.182857-32.146286h91.574857V375.954286c0-18.651429 12.873143-31.817143 31.524572-31.817143s32.109714 13.165714 32.109714 31.817143v91.611428h91.611429c18.322286 0 31.817143 13.165714 31.817142 32.182857 0 18.285714-13.494857 31.451429-31.817142 31.451429h-91.611429v91.611429c0 18.322286-13.494857 31.817143-32.109714 31.817142-18.651429 0-31.524571-13.494857-31.524572-31.817142v-91.611429h-91.611428c-18.651429 0-32.146286-13.165714-32.146286-31.451429z" /></svg>