<?xml version="1.0" standalone="no"?><!DOCTYPE svg PUBLIC "-//W3C//DTD SVG 1.1//EN" "http://www.w3.org/Graphics/SVG/1.1/DTD/svg11.dtd"><svg class="icon" width="200px" height="200.00px" viewBox="0 0 1024 1024" version="1.1" xmlns="http://www.w3.org/2000/svg"><path fill="#000000" d="M511.670857 831.707429c182.272 0 332.690286-150.418286 332.690286-332.361143 0-181.906286-150.747429-332.361143-333.019429-332.361143-181.906286 0-332.032 150.454857-332.032 332.361143 0 181.942857 150.454857 332.361143 332.361143 332.361143z m-155.574857-332.032c0-18.944 13.531429-32.146286 32.182857-32.146286h91.574857V375.954286c0-18.651429 12.873143-31.817143 31.195429-31.817143 18.944 0 32.109714 13.165714 32.109714 31.817143v91.611428h91.940572c18.322286 0 31.817143 13.165714 31.817142 32.182857 0 18.285714-13.494857 31.451429-31.817142 31.451429h-91.940572v91.611429c0 18.322286-13.165714 31.817143-32.109714 31.817142-18.322286 0-31.195429-13.494857-31.195429-31.817142v-91.611429h-91.611428c-18.651429 0-32.146286-13.165714-32.146286-31.451429z" /></svg>