<?xml version="1.0" standalone="no"?><!DOCTYPE svg PUBLIC "-//W3C//DTD SVG 1.1//EN" "http://www.w3.org/Graphics/SVG/1.1/DTD/svg11.dtd"><svg class="icon" width="200px" height="200.00px" viewBox="0 0 1024 1024" version="1.1" xmlns="http://www.w3.org/2000/svg"><path fill="#000000" d="M277.686857 227.766857H745.691429v-4.827428c0-48.530286-38.912-71.350857-92.891429-71.350858h-281.892571c-51.748571 0-93.257143 22.820571-93.257143 71.314286v4.864z m-29.586286 503.954286h6.107429v-174.518857c0-49.481143 28.928-78.738286 78.738286-78.738286h357.449143c49.810286 0 79.067429 29.257143 79.067428 78.738286v174.555428h6.107429c65.243429 0 100.937143-34.084571 100.937143-99.657143v-258.413714c0-65.572571-35.693714-99.657143-100.937143-99.657143H248.100571c-62.976 0-100.937143 34.084571-100.937142 99.657143v258.413714c0 65.572571 35.364571 99.657143 100.937142 99.657143z m416.548572-346.148572c0-22.820571 19.638857-42.752 43.081143-42.752 23.149714 0 42.788571 19.931429 42.788571 42.752 0 23.771429-19.638857 42.422857-42.788571 42.752a43.008 43.008 0 0 1-43.044572-42.752z m-363.52 425.910858c0 26.331429 17.371429 43.702857 43.739428 43.702857h333.641143c26.331429 0 43.702857-17.371429 43.702857-43.702857v-254.281143c0-18.944-12.544-31.488-31.817142-31.488H332.946286c-18.944 0-31.817143 12.544-31.817143 31.488v254.281143z m110.592-155.574858a22.308571 22.308571 0 0 1-22.820572-22.820571c0-12.214857 9.654857-22.198857 22.820572-22.198857h201.216c12.507429 0 22.162286 9.984 22.162286 22.198857a22.162286 22.162286 0 0 1-22.162286 22.820571h-201.216z m0 113.737143c-13.165714 0-22.820571-9.618286-22.820572-22.162285a22.308571 22.308571 0 0 1 22.820572-22.820572h201.216c12.507429 0 22.162286 9.984 22.162286 22.820572a21.833143 21.833143 0 0 1-22.162286 22.198857h-201.216z" /></svg>