<?xml version="1.0" standalone="no"?><!DOCTYPE svg PUBLIC "-//W3C//DTD SVG 1.1//EN" "http://www.w3.org/Graphics/SVG/1.1/DTD/svg11.dtd"><svg class="icon" width="200px" height="200.00px" viewBox="0 0 1024 1024" version="1.1" xmlns="http://www.w3.org/2000/svg"><path fill="#000000" d="M833.755429 415.817143c22.491429 0 35.657143-12.251429 35.657142-36.681143V228.388571c0-25.709714-17.005714-42.752-42.422857-42.752-20.553143 0-33.097143 6.436571-49.481143 18.651429l-41.472 31.488c-9.654857 7.387429-13.165714 14.482286-13.165714 23.149714 0 12.873143 9.325714 22.820571 23.771429 22.820572a27.648 27.648 0 0 0 17.371428-6.436572l30.829715-25.051428h2.56v128.877714c0 24.429714 13.531429 36.644571 36.352 36.644571zM150.674286 471.661714c0 22.857143 17.371429 40.228571 40.192 40.228572 23.149714 0 40.155429-17.371429 40.155428-40.228572v-20.845714c0-52.406857 36.022857-86.162286 90.660572-86.162286h162.633143v67.181715c0 19.273143 12.214857 31.451429 31.488 31.451428 8.704 0 17.042286-3.181714 23.478857-8.338286L665.965714 349.622857c15.433143-12.873143 15.433143-33.755429 0-46.628571l-126.646857-105.728a36.425143 36.425143 0 0 0-23.478857-8.704c-19.273143 0-31.451429 12.214857-31.451429 31.524571V285.622857H328.118857c-108.982857 0-177.444571 60.708571-177.444571 157.476572v28.598857z m309.540571 88.100572c0-19.309714-12.214857-31.817143-31.488-31.817143-8.704 0-17.042286 3.510857-23.478857 8.667428l-126.317714 105.435429c-15.725714 12.507429-15.725714 33.426286 0 46.592l126.317714 105.764571c6.436571 5.485714 14.774857 8.667429 23.478857 8.667429 19.273143 0 31.488-12.214857 31.488-31.488v-65.901714h235.300572c108.946286 0 177.078857-61.074286 177.078857-157.513143v-28.598857a39.497143 39.497143 0 0 0-40.155429-40.484572 39.497143 39.497143 0 0 0-40.192 40.484572v20.882285c0 52.077714-35.693714 86.162286-90.660571 86.162286h-241.371429v-66.852571z" /></svg>