<?xml version="1.0" standalone="no"?><!DOCTYPE svg PUBLIC "-//W3C//DTD SVG 1.1//EN" "http://www.w3.org/Graphics/SVG/1.1/DTD/svg11.dtd"><svg class="icon" width="200px" height="200.00px" viewBox="0 0 1024 1024" version="1.1" xmlns="http://www.w3.org/2000/svg"><path fill="#000000" d="M185.124571 589.348571c20.553143 19.309714 58.806857 24.137143 89.014858-3.181714 10.934857-9.984 32.146286-32.475429 64.914285-65.572571 160.073143-161.682286 258.121143-263.570286 275.163429-247.844572 13.824 12.214857-40.813714 89.380571-95.451429 165.229715-99.986286 138.532571-184.210286 240.091429-120.539428 303.725714 49.481143 49.846857 124.379429 5.156571 245.577143-101.229714 64.914286-56.905143 109.275429-98.669714 120.210285-88.064 7.058286 7.058286-10.313143 35.035429-31.817143 71.972571-30.866286 53.686857-72.338286 114.102857-31.817142 154.624 28.269714 28.269714 81.92 15.725714 144.310857-45.641143 12.836571-12.873143 15.725714-28.306286 4.790857-39.204571-10.24-9.984-24.722286-8.374857-35.657143 1.609143-39.533714 37.924571-69.412571 54.966857-74.24 49.810285-5.814857-5.778286 11.556571-36.315429 40.813714-88.393143 40.813714-72.96 65.901714-122.148571 27.977143-159.085714-50.834286-49.517714-110.262857 2.56-212.809143 92.891429-85.833143 75.52-122.441143 96.402286-129.828571 88.064-11.264-11.593143 21.833143-56.905143 115.675428-188.050286 102.546286-143.36 163.949714-237.202286 105.764572-293.778286-75.52-73.947429-177.737143-19.931429-427.52 227.547429-36.937143 36.352-60.086857 58.514286-71.972572 72.667428-29.915429 34.377143-23.149714 71.972571-2.56 91.904z" /></svg>