<?xml version="1.0" standalone="no"?><!DOCTYPE svg PUBLIC "-//W3C//DTD SVG 1.1//EN" "http://www.w3.org/Graphics/SVG/1.1/DTD/svg11.dtd"><svg class="icon" width="200px" height="200.00px" viewBox="0 0 1024 1024" version="1.1" xmlns="http://www.w3.org/2000/svg"><path fill="#000000" d="M249.417143 153.819429c23.771429 12.873143 32.109714 31.195429 32.109714 63.634285V758.125714c0 44.324571 25.417143 69.12 62.061714 69.12 34.706286 0 59.136-24.137143 59.136-66.889143V667.794286c0-46.628571 22.820571-71.350857 69.412572-71.350857h319.195428V259.584c0-69.449143-36.022857-105.764571-104.813714-105.764571H249.417143zM163.547429 313.892571c0 22.162286 15.104 36.644571 37.595428 36.644572h33.097143v-111.542857c0-20.260571-15.725714-34.742857-35.035429-34.742857-19.602286 0-35.657143 14.482286-35.657142 34.742857v74.898285z m245.869714 10.605715c0-11.264 8.704-19.931429 20.918857-19.931429h218.221714c11.593143 0 20.589714 8.667429 20.589715 19.931429a20.589714 20.589714 0 0 1-20.589715 20.882285h-218.221714a20.48 20.48 0 0 1-20.918857-20.882285z m0 110.262857c0-11.593143 8.704-20.589714 20.918857-20.589714h115.712a20.114286 20.114286 0 0 1 20.553143 20.589714 20.041143 20.041143 0 0 1-20.553143 20.224h-115.712a20.114286 20.114286 0 0 1-20.918857-20.224z m8.045714 410.112h336.859429c63.634286 0 106.057143-36.608 106.057143-102.509714v-62.061715c0-22.162286-15.104-36.608-37.595429-36.608h-335.579429c-22.491429 0-37.595429 14.445714-37.595428 36.644572v67.474285c0 38.912-6.107429 71.058286-32.146286 97.060572z" /></svg>