<?xml version="1.0" standalone="no"?><!DOCTYPE svg PUBLIC "-//W3C//DTD SVG 1.1//EN" "http://www.w3.org/Graphics/SVG/1.1/DTD/svg11.dtd"><svg class="icon" width="200px" height="200.00px" viewBox="0 0 1024 1024" version="1.1" xmlns="http://www.w3.org/2000/svg"><path fill="#000000" d="M828.928 815.981714c14.153143 9.325714 33.097143 5.12 43.373714-10.313143 56.576-84.845714 90.697143-190.281143 90.697143-305.993142 0-116.041143-34.742857-221.147429-90.697143-306.322286-10.24-15.725714-29.257143-19.602286-43.373714-10.276572-15.433143 9.947429-17.664 28.928-7.058286 45.970286 49.152 74.898286 79.725714 167.789714 79.725715 270.628572 0 102.217143-30.573714 195.766857-79.725715 270.336-10.605714 17.042286-8.374857 35.986286 7.058286 45.970285z m-415.926857-28.306285c24.137143 0 41.801143-17.993143 41.801143-41.764572V255.085714c0-24.137143-17.700571-43.410286-42.422857-43.410285-16.420571 0-28.306286 6.765714-45.677715 23.771428L232.374857 361.179429a10.166857 10.166857 0 0 1-7.424 2.925714H133.997714c-47.542857 0-73.289143 26.331429-73.289143 76.141714v119.588572c0 49.810286 25.709714 76.178286 73.289143 76.178285h90.953143c2.925714 0 5.156571 0.950857 7.424 2.889143l134.326857 126.646857c16.091429 15.433143 29.586286 22.162286 46.299429 22.162286z m285.732571-58.806858a31.012571 31.012571 0 0 0 43.081143-9.325714c41.801143-59.136 66.194286-138.532571 66.194286-220.16 0-81.664-24.100571-161.389714-66.194286-220.196571-10.276571-15.104-28.269714-18.651429-43.081143-9.325715-15.396571 9.654857-17.664 28.928-6.107428 45.970286 34.084571 50.102857 53.686857 115.382857 53.686857 183.515429 0 67.84-19.931429 133.12-53.686857 183.552-11.227429 17.042286-9.289143 35.986286 6.107428 45.970285z m-129.536-86.162285a30.208 30.208 0 0 0 41.801143-8.338286c26.038857-34.742857 41.472-83.894857 41.472-135.021714 0-51.090286-15.433143-99.949714-41.472-134.985143a29.842286 29.842286 0 0 0-41.801143-8.045714c-15.725714 10.276571-18.651429 29.257143-6.070857 47.908571 17.664 25.380571 27.611429 59.465143 27.611429 95.122286 0 35.693714-9.947429 69.449143-27.611429 95.158857-12.544 18.651429-9.654857 37.595429 6.107429 48.201143z" /></svg>