<?xml version="1.0" standalone="no"?><!DOCTYPE svg PUBLIC "-//W3C//DTD SVG 1.1//EN" "http://www.w3.org/Graphics/SVG/1.1/DTD/svg11.dtd"><svg class="icon" width="200px" height="200.00px" viewBox="0 0 1024 1024" version="1.1" xmlns="http://www.w3.org/2000/svg"><path fill="#000000" d="M568.246857 787.675429c24.137143 0 41.801143-17.993143 41.801143-41.801143V255.085714c0-24.137143-17.700571-43.410286-42.422857-43.410285-16.420571 0-28.306286 6.765714-45.641143 23.771428l-134.363429 125.696a10.166857 10.166857 0 0 1-7.424 2.925714H289.28c-47.542857 0-73.289143 26.331429-73.289143 76.141715v119.588571c0 49.810286 25.709714 76.178286 73.289143 76.178286h90.953143c2.925714 0 5.156571 0.950857 7.424 2.889143l134.363428 126.646857c16.054857 15.433143 29.549714 22.162286 46.262858 22.162286z m156.233143-144.969143a30.208 30.208 0 0 0 41.764571-8.338286c26.038857-34.742857 41.472-83.894857 41.472-135.021714 0-51.090286-15.433143-99.949714-41.472-134.985143a29.842286 29.842286 0 0 0-41.764571-8.045714c-15.762286 10.276571-18.651429 29.257143-6.107429 47.908571 17.664 25.380571 27.611429 59.465143 27.611429 95.122286 0 35.693714-9.947429 69.449143-27.611429 95.158857-12.544 18.651429-9.654857 37.595429 6.107429 48.201143z" /></svg>