<?xml version="1.0" standalone="no"?><!DOCTYPE svg PUBLIC "-//W3C//DTD SVG 1.1//EN" "http://www.w3.org/Graphics/SVG/1.1/DTD/svg11.dtd"><svg class="icon" width="200px" height="200.00px" viewBox="0 0 1024 1024" version="1.1" xmlns="http://www.w3.org/2000/svg"><path fill="#000000" d="M511.670857 831.707429c182.272 0 332.690286-150.418286 332.690286-332.361143a328.411429 328.411429 0 0 0-66.194286-197.339429l25.709714-25.709714c8.338286-8.374857 12.836571-18.322286 12.836572-27.977143a35.474286 35.474286 0 0 0-35.986286-35.693714c-11.885714 0-20.260571 3.547429-28.635428 11.593143l-24.100572 23.771428a334.445714 334.445714 0 0 0-179.017143-79.067428v-32.475429c0-21.211429-16.713143-38.217143-37.302857-38.217143-20.224 0-37.302857 17.005714-37.302857 38.217143v32.475429c-164.864 18.980571-295.058286 161.024-295.058286 330.422857 0 181.942857 150.454857 332.361143 332.361143 332.361143z m0-276.406858c-30.829714 0-55.588571-24.758857-55.588571-55.588571 0-20.589714 11.556571-38.290286 30.208-48.896V296.228571c0-14.153143 10.934857-25.417143 25.051428-25.417142 14.482286 0 25.746286 11.264 25.746286 25.417142v154.916572c18.651429 9.947429 29.878857 27.648 29.878857 48.530286 0 30.866286-24.429714 55.588571-55.296 55.588571z" /></svg>