<?xml version="1.0" standalone="no"?><!DOCTYPE svg PUBLIC "-//W3C//DTD SVG 1.1//EN" "http://www.w3.org/Graphics/SVG/1.1/DTD/svg11.dtd"><svg class="icon" width="200px" height="200.00px" viewBox="0 0 1024 1024" version="1.1" xmlns="http://www.w3.org/2000/svg"><path fill="#000000" d="M511.670857 251.867429c22.198857 0 40.521143-18.322286 40.521143-40.192 0-22.162286-18.322286-40.192-40.521143-40.192-22.162286 0-40.155429 17.700571-40.155428 40.228571 0 21.833143 18.651429 40.155429 40.155428 40.155429z m175.177143 72.630857a40.740571 40.740571 0 0 0 56.905143 0c16.091429-15.725714 16.091429-41.142857 0-56.905143a39.606857 39.606857 0 0 0-56.905143 0 40.740571 40.740571 0 0 0 0 56.905143z m-407.222857 0.329143a40.740571 40.740571 0 0 0 56.868571 0c16.091429-16.384 16.091429-40.813714 0-56.905143a39.606857 39.606857 0 0 0-56.868571 0 40.740571 40.740571 0 0 0 0 56.905143z m232.045714 343.588571c92.269714 0 168.448-76.178286 168.448-168.411429 0-91.940571-76.178286-168.118857-168.448-168.118857-91.940571 0-168.082286 76.178286-168.082286 168.118857 0 92.233143 76.141714 168.411429 168.082286 168.411429zM224 540.16c21.869714 0 40.192-18.651429 40.192-40.155429 0-22.491429-17.700571-40.484571-40.192-40.484571-22.162286 0-40.192 18.285714-40.192 40.484571a40.594286 40.594286 0 0 0 40.192 40.155429z m575.670857 1.645714c22.491429 0 40.192-17.700571 40.192-40.228571 0-21.504-18.322286-40.155429-40.192-40.155429-22.162286 0-40.155429 18.322286-40.155428 40.192a40.228571 40.228571 0 0 0 40.155428 40.192zM279.917714 731.428571c15.762286 16.091429 41.142857 16.091429 56.905143 0a40.740571 40.740571 0 0 0 0-56.905142 40.740571 40.740571 0 0 0-56.905143 0c-16.091429 16.091429-16.091429 41.142857 0 56.905142z m405.321143 1.609143c16.420571 15.725714 40.850286 15.725714 57.234286 0a40.740571 40.740571 0 0 0 0-56.905143 40.557714 40.557714 0 0 0-57.234286 0c-15.725714 15.725714-15.725714 41.142857 0 56.905143z m-173.568 94.500572c22.198857 0 40.521143-17.993143 40.521143-40.192 0-21.833143-18.322286-40.155429-40.521143-40.155429-21.540571 0-40.155429 18.285714-40.155428 40.155429 0 22.528 17.993143 40.192 40.155428 40.192z" /></svg>