<?xml version="1.0" standalone="no"?><!DOCTYPE svg PUBLIC "-//W3C//DTD SVG 1.1//EN" "http://www.w3.org/Graphics/SVG/1.1/DTD/svg11.dtd"><svg class="icon" width="200px" height="200.00px" viewBox="0 0 1024 1024" version="1.1" xmlns="http://www.w3.org/2000/svg"><path fill="#000000" d="M544.768 171.52A33.353143 33.353143 0 0 0 512 138.678857a33.060571 33.060571 0 0 0-32.475429 32.768v65.28c0 17.664 14.811429 32.438857 32.475429 32.438857a33.060571 33.060571 0 0 0 32.768-32.438857V171.483429z m128.585143 119.552a32.512 32.512 0 1 0 46.299428 45.641143l46.262858-46.299429c12.544-12.214857 12.544-33.718857 0-46.262857a33.097143 33.097143 0 0 0-45.970286 0.329143l-46.592 46.592zM304.347429 336.713143a32.512 32.512 0 0 0 45.970285 0.329143 33.097143 33.097143 0 0 0 0.329143-45.970286L304.347429 244.48a33.426286 33.426286 0 0 0-45.970286-0.365714c-12.507429 12.580571-12.507429 34.084571-0.292572 46.006857l46.262858 46.592zM512 328.667429c-92.562286 0-169.398857 76.507429-169.398857 169.398857 0 92.891429 76.8 169.398857 169.398857 169.398857 92.562286 0 169.069714-76.507429 169.069714-169.398857 0-92.891429-76.507429-169.398857-169.069714-169.398857z m326.217143 202.203428a33.060571 33.060571 0 0 0 32.512-32.804571 32.804571 32.804571 0 0 0-32.475429-32.475429h-65.243428a32.804571 32.804571 0 0 0-32.475429 32.475429c0 17.664 14.774857 32.804571 32.475429 32.804571h65.243428zM186.112 465.554286a32.841143 32.841143 0 0 0-32.804571 32.475428c0 17.664 14.811429 32.804571 32.804571 32.804572h64.914286a33.353143 33.353143 0 0 0 32.804571-32.804572 33.060571 33.060571 0 0 0-32.804571-32.475428H186.075429z m533.211429 193.828571a32.804571 32.804571 0 0 0-45.933715 0.329143c-12.544 12.214857-12.544 33.097143 0.329143 45.970286l46.592 46.262857c12.214857 12.544 33.426286 12.214857 45.970286-0.292572a33.097143 33.097143 0 0 0-0.329143-45.970285L719.36 659.382857zM258.121143 705.389714c-12.544 12.544-12.873143 33.755429-0.658286 45.970286 12.544 12.544 34.084571 12.836571 46.299429 0.621714l46.592-46.262857a33.097143 33.097143 0 0 0 0.329143-45.970286 33.499429 33.499429 0 0 0-46.299429-0.329142l-46.262857 45.970285z m286.72 54.016a33.060571 33.060571 0 0 0-32.804572-32.475428 32.804571 32.804571 0 0 0-32.475428 32.475428v65.243429c0 17.664 14.811429 32.768 32.475428 32.768a33.353143 33.353143 0 0 0 32.768-32.768v-65.243429z" /></svg>