<?xml version="1.0" standalone="no"?><!DOCTYPE svg PUBLIC "-//W3C//DTD SVG 1.1//EN" "http://www.w3.org/Graphics/SVG/1.1/DTD/svg11.dtd"><svg class="icon" width="200px" height="200.00px" viewBox="0 0 1024 1024" version="1.1" xmlns="http://www.w3.org/2000/svg"><path fill="#000000" d="M512 283.062857c15.725714-0.365714 28.598857-13.531429 28.598857-31.195428v-74.24c0-17.700571-12.836571-30.866286-28.598857-30.866286-15.725714 0-28.598857 13.165714-28.598857 30.829714v74.24c0 17.700571 12.836571 31.524571 28.598857 31.195429z m165.851429 68.754286c11.264 10.934857 29.878857 10.605714 42.422857-1.609143l52.406857-52.699429c12.873143-12.544 12.544-30.866286 1.28-42.130285-10.605714-11.227429-29.257143-11.227429-41.801143 1.609143L679.497143 309.394286c-12.580571 12.544-12.873143 31.488-1.645714 42.422857z m-332.032 0c11.264-11.227429 10.934857-29.878857-1.28-42.422857L291.803429 256.987429c-12.507429-12.836571-30.829714-12.507429-42.057143-1.609143-11.264 11.264-11.264 29.586286 1.243428 42.130285l52.736 52.699429c12.507429 12.214857 31.158857 12.873143 42.093715 1.609143z m340.406857 165.229714c0-95.451429-78.774857-174.884571-174.226286-174.884571-95.451429 0-174.518857 79.396571-174.518857 174.884571 0 21.211429 4.498286 41.764571 11.885714 60.086857h325.266286c7.387429-18.285714 11.593143-38.875429 11.593143-60.086857zM171.885714 536.649143h74.24c17.700571 0 31.524571-12.873143 31.195429-28.598857-0.329143-15.762286-13.531429-28.635429-31.195429-28.635429h-74.24c-17.664 0-30.866286 12.873143-30.866285 28.635429 0 15.725714 13.531429 28.598857 30.866285 28.598857z m605.915429 0h74.24c17.664 0 30.866286-12.873143 30.866286-28.598857 0-15.762286-13.165714-28.635429-30.866286-28.635429h-74.24c-17.700571 0-31.524571 12.873143-31.195429 28.635429 0.329143 15.725714 13.531429 28.598857 31.195429 28.598857zM211.456 661.028571h649.289143a21.577143 21.577143 0 0 0 22.198857-21.869714 21.504 21.504 0 0 0-22.198857-21.504H211.456a21.394286 21.394286 0 0 0-21.833143 21.504c0 12.544 9.618286 21.869714 21.833143 21.869714zM163.254857 784.457143h648.96a21.577143 21.577143 0 0 0 22.162286-21.869714 21.467429 21.467429 0 0 0-22.162286-21.504H163.254857a21.504 21.504 0 0 0-22.198857 21.504 21.577143 21.577143 0 0 0 22.198857 21.869714z m48.201143 123.428571h649.289143a21.577143 21.577143 0 0 0 22.198857-21.869714 21.504 21.504 0 0 0-22.198857-21.504H211.456a21.394286 21.394286 0 0 0-21.833143 21.504c0 12.544 9.618286 21.869714 21.833143 21.869714z" /></svg>