<?xml version="1.0" standalone="no"?><!DOCTYPE svg PUBLIC "-//W3C//DTD SVG 1.1//EN" "http://www.w3.org/Graphics/SVG/1.1/DTD/svg11.dtd"><svg class="icon" width="200px" height="200.00px" viewBox="0 0 1024 1024" version="1.1" xmlns="http://www.w3.org/2000/svg"><path fill="#000000" d="M770.121143 812.434286V292.022857h17.664c69.12 0 104.155429 34.742857 104.155428 102.875429v314.660571c0 68.169143-35.035429 102.875429-104.155428 102.875429h-17.664zM382.134857 261.485714v30.537143h259.730286V261.485714c0-15.104-9.984-24.722286-26.697143-24.722285H408.868571c-16.420571 0-26.697143 9.618286-26.697142 24.722285z m332.690286 30.537143v520.411429H309.174857V292.022857h8.045714v-33.426286c0-50.761143 32.768-81.005714 87.405715-81.005714h214.747428c54.637714 0 87.405714 30.244571 87.405715 81.005714v33.426286h8.045714zM235.885714 812.434286c-68.461714 0-103.826286-34.742857-103.826285-102.875429v-314.660571c0-68.132571 35.364571-102.875429 103.862857-102.875429h17.956571v520.411429H235.885714z" /></svg>