<?xml version="1.0" standalone="no"?><!DOCTYPE svg PUBLIC "-//W3C//DTD SVG 1.1//EN" "http://www.w3.org/Graphics/SVG/1.1/DTD/svg11.dtd"><svg class="icon" width="200px" height="200.00px" viewBox="0 0 1024 1024" version="1.1" xmlns="http://www.w3.org/2000/svg"><path fill="#000000" d="M512 353.426286c15.433143 0 28.598857-13.824 28.598857-30.866286V209.115429l-4.827428-50.797715 22.820571 28.306286 36.973714 37.924571c5.12 5.778286 12.214857 9.618286 19.931429 9.618286 14.774857 0 25.088-10.24 25.088-24.429714 0-8.045714-3.547429-14.116571-9.984-20.224L531.931429 96.914286c-7.387429-6.729143-12.873143-9.289143-19.931429-9.289143-7.387429 0-12.873143 2.56-20.260571 9.289143l-98.669715 92.598857c-6.436571 6.107429-9.947429 12.214857-9.947428 20.224 0 14.153143 10.24 24.429714 25.051428 24.429714a27.026286 27.026286 0 0 0 19.931429-9.618286l39.533714-40.521142 20.260572-25.709715-4.827429 50.797715V322.56c0 17.042286 13.165714 30.866286 28.928 30.866286z m165.851429 85.504c11.264 10.934857 29.878857 10.934857 42.422857-1.609143l52.406857-52.406857c12.873143-12.507429 12.544-30.829714 1.28-42.093715-10.605714-11.264-29.257143-11.264-41.801143 1.28l-52.662857 52.736c-12.580571 12.214857-12.873143 31.158857-1.645714 42.093715z m-374.125715-1.609143c12.507429 12.544 31.158857 12.873143 42.093715 1.609143 11.264-11.264 10.934857-29.878857-1.28-42.093715L291.803429 344.100571c-12.507429-12.544-30.829714-12.214857-42.057143-1.28-11.264 10.934857-11.264 29.586286 1.243428 42.093715l52.736 52.406857z m382.500572 167.131428c0-95.780571-78.774857-174.811429-174.226286-174.811428-95.451429 0-174.518857 79.030857-174.518857 174.811428 0 20.589714 4.169143 40.192 11.885714 58.185143h325.266286a152.722286 152.722286 0 0 0 11.593143-58.148571zM171.885714 620.873143h74.24c17.700571 0 31.524571-12.873143 31.195429-28.635429-0.329143-15.725714-13.531429-28.598857-31.195429-28.598857h-74.24c-17.664 0-30.866286 12.873143-30.866285 28.598857 0 15.762286 13.531429 28.635429 30.866285 28.635429z m605.915429 0h74.24c17.664 0 30.866286-12.873143 30.866286-28.635429 0-15.725714-13.165714-28.598857-30.866286-28.598857h-74.24c-17.700571 0-31.524571 12.873143-31.195429 28.598857 0.329143 15.762286 13.531429 28.635429 31.195429 28.635429zM132.022857 765.513143H891.611429c17.664 0 32.146286-14.153143 32.146285-30.866286 0-17.042286-14.482286-30.866286-32.182857-30.866286H132.096c-17.664 0-32.146286 14.153143-32.146286 30.866286 0 16.384 14.811429 30.866286 32.182857 30.866286z" /></svg>