<?xml version="1.0" standalone="no"?><!DOCTYPE svg PUBLIC "-//W3C//DTD SVG 1.1//EN" "http://www.w3.org/Graphics/SVG/1.1/DTD/svg11.dtd"><svg class="icon" width="200px" height="200.00px" viewBox="0 0 1024 1024" version="1.1" xmlns="http://www.w3.org/2000/svg"><path fill="#000000" d="M512.329143 167.972571c16.091429 0 29.257143-13.531429 29.257143-29.257142v-66.56c0-16.054857-13.165714-29.257143-29.257143-29.257143-16.091429 0-29.257143 13.202286-29.257143 29.257143v66.56c0 15.725714 13.165714 29.257143 29.257143 29.257142z m149.796571 62.354286c10.898286 11.227429 29.878857 11.227429 41.435429 0l46.957714-47.250286a29.293714 29.293714 0 0 0 0-41.142857 29.293714 29.293714 0 0 0-41.142857 0l-47.250286 47.250286a29.622857 29.622857 0 0 0 0 41.142857zM352.548571 885.394286a175.652571 175.652571 0 0 0 175.798858-175.835429c0-49.810286-20.224-93.513143-58.514286-128.877714-6.729143-6.107429-8.338286-9.984-8.338286-18.980572l0.329143-281.563428c0-72.009143-44.032-119.881143-109.275429-119.881143-65.901714 0-110.592 47.908571-110.592 119.881143l0.658286 281.6c0 8.96-1.609143 12.8-8.374857 18.944-38.546286 35.035429-58.514286 79.067429-58.514286 128.877714a175.872 175.872 0 0 0 176.822857 175.835429z m0-55.954286a120.393143 120.393143 0 0 1-120.539428-120.502857c0-40.813714 19.273143-76.178286 53.028571-98.998857 9.947429-6.436571 13.824-12.544 13.824-25.417143V282.404571c0-40.192 21.540571-65.901714 53.686857-65.901714 31.158857 0 52.699429 25.709714 52.699429 65.901714v302.116572c0 12.873143 3.84 18.980571 13.824 25.417143 33.755429 22.820571 53.028571 58.148571 53.028571 98.998857 0 66.56-53.686857 120.539429-119.588571 120.539428z m161.024-286.72c89.673143 0 161.024-72.923429 161.024-162.925714a161.755429 161.755429 0 0 0-162.304-162.633143c-7.094857 0-14.153143 0.950857-21.211428 2.230857 6.729143 18.322286 10.605714 38.582857 10.605714 60.745143l-0.329143 261.339428c3.84 0.950857 8.045714 1.28 12.214857 1.28z m-161.682285 243.346286c42.752 0 77.165714-34.742857 77.165714-77.458286 0-29.586286-16.749714-54.308571-41.472-67.510857-10.313143-5.485714-13.531429-9.325714-13.531429-24.758857v-307.565715c0-16.420571-9.618286-26.368-22.162285-26.368-12.214857 0-21.869714 9.947429-21.869715 26.331429v307.638857c0 15.396571-3.218286 19.273143-13.494857 24.722286-24.758857 13.165714-41.472 37.924571-41.472 67.510857 0 43.081143 34.377143 77.458286 76.836572 77.458286z m400.822857-377.051429h66.56c15.725714 0 28.891429-13.165714 28.891428-29.257143 0-16.054857-13.165714-28.891429-28.891428-28.891428l-66.56-0.329143c-15.725714 0-29.257143 13.165714-29.257143 29.257143 0 16.091429 13.531429 29.257143 29.257143 29.257143z m-43.373714 209.261714a29.293714 29.293714 0 0 0 41.142857-0.292571c11.227429-10.971429 10.898286-29.622857-0.365715-40.850286l-47.213714-47.250285a29.622857 29.622857 0 0 0-41.142857 0 29.622857 29.622857 0 0 0 0.329143 41.142857l47.213714 47.250285z" /></svg>