<?xml version="1.0" standalone="no"?><!DOCTYPE svg PUBLIC "-//W3C//DTD SVG 1.1//EN" "http://www.w3.org/Graphics/SVG/1.1/DTD/svg11.dtd"><svg class="icon" width="200px" height="200.00px" viewBox="0 0 1024 1024" version="1.1" xmlns="http://www.w3.org/2000/svg"><path fill="#000000" d="M806.765714 479.085714l-41.472-23.442285 36.644572-21.211429c8.667429-5.12 11.885714-15.433143 7.058285-23.771429-5.12-9.325714-15.725714-11.264-25.380571-5.485714l-53.394286 30.537143-90.916571-51.419429 91.904-51.748571 53.394286 30.866286c9.289143 5.449143 19.894857 3.510857 25.673142-5.485715 4.498286-8.338286 0.987429-18.944-7.68-24.137142l-36.352-20.845715 40.521143-22.820571c10.898286-6.107429 14.445714-17.042286 8.667429-27.318857-5.485714-9.654857-17.042286-11.922286-26.697143-6.107429l-41.142857 24.100572V238.994286c0-10.605714-7.058286-18.285714-16.713143-18.285715-10.934857 0-17.334857 7.68-17.334857 19.273143l-0.658286 61.074286-90.624 53.650286 0.950857-106.057143 53.357715-30.866286c9.654857-5.778286 13.165714-15.725714 8.045714-24.758857-4.827429-8.667429-15.433143-10.934857-24.429714-5.778286l-36.315429 21.211429 0.292571-45.970286c0-11.556571-7.387429-20.845714-18.944-20.845714-11.593143 0-18.980571 9.289143-18.980571 20.845714l0.365714 45.970286-36.352-21.211429c-8.996571-5.12-19.273143-2.889143-24.429714 5.778286-5.12 8.996571-1.609143 18.980571 8.045714 24.758857l53.357715 30.866286 0.950857 106.057143-56.576-33.755429v40.850286l39.204571 22.491428-39.204571 22.162286v41.142857l56.576-33.755428-0.950857 105.435428-46.628572 27.026286c4.169143 9.618286 11.885714 20.845714 19.931429 28.269714l26.038857-15.104-0.329143 46.592c0 11.922286 7.387429 20.918857 18.980571 20.918857 11.556571 0 18.944-9.325714 18.944-20.918857l-0.292571-46.262857 35.986286 20.845714c8.996571 5.193143 19.273143 2.925714 24.429714-5.741714 5.485714-8.996571 1.609143-18.980571-8.045714-24.758857l-53.028572-30.866286-0.950857-105.435428 89.965714 53.394285 0.365715 61.366858c0 10.605714 6.729143 18.980571 17.334857 19.273142 9.654857 0 17.042286-8.338286 17.042286-18.285714v-41.801143l40.813714 23.771429c10.276571 6.107429 21.869714 4.169143 27.648-5.485714 5.778286-10.24 1.28-21.504-8.667429-26.953143zM382.464 885.394286a175.652571 175.652571 0 0 0 175.835429-175.835429c0-49.810286-20.260571-93.513143-58.514286-128.877714-6.765714-6.107429-8.374857-9.984-8.374857-18.980572l0.365714-281.563428c0-72.009143-44.068571-119.881143-109.312-119.881143-65.901714 0-110.555429 47.908571-110.555429 119.881143l0.621715 281.6c0 8.96-1.609143 12.8-8.338286 18.944-38.582857 35.035429-58.514286 79.067429-58.514286 128.877714a175.872 175.872 0 0 0 176.786286 175.835429z m0-55.954286a120.393143 120.393143 0 0 1-120.539429-120.502857c0-40.813714 19.273143-76.178286 53.028572-98.998857 9.984-6.436571 13.824-12.544 13.824-25.417143V282.404571c0-40.192 21.577143-65.901714 53.686857-65.901714 31.158857 0 52.699429 25.709714 52.699429 65.901714v302.116572c0 12.873143 3.876571 18.980571 13.824 25.417143 33.755429 22.820571 53.028571 58.148571 53.028571 98.998857 0 66.56-53.650286 120.539429-119.552 120.539428z m-0.658286-43.373714c42.788571 0 77.165714-34.377143 77.165715-77.458286 0-29.586286-16.713143-54.308571-41.472-67.510857-10.276571-5.485714-13.531429-9.325714-13.531429-24.758857V551.131429c0-16.384-9.618286-26.331429-22.162286-26.331429-12.214857 0-21.833143 9.947429-21.833143 26.331429v65.243428c0 15.433143-3.218286 19.309714-13.531428 24.758857-24.722286 13.165714-41.435429 37.924571-41.435429 67.510857 0 43.081143 34.377143 77.458286 76.8 77.458286z" /></svg>