<?xml version="1.0" standalone="no"?><!DOCTYPE svg PUBLIC "-//W3C//DTD SVG 1.1//EN" "http://www.w3.org/Graphics/SVG/1.1/DTD/svg11.dtd"><svg class="icon" width="200px" height="200.00px" viewBox="0 0 1024 1024" version="1.1" xmlns="http://www.w3.org/2000/svg"><path fill="#000000" d="M317.220571 800.182857h389.229715c69.778286 0 105.764571-35.949714 105.764571-104.740571V304.237714c0-68.754286-35.986286-104.777143-105.764571-104.777143H317.220571c-69.449143 0-105.764571 35.693714-105.764571 104.777143v391.204572c0 68.754286 36.315429 104.777143 105.764571 104.777143z m4.169143-63.926857c-29.586286 0-45.970286-15.433143-45.970285-46.628571V310.016c0-31.158857 16.384-46.592 45.970285-46.592h380.891429c29.257143 0 45.970286 15.433143 45.970286 46.628571v379.611429c0 31.158857-16.713143 46.592-45.970286 46.592H321.389714z m7.058286-236.909714A183.698286 183.698286 0 0 0 512 682.898286c100.937143 0 183.552-82.285714 183.552-183.552 0-100.571429-82.651429-183.515429-183.552-183.515429-14.774857 0-24.429714 9.947429-24.429714 24.429714v58.806858c0 13.165714 9.654857 23.478857 22.820571 23.478857 12.873143 0 22.491429-10.605714 22.491429-23.478857v-30.866286c63.634286 9.325714 111.542857 64.621714 111.542857 131.145143A132.315429 132.315429 0 0 1 512 632.100571a132.169143 132.169143 0 0 1-132.754286-132.754285c0-30.866286 10.605714-60.416 30.537143-84.187429 8.996571-12.544 8.996571-25.746286-0.658286-36.022857-10.898286-10.934857-27.940571-8.996571-38.217142 4.169143a181.723429 181.723429 0 0 0-42.422858 116.041143z m213.430857 29.915428a32.987429 32.987429 0 0 0-6.4-52.077714l-81.005714-52.736c-13.824-8.667429-26.697143 2.925714-17.700572 17.371429l53.394286 81.005714c12.178286 18.980571 35.657143 21.869714 51.712 6.436571z" /></svg>