<?xml version="1.0" standalone="no"?><!DOCTYPE svg PUBLIC "-//W3C//DTD SVG 1.1//EN" "http://www.w3.org/Graphics/SVG/1.1/DTD/svg11.dtd"><svg class="icon" width="200px" height="200.00px" viewBox="0 0 1024 1024" version="1.1" xmlns="http://www.w3.org/2000/svg"><path fill="#000000" d="M329.106286 771.913143h3.84l-69.412572 111.542857c-8.996571 14.482286-1.28 31.817143 16.384 31.817143h20.260572c10.276571 0 16.091429-3.510857 21.540571-12.214857l17.993143-29.257143h342.966857l17.993143 29.257143c5.485714 8.704 11.593143 12.214857 21.869714 12.214857h18.651429c17.664 0 26.038857-17.664 16.384-32.768l-68.132572-110.592h5.12c64.950857 0 102.546286-43.044571 102.546286-105.728v-237.238857c0-87.734857-9.984-161.645714-22.198857-213.101715-14.774857-68.132571-54.966857-111.542857-123.099429-119.881142-24.100571-2.925714-76.507429-7.058286-139.812571-7.058286-63.305143 0-116.041143 4.169143-139.812571 7.058286-68.169143 8.374857-108.324571 51.748571-123.428572 119.881142-12.214857 51.456-21.869714 125.366857-21.869714 213.101715v237.238857c0 62.683429 37.302857 105.728 102.217143 105.728zM428.434286 200.777143c-13.531429 0-22.491429-9.325714-22.491429-22.820572s8.996571-22.491429 22.491429-22.491428h167.131428c13.531429 0 22.491429 8.996571 22.491429 22.491428 0 13.531429-8.996571 22.820571-22.491429 22.820572h-167.131428zM512 552.704c-76.8-0.621714-144.018286-3.84-178.395429-8.045714-20.882286-2.56-29.878857-16.054857-29.878857-35.657143v-78.116572c0-63.963429 7.058286-118.272 11.885715-140.434285 3.218286-15.433143 13.165714-26.697143 28.598857-28.635429 35.986286-4.498286 82.944-6.729143 167.789714-7.058286 84.224-0.329143 131.474286 2.56 166.802286 7.058286 15.762286 1.938286 26.038857 13.165714 29.257143 28.598857 4.827429 22.198857 11.885714 76.507429 11.885714 140.470857v78.116572c0 19.931429-8.996571 33.426286-29.549714 35.693714-48.859429 5.449143-115.712 8.045714-178.395429 8.045714z m152.685714 146.578286c-25.709714 0-45.348571-19.602286-45.348571-45.348572 0-25.673143 19.638857-45.275429 45.348571-45.275428s45.348571 19.602286 45.348572 45.312c0 25.709714-19.968 45.348571-45.348572 45.348571z m-305.993143-0.329143c-25.746286 0-44.690286-18.944-44.690285-44.982857s18.944-44.982857 44.690285-44.982857c26.038857 0 45.312 18.944 45.312 44.982857s-19.602286 44.982857-45.348571 44.982857z m14.445715 121.197714l29.915428-48.237714h216.32l29.878857 48.237714h-276.114285z" /></svg>