<?xml version="1.0" standalone="no"?><!DOCTYPE svg PUBLIC "-//W3C//DTD SVG 1.1//EN" "http://www.w3.org/Graphics/SVG/1.1/DTD/svg11.dtd"><svg class="icon" width="200px" height="200.00px" viewBox="0 0 1024 1024" version="1.1" xmlns="http://www.w3.org/2000/svg"><path fill="#000000" d="M63.634286 655.250286c0 68.461714 35.986286 104.155429 105.069714 104.155428h625.188571c107.995429 0 166.509714-62.061714 166.509715-139.190857 0-46.592-21.577143-96.768-65.572572-140.434286l-132.132571-131.181714c-84.845714-83.894857-139.483429-108.982857-239.762286-108.982857H168.704c-69.12 0-105.106286 35.693714-105.106286 104.155429v311.478857z m352.256-153.636572V386.194286c0-18.322286 10.934857-29.257143 29.257143-29.257143h79.725714c93.184 0 133.046857 11.885714 178.066286 56.576l71.021714 70.363428c19.273143 19.309714 8.374857 46.628571-12.544 46.628572h-316.269714c-18.322286 0-29.257143-11.264-29.257143-28.928z" /></svg>