<?xml version="1.0" standalone="no"?><!DOCTYPE svg PUBLIC "-//W3C//DTD SVG 1.1//EN" "http://www.w3.org/Graphics/SVG/1.1/DTD/svg11.dtd"><svg class="icon" width="200px" height="200.00px" viewBox="0 0 1024 1024" version="1.1" xmlns="http://www.w3.org/2000/svg"><path fill="#000000" d="M244.882286 763.904h338.139428c69.449143 0 109.312-38.912 109.312-107.044571V341.211429c0-68.169143-37.302857-107.081143-106.715428-107.081143H244.882286c-66.852571 0-109.275429 38.912-109.275429 107.044571v317.915429c0 67.803429 40.192 104.777143 109.275429 104.777143z m494.701714-161.353143l109.933714 94.500572c13.165714 11.556571 27.318857 18.944 40.813715 18.944 26.038857 0 43.702857-18.651429 43.702857-46.921143V330.605714c0-28.269714-17.664-46.921143-43.702857-46.921143-13.824 0-27.648 7.387429-40.813715 18.944l-109.933714 94.500572v205.421714z" /></svg>