<?xml version="1.0" standalone="no"?><!DOCTYPE svg PUBLIC "-//W3C//DTD SVG 1.1//EN" "http://www.w3.org/Graphics/SVG/1.1/DTD/svg11.dtd"><svg class="icon" width="200px" height="200.00px" viewBox="0 0 1024 1024" version="1.1" xmlns="http://www.w3.org/2000/svg"><path fill="#000000" d="M727.698286 833.645714c9.947429 9.984 26.331429 9.984 36.315428 0a26.112 26.112 0 0 0 0-36.315428L132.388571 166.363429a25.819429 25.819429 0 0 0-36.352 0 26.404571 26.404571 0 0 0 0 36.315428l631.588572 630.966857zM585.618286 234.203429H257.097143l432.347428 432.274285a172.982857 172.982857 0 0 0 2.889143-32.768V341.211429c0-68.132571-37.302857-107.008-106.715428-107.008z m153.965714 368.347428l109.604571 94.500572c13.494857 11.556571 27.318857 18.944 41.142858 18.944 26.038857 0 43.702857-18.651429 43.702857-46.921143V330.605714c0-28.269714-17.664-46.921143-43.702857-46.921143-13.824 0-27.648 7.387429-41.142858 18.980572l-109.604571 94.500571v205.385143zM244.882286 763.904h355.84L141.385143 304.566857c-3.510857 8.996571-5.485714 23.478857-5.485714 37.632v316.269714c0 67.84 39.570286 105.435429 108.982857 105.435429z" /></svg>