<?xml version="1.0" standalone="no"?><!DOCTYPE svg PUBLIC "-//W3C//DTD SVG 1.1//EN" "http://www.w3.org/Graphics/SVG/1.1/DTD/svg11.dtd"><svg class="icon" width="200px" height="200.00px" viewBox="0 0 1024 1024" version="1.1" xmlns="http://www.w3.org/2000/svg"><path fill="#000000" d="M426.496 328.667429c4.498286 0 7.058286-3.218286 8.045714-7.387429 10.605714-53.357714 9.947429-54.637714 65.572572-65.572571 4.827429-0.950857 7.68-3.510857 7.68-8.045715 0-4.498286-2.852571-7.058286-7.350857-8.045714-56.246857-11.556571-55.954286-12.8-65.901715-65.865143-0.658286-4.169143-3.547429-7.058286-8.045714-7.058286s-7.058286 2.889143-7.68 7.058286c-10.971429 53.686857-9.984 55.588571-65.938286 65.901714-4.498286 0.621714-7.387429 3.510857-7.387428 8.045715 0 4.169143 2.925714 7.058286 7.387428 8.045714 55.954286 11.227429 55.588571 12.507429 65.901715 65.536 0.658286 4.169143 3.218286 7.387429 7.716571 7.387429z m275.456 114.468571c5.156571 0 8.374857-3.876571 9.325714-8.704 11.593143-62.354286 10.934857-65.572571 76.507429-76.8 5.485714-0.987429 8.996571-4.205714 8.996571-9.362286 0-5.12-3.547429-8.338286-8.667428-9.289143-65.901714-11.922286-66.852571-14.811429-76.8-76.836571-0.987429-5.12-4.205714-8.667429-9.362286-8.667429-5.12 0-8.667429 3.510857-9.325714 8.667429-11.227429 62.683429-10.898286 66.56-77.129143 76.8-4.827429 0.658286-8.667429 4.205714-8.667429 9.325714 0.329143 5.156571 3.510857 8.374857 8.667429 9.325715 66.194286 11.593143 66.852571 14.811429 77.165714 76.8 0.621714 4.864 4.169143 8.704 9.289143 8.704zM249.417143 539.501714c5.156571 0 8.704-3.547429 9.325714-8.667428 10.276571-62.390857 11.264-65.572571 76.8-76.836572 5.156571-0.950857 8.704-4.169143 8.704-9.325714 0-5.12-3.547429-8.338286-8.338286-9.325714-66.194286-11.885714-66.194286-14.774857-77.165714-76.8-0.950857-5.12-4.169143-8.704-9.325714-8.704-5.12 0-8.338286 3.547429-9.325714 8.704-10.24 62.683429-10.898286 65.865143-76.8 76.8-5.12 0.987429-8.667429 4.205714-8.667429 9.325714s3.510857 8.374857 8.338286 9.325714c66.194286 11.556571 66.194286 15.104 77.165714 77.165715 0.950857 4.790857 4.169143 8.338286 9.289143 8.338285z m550.290286 275.748572c15.725714 16.091429 42.788571 15.798857 58.185142 0a42.057143 42.057143 0 0 0 0-58.148572l-305.371428-306.944c-15.725714-15.762286-42.715429-15.762286-58.148572 0a42.057143 42.057143 0 0 0 0 58.148572l305.371429 306.980571z m-395.337143 8.045714c6.729143 0 11.556571-4.461714 12.507428-11.885714 10.313143-86.784 14.482286-89.344 102.875429-103.131429 8.045714-1.316571 12.836571-5.485714 12.836571-12.580571 0-6.729143-4.790857-11.227429-11.227428-12.507429-89.673143-17.371429-94.171429-16.713143-104.484572-103.204571-0.950857-7.387429-5.778286-11.885714-12.507428-11.885715-6.765714 0-11.593143 4.498286-12.544 11.593143-10.934857 88.064-14.153143 91.282286-104.155429 103.497143a12.617143 12.617143 0 0 0-11.556571 12.507429c0 6.765714 4.827429 11.264 11.227428 12.544 90.660571 17.371429 93.257143 17.371429 104.484572 103.862857 0.950857 6.729143 5.778286 11.227429 12.544 11.227428z m410.770285-34.048l-181.613714-181.613714 18.322286-18.285715 181.613714 181.906286c6.765714 6.436571 8.667429 14.153143 2.267429 20.882286-6.107429 5.778286-13.824 4.169143-20.589715-2.889143z" /></svg>