<?xml version="1.0" standalone="no"?><!DOCTYPE svg PUBLIC "-//W3C//DTD SVG 1.1//EN" "http://www.w3.org/Graphics/SVG/1.1/DTD/svg11.dtd"><svg class="icon" width="200px" height="200.00px" viewBox="0 0 1024 1024" version="1.1" xmlns="http://www.w3.org/2000/svg"><path fill="#000000" d="M674.340571 499.675429c0-108.324571-40.521143-207.981714-111.250285-281.892572-12.507429-13.531429-30.829714-12.544-41.142857-0.987428-10.605714 11.593143-8.667429 28.306286 3.547428 41.142857 60.745143 63.634286 93.878857 148.845714 93.878857 241.737143s-33.133714 178.066286-93.878857 241.737142c-12.214857 12.8-14.153143 29.549714-3.547428 40.777143 10.313143 11.922286 28.635429 12.873143 41.142857-0.621714 70.729143-74.24 111.250286-173.568 111.250285-281.892571z m-117.028571 0c0-77.165714-27.648-148.845714-77.165714-202.825143-12.8-13.824-31.451429-14.153143-42.715429-1.28-10.605714 11.885714-7.716571 27.648 4.498286 41.142857 38.875429 44.032 60.416 100.571429 60.416 162.962286 0 62.025143-21.540571 118.930286-60.416 162.962285-12.214857 13.494857-15.104 28.891429-4.498286 41.142857 11.227429 12.544 29.878857 12.544 42.752-1.609142 49.481143-53.686857 77.165714-125.366857 77.165714-202.496z m-117.321143 0a188.708571 188.708571 0 0 0-40.813714-117.650286c-11.556571-14.774857-31.817143-15.104-43.081143-2.56-10.605714 11.885714-7.058286 26.331429 3.876571 41.435428 16.384 21.577143 25.051429 48.859429 25.051429 78.774858 0 29.878857-8.667429 57.197714-25.051429 78.738285-10.971429 14.811429-14.482286 29.257143-3.876571 41.142857 11.264 12.873143 31.524571 12.544 43.081143-2.56a187.099429 187.099429 0 0 0 40.813714-117.321142z" /></svg>