<?xml version="1.0" standalone="no"?><!DOCTYPE svg PUBLIC "-//W3C//DTD SVG 1.1//EN" "http://www.w3.org/Graphics/SVG/1.1/DTD/svg11.dtd"><svg class="icon" width="200px" height="200.00px" viewBox="0 0 1024 1024" version="1.1" xmlns="http://www.w3.org/2000/svg"><path fill="#000000" d="M511.670857 832.365714c182.272 0 332.690286-150.454857 332.690286-332.690285 0-181.942857-150.747429-332.361143-333.019429-332.361143-181.906286 0-332.032 150.418286-332.032 332.361143 0 182.235429 150.454857 332.690286 332.361143 332.690285z m-140.141714-332.690285c0-73.289143 21.540571-144.969143 60.416-203.154286 8.374857-12.836571 24.137143-16.091429 36.352-7.68 12.544 8.338286 14.774857 24.100571 6.4 37.266286-33.718857 48.530286-51.748571 109.933714-51.748572 173.568 0 63.341714 18.322286 125.366857 51.748572 173.897142 8.374857 13.165714 6.144 28.928-6.4 37.302858-11.885714 8.045714-27.648 4.790857-36.315429-8.045715-38.912-57.526857-60.452571-129.206857-60.452571-203.154285z m103.168 0c0-54.637714 15.762286-106.715429 44.690286-147.2 8.704-12.214857 23.478857-15.433143 35.693714-7.094858 12.214857 7.716571 15.104 24.137143 6.107428 37.924572-21.869714 31.524571-34.742857 73.289143-34.742857 116.370286 0 43.410286 12.873143 85.211429 34.742857 116.662857 8.996571 13.824 6.107429 30.244571-6.107428 37.961143-12.214857 8.338286-27.026286 4.827429-35.693714-7.387429-28.891429-40.850286-44.690286-93.257143-44.690286-147.236571z m103.497143 0c0-33.097143 10.313143-66.852571 27.977143-91.611429a25.965714 25.965714 0 0 1 35.364571-6.729143c13.165714 8.667429 15.725714 25.051429 5.778286 39.204572-10.934857 15.104-17.334857 36.644571-17.334857 59.136 0 22.198857 6.4 44.032 17.334857 59.465142 9.654857 14.153143 7.094857 30.208-5.778286 38.875429a25.6 25.6 0 0 1-35.364571-6.729143c-17.664-23.478857-27.940571-57.197714-27.940572-91.611428z" /></svg>