<?xml version="1.0" standalone="no"?><!DOCTYPE svg PUBLIC "-//W3C//DTD SVG 1.1//EN" "http://www.w3.org/Graphics/SVG/1.1/DTD/svg11.dtd"><svg class="icon" width="200px" height="200.00px" viewBox="0 0 1024 1024" version="1.1" xmlns="http://www.w3.org/2000/svg"><path fill="#000000" d="M511.670857 832.365714c182.272 0 332.690286-150.454857 332.690286-332.690285 0-181.942857-150.747429-332.361143-333.019429-332.361143-181.906286 0-332.032 150.418286-332.032 332.361143 0 182.235429 150.454857 332.690286 332.361143 332.690285z m141.750857-332.690285c0 73.947429-21.211429 145.627429-60.416 203.154285-8.704 12.836571-24.429714 16.091429-36.315428 8.045715-12.544-8.374857-14.811429-24.137143-6.436572-37.302858 33.426286-48.530286 51.748571-110.555429 51.748572-173.897142 0-63.634286-17.993143-125.037714-51.748572-173.568-8.374857-13.165714-6.107429-28.928 6.436572-37.302858 12.214857-8.338286 27.940571-5.12 36.315428 7.716572 39.204571 58.185143 60.416 129.865143 60.416 203.154286z m-103.168 0c0 54.016-15.725714 106.422857-44.690285 147.236571-8.338286 12.214857-23.442286 15.725714-35.657143 7.387429-12.214857-7.716571-15.140571-24.137143-6.107429-37.924572 22.162286-31.524571 34.706286-73.289143 34.706286-116.662857 0-43.117714-12.544-84.882286-34.742857-116.406857-8.96-13.787429-6.070857-30.208 6.144-37.924572 12.214857-8.338286 27.318857-5.12 35.657143 7.094858 28.928 40.484571 44.690286 92.525714 44.690285 147.2z m-103.497143 0c0 34.377143-10.276571 68.132571-27.977142 91.611428a25.6 25.6 0 0 1-35.364572 6.729143c-12.836571-8.667429-15.396571-24.722286-5.778286-38.875429 10.934857-15.433143 17.371429-37.302857 17.371429-59.465142 0-22.491429-6.436571-44.032-17.371429-59.136-9.947429-14.153143-7.387429-30.537143 5.778286-39.204572a25.965714 25.965714 0 0 1 35.364572 6.729143c17.700571 24.758857 27.977143 58.514286 27.977142 91.611429z" /></svg>