<?xml version="1.0" standalone="no"?><!DOCTYPE svg PUBLIC "-//W3C//DTD SVG 1.1//EN" "http://www.w3.org/Graphics/SVG/1.1/DTD/svg11.dtd"><svg class="icon" width="200px" height="200.00px" viewBox="0 0 1024 1024" version="1.1" xmlns="http://www.w3.org/2000/svg"><path fill="#000000" d="M456.411429 841.984a28.452571 28.452571 0 0 0 28.891428-28.269714V185.307429a28.489143 28.489143 0 0 0-28.891428-28.269715 27.867429 27.867429 0 0 0-27.977143 28.269715V813.714286c0 15.433143 11.885714 28.269714 27.940571 28.269714z m193.170285-268.361143a63.414857 63.414857 0 0 1 56.868572-3.547428V256.365714a28.745143 28.745143 0 0 0-28.598857-28.928c-16.091429 0-28.269714 13.165714-28.269715 28.891429v317.293714z m-303.762285 143.36c16.091429 0 28.598857-12.873143 28.598857-28.306286V310.345143a28.452571 28.452571 0 0 0-28.598857-28.598857 28.16 28.16 0 0 0-28.269715 28.598857v378.331428c0 15.433143 12.214857 28.306286 28.269715 28.306286z m221.476571-41.801143a28.16 28.16 0 0 0 28.598857-27.977143V351.817143a28.452571 28.452571 0 0 0-28.598857-28.598857 28.16 28.16 0 0 0-28.306286 28.598857v295.387428c0 15.433143 12.214857 27.977143 28.306286 27.977143z m-332.068571-87.771428c16.091429 0 28.635429-12.836571 28.635428-28.598857v-118.601143a28.745143 28.745143 0 0 0-28.598857-28.891429c-16.091429 0-28.306286 13.165714-28.306286 28.891429v118.601143c0 15.725714 12.214857 28.635429 28.306286 28.635428z m554.496 126.976c31.488 0 53.979429-24.758857 53.979428-56.868572v-126.646857c0-32.475429-22.491429-56.905143-53.979428-56.905143-31.817143 0-54.345143 24.429714-54.345143 56.905143v126.646857c0 32.438857 22.528 56.868571 54.345143 56.868572z m-80.384 133.083428h160.731428a17.92 17.92 0 0 0 18.651429-18.651428 18.139429 18.139429 0 0 0-18.651429-18.944h-62.025143v-29.622857c63.963429-7.68 107.995429-55.588571 107.995429-121.161143v-29.257143a18.651429 18.651429 0 0 0-18.322286-17.993143c-10.276571 0-18.980571 8.374857-18.980571 18.029714v29.257143c0 50.761143-37.302857 87.076571-89.014857 87.076572-52.077714 0-89.380571-36.315429-89.380572-87.076572v-29.257143a18.761143 18.761143 0 0 0-18.651428-17.993143 18.761143 18.761143 0 0 0-18.651429 17.993143v29.257143c0 65.536 44.397714 113.737143 108.361143 121.161143v29.586286h-62.061714a18.432 18.432 0 0 0-18.944 18.944c0 10.934857 8.045714 18.651429 18.944 18.651428z" /></svg>