<?xml version="1.0" standalone="no"?><!DOCTYPE svg PUBLIC "-//W3C//DTD SVG 1.1//EN" "http://www.w3.org/Graphics/SVG/1.1/DTD/svg11.dtd"><svg class="icon" width="200px" height="200.00px" viewBox="0 0 1024 1024" version="1.1" xmlns="http://www.w3.org/2000/svg"><path fill="#000000" d="M742.765714 301.677714c8.045714 0 14.153143-7.058286 13.165715-15.433143l-2.56-26.331428 22.198857 15.396571c6.107429 4.498286 15.104 2.925714 19.273143-3.84 4.498286-6.765714 1.316571-16.384-6.729143-19.602285l-23.478857-11.264 24.137142-11.556572a13.238857 13.238857 0 0 0 6.4-18.980571c-3.510857-7.058286-13.494857-8.667429-20.224-3.84l-21.211428 15.104 2.194286-25.709715c0.987429-8.374857-4.754286-15.762286-13.165715-15.762285a13.385143 13.385143 0 0 0-13.494857 15.433143l2.267429 26.331428-21.869715-15.396571c-6.729143-4.827429-15.725714-3.218286-19.602285 3.84a13.421714 13.421714 0 0 0 6.436571 19.273143l24.137143 11.264-23.808 11.264a13.312 13.312 0 0 0-6.765714 19.602285c3.547429 6.729143 12.873143 8.338286 19.602285 3.547429l21.869715-15.140572-1.938286 26.368c-0.621714 8.667429 5.12 15.433143 13.165714 15.433143zM210.212571 434.102857a472.978286 472.978286 0 0 1 139.812572-21.833143c58.843429 0 102.217143 9.289143 158.171428 9.289143 58.806857 0 96.731429-40.484571 96.731429-93.184 0-54.016-40.813714-92.891429-92.562286-92.891428-36.937143 0-70.070857 22.784-84.553143 54.308571-6.107429 12.214857-3.510857 26.038857 8.996572 32.475429 11.593143 6.4 26.038857 2.56 33.755428-11.922286a46.665143 46.665143 0 0 1 41.801143-26.989714c25.380571 0 44.982857 17.371429 44.982857 44.982857 0 27.648-19.273143 45.348571-49.152 45.348571-52.736 0-97.097143-9.325714-158.171428-9.325714-52.370286 0-105.728 9.325714-154.258286 24.137143-15.104 4.132571-21.211429 17.334857-17.700571 30.171428 3.876571 12.873143 16.091429 19.931429 32.182857 15.433143z m504.32 154.294857c76.178286 0 130.523429-48.859429 130.523429-117.028571 0-66.816-51.456-116.004571-116.041143-116.004572-57.234286 0-101.595429 38.875429-111.213714 91.282286-3.218286 14.445714 4.498286 27.318857 17.334857 29.878857 13.165714 2.925714 25.709714-4.827429 29.586286-21.211428 5.778286-31.158857 32.768-52.370286 64.292571-52.370286 37.924571 0 68.132571 27.940571 68.132572 68.461714 0 41.142857-32.475429 69.412571-82.614858 69.412572-98.011429 0-204.726857-55.954286-333.641142-55.954286-66.56 0-127.268571 10.605714-185.453715 30.573714-14.482286 4.827429-20.882286 17.664-17.371428 30.537143 3.876571 12.836571 16.713143 20.224 32.182857 14.774857 53.028571-19.273143 107.958857-27.977143 170.642286-27.977143 127.634286 0 224.036571 55.588571 333.641142 55.588572z m-205.714285 230.144c50.797714 0 90.660571-38.253714 90.660571-92.269714 0-77.787429-79.396571-120.832-224.365714-120.832a579.657143 579.657143 0 0 0-179.346286 29.878857c-14.811429 5.12-21.211429 17.993143-17.700571 30.537143 3.876571 13.165714 16.713143 20.589714 32.182857 15.104a500.224 500.224 0 0 1 164.864-27.977143c114.432 0 176.457143 28.635429 176.457143 73.289143 0 27.648-18.944 44.361143-42.752 44.361143-23.478857 0-37.924571-15.433143-42.752-40.155429-3.547429-13.165714-14.445714-22.528-29.257143-19.931428-15.104 2.230857-21.211429 16.384-17.993143 30.866285 8.374857 43.373714 41.801143 77.129143 90.002286 77.129143z m234.020571-44.982857c8.045714 0 14.116571-6.765714 13.165714-15.140571l-2.56-26.331429 22.162286 15.104a13.385143 13.385143 0 0 0 19.273143-3.547428 13.385143 13.385143 0 0 0-6.729143-19.602286l-23.478857-11.264 24.137143-11.556572a13.531429 13.531429 0 0 0 6.4-19.273142c-3.510857-6.765714-13.494857-8.704-20.224-3.547429l-21.211429 15.104 2.194286-26.038857c0.987429-8.374857-4.754286-15.433143-13.165714-15.433143a13.385143 13.385143 0 0 0-13.494857 15.433143l2.267428 26.331428-21.869714-15.396571c-6.729143-4.827429-15.725714-3.547429-19.602286 3.510857a13.275429 13.275429 0 0 0 6.436572 19.309714l24.137142 11.556572-23.808 11.264a13.312 13.312 0 0 0-6.765714 19.602286c3.547429 6.765714 12.873143 8.374857 19.602286 3.547428l21.869714-15.104-1.938286 26.331429c-0.621714 8.374857 5.12 15.104 13.165715 15.104z" /></svg>