<?xml version="1.0" standalone="no"?><!DOCTYPE svg PUBLIC "-//W3C//DTD SVG 1.1//EN" "http://www.w3.org/Graphics/SVG/1.1/DTD/svg11.dtd"><svg class="icon" width="200px" height="200.00px" viewBox="0 0 1024 1024" version="1.1" xmlns="http://www.w3.org/2000/svg"><path fill="#000000" d="M782.994286 739.474286c10.24 9.947429 26.660571 9.654857 36.278857 0a25.417143 25.417143 0 0 0 0-36.022857L240.713143 124.891429a25.526857 25.526857 0 0 0-36.315429 0 25.709714 25.709714 0 0 0 0 36.022857l578.56 578.56zM502.966857 331.264c3.84-0.658286 8.338286-0.987429 12.544-0.987429 118.601143 2.267429 218.550857 47.908571 297.618286 128.914286a16.237714 16.237714 0 0 0 23.771428-0.658286l45.019429-45.312a14.518857 14.518857 0 0 0 1.28-20.882285C804.498286 297.837714 661.467429 228.388571 512 228.388571c-32.768 0-65.572571 3.218286-100.937143 10.605715l91.940572 92.269714zM273.810286 287.817143c-53.357714 27.648-99.328 63.634286-133.376 104.484571-5.12 6.107429-5.12 14.445714 1.28 20.882286l44.982857 45.348571a16.457143 16.457143 0 0 0 24.429714-0.365714c40.228571-42.422857 85.833143-74.569143 137.581714-95.780571L273.810286 287.853714z m460.288 274.176l18.980571-18.944c6.436571-6.107429 6.729143-13.824 1.28-20.260572-33.097143-40.813714-89.673143-75.849143-150.747428-91.282285l130.486857 130.486857z m-315.611429-130.194286c-62.061714 17.042286-114.761143 50.176-149.174857 90.989714-5.485714 6.436571-4.827429 14.482286 1.28 20.260572l50.468571 49.481143c7.716571 7.387429 17.993143 6.765714 25.417143-1.28 38.253714-41.801143 98.011429-70.4 159.414857-72.009143l-87.405714-87.405714zM512 606.427429c-45.970286 0-87.405714 24.137143-109.604571 54.345142-3.84 5.778286-2.267429 12.836571 3.547428 18.285715l78.738286 75.885714c12.836571 12.544 19.602286 16.091429 27.318857 16.091429 8.045714 0 14.774857-3.876571 27.648-16.091429l78.738286-75.885714a15.433143 15.433143 0 0 0 1.938285-20.845715c-22.491429-28.635429-63.012571-51.785143-108.324571-51.785142z" /></svg>