<?xml version="1.0" standalone="no"?><!DOCTYPE svg PUBLIC "-//W3C//DTD SVG 1.1//EN" "http://www.w3.org/Graphics/SVG/1.1/DTD/svg11.dtd"><svg class="icon" width="200px" height="200.00px" viewBox="0 0 1024 1024" version="1.1" xmlns="http://www.w3.org/2000/svg"><path fill="#000000" d="M512.329143 608.950857c22.491429 0 36.315429-14.116571 36.937143-37.595428 1.316571-105.106286 3.547429-233.325714 4.205714-334.921143 0-23.478857-17.700571-40.521143-41.472-40.521143-23.771429 0-41.472 17.042286-41.472 40.521143 0.987429 101.558857 3.218286 229.814857 4.498286 334.921143 0.658286 23.478857 14.482286 37.595429 37.302857 37.595428z m-90.331429-372.187428c-115.053714 20.845714-219.209143 78.738286-281.6 155.538285-5.12 5.814857-5.12 14.482286 0.987429 20.918857l45.348571 45.970286a16.237714 16.237714 0 0 0 24.393143-0.658286c58.843429-62.354286 131.803429-102.546286 212.809143-118.601142l-1.938286-103.168z m179.346286 0.292571l-1.901714 103.204571c81.298286 15.433143 153.6 56.246857 213.723428 118.930286 6.765714 6.729143 16.713143 6.4 23.771429-0.658286l45.019428-45.348571c6.436571-6.4 6.436571-15.067429 1.28-20.845714-62.976-76.507429-166.180571-135.68-281.892571-155.282286z m-2.56 192.877714L596.845714 537.6c32.182857 12.214857 60.452571 31.817143 81.956572 54.966857 6.765714 7.387429 16.091429 7.094857 23.771428-0.329143l50.468572-49.152a14.299429 14.299429 0 0 0 1.316571-20.260571c-35.364571-42.422857-90.953143-77.458286-155.574857-92.891429z m-173.568 0c-64.621714 16.091429-119.881143 49.810286-155.904 92.891429-5.485714 6.107429-5.12 14.153143 1.28 20.260571l50.834286 49.810286c7.68 7.387429 17.627429 6.729143 25.051428-1.609143 20.845714-22.820571 49.152-41.801143 80.347429-54.016l-1.609143-107.337143zM512 772.571429c30.866286 0 55.954286-24.429714 55.954286-54.966858 0-30.537143-25.088-54.966857-55.954286-54.966857s-56.246857 24.429714-56.246857 54.966857c0 30.537143 25.380571 54.966857 56.246857 54.966858z" /></svg>