<?xml version="1.0" standalone="no"?><!DOCTYPE svg PUBLIC "-//W3C//DTD SVG 1.1//EN" "http://www.w3.org/Graphics/SVG/1.1/DTD/svg11.dtd"><svg class="icon" width="200px" height="200.00px" viewBox="0 0 1024 1024" version="1.1" xmlns="http://www.w3.org/2000/svg"><path fill="#000000" d="M181.906286 843.593143c57.197714 56.576 134.656 56.283429 189.622857 0.658286 50.797714-51.090286 64.292571-113.773714 150.747428-225.316572l135.68 135.643429 1.901715 31.817143c0.658286 10.934857 8.045714 22.491429 19.273143 28.928l105.764571 59.794285c10.605714 5.778286 19.931429 7.058286 27.648-0.658285l43.702857-43.702858c7.058286-7.387429 6.107429-17.042286 0-27.977142l-59.465143-105.106286a36.681143 36.681143 0 0 0-29.257143-19.273143l-31.817142-1.938286-142.08-141.750857a1472.731429 1472.731429 0 0 1 45.348571-47.250286c69.12 30.537143 151.405714 18.980571 206.006857-35.986285 60.123429-59.794286 69.449143-154.916571 22.528-230.144l-36.644571 36.644571v0.329143L779.117714 309.394286c-8.045714 8.374857-17.993143 8.667429-26.368 0l-35.986285-35.986286c-9.033143-8.996571-9.325714-18.980571-1.28-27.026286l51.419428-51.419428 36.937143-36.644572c-74.861714-46.921143-169.691429-37.924571-229.814857 22.198857-47.250286 47.542857-62.683429 115.053714-46.262857 177.078858L351.597714 180.809143c-47.542857-47.542857-98.669714-47.908571-145.261714-1.28l-45.348571 45.641143c-46.592 46.299429-46.262857 97.389714 1.28 144.969143l179.712 179.675428c-73.289143 47.579429-120.246857 64-160.731429 103.862857-55.588571 55.222857-55.954286 132.388571 0.658286 189.952zM677.851429 301.348571l46.628571 46.299429c24.100571 24.137143 54.966857 24.758857 77.787429 1.938286l43.373714-43.739429c5.485714 40.521143-7.058286 81.005714-36.315429 110.262857-52.406857 52.406857-139.190857 49.810286-194.779428-5.12-55.296-55.296-57.526857-142.738286-4.827429-194.816 28.891429-28.891429 69.412571-41.435429 109.604572-36.315428l-43.410286 43.081143c-23.771429 23.771429-22.820571 54.308571 1.938286 78.409142z m-281.234286 92.269715L274.139429 270.189714a14.848 14.848 0 0 1 0-21.211428 15.213714 15.213714 0 0 1 21.540571 0l122.770286 122.770285a15.433143 15.433143 0 0 1-0.292572 22.198858 15.542857 15.542857 0 0 1-21.577143-0.365715zM353.206857 436.662857L230.107429 314.514286a16.018286 16.018286 0 0 1 0.329142-22.198857 15.433143 15.433143 0 0 1 21.211429 0l123.428571 123.136a14.848 14.848 0 0 1 0 21.211428 15.067429 15.067429 0 0 1-21.869714 0z m225.645714 9.618286c5.778286 5.485714 11.593143 10.971429 17.664 15.433143-211.163429 217.270857-189.293714 271.616-262.582857 345.234285-33.426286 33.718857-79.067429 35.035429-114.761143-0.365714-35.657143-36.278857-34.048-81.627429-0.621714-115.053714 73.581714-73.289143 127.597714-51.419429 344.868572-262.582857 4.827429 6.107429 9.984 11.885714 15.433142 17.334857z m-303.104 342.308571a38.034286 38.034286 0 1 0-0.292571-76.105143 38.034286 38.034286 0 0 0 0.292571 76.141715z" /></svg>