<?xml version="1.0" standalone="no"?><!DOCTYPE svg PUBLIC "-//W3C//DTD SVG 1.1//EN" "http://www.w3.org/Graphics/SVG/1.1/DTD/svg11.dtd"><svg class="icon" width="200px" height="200.00px" viewBox="0 0 1024 1024" version="1.1" xmlns="http://www.w3.org/2000/svg"><path fill="#000000" d="M743.424 755.2c100.278857 0 179.346286-73.581714 179.346286-165.522286 0-68.132571-38.875429-128.877714-102.838857-155.574857 0.329143-145.590857-104.484571-250.404571-239.177143-250.404571-85.467429 0-149.76 44.361143-189.952 102.546285C309.174857 264.411429 223.378286 325.156571 220.16 415.817143c-73.618286 13.165714-118.930286 79.396571-118.930286 159.744 0 98.048 85.467429 179.675429 197.997715 179.675428h444.196571z m-294.4-144.310857c-10.971429 10.605714-26.368 8.667429-36.681143-0.950857a25.234286 25.234286 0 0 1-0.950857-36.315429l62.683429-63.341714-62.683429-63.012572c-10.605714-10.898286-8.374857-26.331429 0.950857-36.315428 9.654857-10.24 25.746286-11.885714 36.644572-0.950857L512 472.685714l63.012571-62.683428c11.227429-10.934857 26.697143-8.667429 36.644572 0.950857a25.234286 25.234286 0 0 1 0.950857 36.315428l-62.683429 63.012572 62.683429 63.341714c10.605714 10.898286 8.667429 26.331429-0.950857 36.608a25.6 25.6 0 0 1-36.644572 0.658286L512 548.205714l-63.012571 62.683429z" /></svg>