<?xml version="1.0" standalone="no"?><!DOCTYPE svg PUBLIC "-//W3C//DTD SVG 1.1//EN" "http://www.w3.org/Graphics/SVG/1.1/DTD/svg11.dtd"><svg class="icon" width="200px" height="200.00px" viewBox="0 0 1024 1024" version="1.1" xmlns="http://www.w3.org/2000/svg"><path fill="#000000" d="M915.748571 499.346286c-0.365714-37.924571-52.114286-67.803429-115.419428-67.803429H668.16c-17.993143 0-24.722286-3.218286-35.657143-15.104l-217.965714-235.629714a32.804571 32.804571 0 0 0-24.722286-11.556572H348.379429c-8.338286 0-13.165714 7.68-9.325715 16.384l112.822857 245.577143-164.864 18.322286-58.843428-104.777143c-4.498286-8.045714-11.227429-11.593143-21.833143-11.593143h-14.482286c-8.667429 0-14.445714 5.814857-14.445714 14.482286v303.433143c0 8.667429 5.778286 14.445714 14.445714 14.445714h14.482286c10.605714 0 17.334857-3.510857 21.833143-11.556571l58.843428-105.106286 164.864 18.651429-112.822857 245.540571c-3.84 8.704 0.987429 16.420571 9.325715 16.420571h41.472c9.325714 0 17.700571-4.205714 24.758857-11.593142l217.929143-235.593143c10.934857-11.885714 17.664-15.104 35.693714-15.104h132.096c63.305143 0 115.053714-30.208 115.382857-67.84z" /></svg>