<?xml version="1.0" standalone="no"?><!DOCTYPE svg PUBLIC "-//W3C//DTD SVG 1.1//EN" "http://www.w3.org/Graphics/SVG/1.1/DTD/svg11.dtd"><svg class="icon" width="200px" height="200.00px" viewBox="0 0 1024 1024" version="1.1" xmlns="http://www.w3.org/2000/svg"><path fill="#000000" d="M243.273143 270.811429a19.894857 19.894857 0 0 0 13.165714-4.498286l113.810286-83.236572a19.2 19.2 0 0 0 8.338286-14.774857c0-7.094857-3.510857-13.165714-9.289143-18.322285-13.824-11.593143-36.022857-18.029714-56.576-18.029715-52.077714 0-94.171429 41.142857-94.171429 92.269715 0 13.165714 2.230857 25.380571 5.778286 33.426285 3.510857 8.045714 10.605714 13.165714 18.944 13.165715z m537.124571 0c8.338286 0 15.104-5.485714 18.944-13.165715 3.547429-7.716571 5.485714-20.260571 5.485715-33.426285 0-51.126857-41.801143-92.269714-93.878858-92.269715-20.845714 0-42.752 6.436571-56.539428 18.029715-5.814857 5.12-9.325714 11.227429-9.325714 18.285714 0 5.485714 2.889143 10.971429 8.338285 14.811428l113.773715 83.236572a19.894857 19.894857 0 0 0 13.165714 4.498286zM240.054857 802.450286a27.867429 27.867429 0 0 0 40.228572-0.621715l52.041142-51.748571a308.041143 308.041143 0 0 0 179.346286 57.197714 309.028571 309.028571 0 0 0 179.675429-57.197714l52.077714 51.748571a27.867429 27.867429 0 0 0 40.192 0.621715 27.172571 27.172571 0 0 0-0.329143-38.875429l-49.810286-49.517714a309.540571 309.540571 0 0 0 88.064-216.32c0-170.971429-138.532571-309.540571-309.869714-309.540572a309.467429 309.467429 0 0 0-309.540571 309.540572c0 84.224 33.426286 160.402286 88.100571 216.32L240.384 763.611429a27.172571 27.172571 0 0 0-0.329143 38.875428z m271.616-59.757715a244.845714 244.845714 0 0 1-244.918857-244.955428c0-135.314286 109.604571-244.918857 244.918857-244.918857S756.662857 362.422857 756.662857 497.737143s-109.641143 244.955429-244.955428 244.955428zM372.187429 537.6h139.483428a24.685714 24.685714 0 0 0 25.088-25.051429V325.778286a24.685714 24.685714 0 0 0-25.088-25.051429 24.685714 24.685714 0 0 0-25.051428 25.051429v161.682285h-114.468572a24.868571 24.868571 0 0 0-25.051428 25.088c0 14.116571 10.934857 25.051429 25.088 25.051429z" /></svg>