<?xml version="1.0" standalone="no"?><!DOCTYPE svg PUBLIC "-//W3C//DTD SVG 1.1//EN" "http://www.w3.org/Graphics/SVG/1.1/DTD/svg11.dtd"><svg class="icon" width="200px" height="200.00px" viewBox="0 0 1024 1024" version="1.1" xmlns="http://www.w3.org/2000/svg"><path fill="#000000" d="M374.125714 732.379429h170.020572c99.949714 0 163.584-52.699429 163.584-133.376 0-63.341714-47.213714-109.275429-113.115429-112.493715v-2.925714c54.308571-7.058286 91.940571-47.872 91.940572-99.949714 0-72.630857-55.954286-116.992-147.565715-116.992H374.125714c-36.352 0-57.892571 21.211429-57.892571 58.148571v349.44c0 36.937143 21.577143 58.148571 57.856 58.148572z m58.806857-273.554286V346.404571h69.12c43.702857 0 69.741714 20.224 69.741715 54.637715 0 35.986286-28.635429 57.856-76.8 57.856h-62.061715z m0 194.816v-125.366857h71.350858c54.308571 0 84.845714 21.869714 84.845714 62.061714 0 41.142857-27.940571 63.305143-81.627429 63.305143h-74.605714z" /></svg>