<?xml version="1.0" standalone="no"?><!DOCTYPE svg PUBLIC "-//W3C//DTD SVG 1.1//EN" "http://www.w3.org/Graphics/SVG/1.1/DTD/svg11.dtd"><svg class="icon" width="200px" height="200.00px" viewBox="0 0 1024 1024" version="1.1" xmlns="http://www.w3.org/2000/svg"><path fill="#000000" d="M296.009143 285.622857c36.315429 0 65.243429-29.257143 65.243428-65.28a65.097143 65.097143 0 1 0-130.194285 0c0 36.022857 28.928 65.28 64.950857 65.28zM146.212571 333.824c0 80.676571 71.021714 162.962286 195.766858 202.166857-10.971429 33.097143-16.713143 65.243429-16.713143 94.500572 0 19.931429 2.56 40.521143 8.338285 60.452571 16.091429-22.820571 46.921143-36.973714 72.009143-37.961143a177.481143 177.481143 0 0 1-8.667428-54.966857c0-15.396571 1.609143-31.451429 4.498285-47.542857 32.438857 5.778286 67.474286 8.996571 105.106286 8.996571 36.608 0 71.68-2.925714 104.777143-8.996571 2.889143 16.091429 4.169143 32.146286 4.169143 47.542857 0 75.885714-43.702857 128.256-102.217143 128.585143 2.267429 9.984 3.876571 20.260571 3.876571 29.915428 0 23.113143-7.424 44.982857-21.211428 62.976 2.889143 0.329143 6.729143 0.329143 10.24 0.329143 105.472 0 181.321143-79.36 181.321143-189.330285 0-29.257143-6.107429-61.366857-16.713143-94.500572 40.484571-12.836571 76.507429-30.208 106.715428-52.370286a103.058286 103.058286 0 0 1-47.908571-42.788571c-20.882286 19.968-46.592 36.022857-76.8 47.908571-26.038857-59.136-64.950857-118.601143-111.213714-169.069714 42.422857-34.377143 89.965714-56.246857 137.545143-56.246857 37.924571 0 67.181714 13.824 82.651428 38.912a102.948571 102.948571 0 0 1 57.197714-17.042286c15.396571 0 30.208 3.510857 44.032 9.618286-15.762286-65.572571-72.96-105.728-153.636571-105.728-69.12 0-140.470857 38.582857-202.825143 95.451429-33.462857-30.866286-70.070857-56.246857-107.373714-73.289143 0.329143 2.925714 0.329143 6.107429 0.329143 8.996571 0 18.322286-4.827429 36.022857-13.531429 51.456 29.622857 9.325714 58.514286 25.709714 85.540572 47.908572a626.834286 626.834286 0 0 0-111.213715 168.704c-86.162286-34.377143-121.197714-96.402286-121.197714-138.532572 0-14.445714 2.267429-27.318857 7.058286-38.546286a104.521143 104.521143 0 0 1-53.650286-88.393142c-30.537143 28.891429-46.299429 66.194286-46.299429 110.884571z m672.768 120.210286c35.986286 0 64.914286-29.257143 64.914286-65.243429 0-36.022857-28.928-65.243429-64.914286-65.243428-36.022857 0-65.28 29.257143-65.28 65.243428s29.257143 65.243429 65.28 65.243429z m-312.429714 59.136c-34.742857 0-65.572571-3.218286-92.598857-8.996572 18.651429-54.966857 51.748571-108.982857 92.598857-152.027428 40.813714 42.752 73.910857 96.731429 92.525714 152.027428-28.269714 6.107429-59.428571 8.996571-92.525714 8.996572z m-92.891428 308.589714a65.097143 65.097143 0 1 0 0-130.194286c-36.022857 0-65.28 28.928-65.28 64.950857 0 35.986286 29.257143 65.243429 65.243428 65.243429z" /></svg>