<?xml version="1.0" standalone="no"?><!DOCTYPE svg PUBLIC "-//W3C//DTD SVG 1.1//EN" "http://www.w3.org/Graphics/SVG/1.1/DTD/svg11.dtd"><svg class="icon" width="200px" height="200.00px" viewBox="0 0 1024 1024" version="1.1" xmlns="http://www.w3.org/2000/svg"><path fill="#000000" d="M134.997333 512a377.002667 377.002667 0 1 1 754.005334 0 377.002667 377.002667 0 0 1-754.005334 0zM512 51.2C257.493333 51.2 51.2 257.493333 51.2 512c0 254.464 206.293333 460.8 460.8 460.8 254.506667 0 460.8-206.336 460.8-460.8 0-254.506667-206.293333-460.8-460.8-460.8z m177.749333 638.506667a41.898667 41.898667 0 0 1-59.264 0L512 571.221333l-118.485333 118.485334a41.898667 41.898667 0 0 1-59.221334-59.221334L452.778667 512 334.293333 393.514667a41.898667 41.898667 0 0 1 59.221334-59.264L512 452.736l118.485333-118.485333a41.898667 41.898667 0 1 1 59.264 59.264L571.264 512l118.485333 118.485333a41.898667 41.898667 0 0 1 0 59.221334z" /></svg>