<?xml version="1.0" standalone="no"?><!DOCTYPE svg PUBLIC "-//W3C//DTD SVG 1.1//EN" "http://www.w3.org/Graphics/SVG/1.1/DTD/svg11.dtd"><svg class="icon" width="200px" height="200.00px" viewBox="0 0 1024 1024" version="1.1" xmlns="http://www.w3.org/2000/svg"><path fill="#000000" d="M353.536 182.869333a170.666667 170.666667 0 0 0-170.666667 170.666667v316.928a170.666667 170.666667 0 0 0 170.666667 170.666667h316.928a170.666667 170.666667 0 0 0 170.666667-170.666667V353.536a170.666667 170.666667 0 0 0-170.666667-170.666667H353.536z m150.485333 465.493334c-6.528 10.624-15.573333 15.914667-27.093333 15.914666a31.146667 31.146667 0 0 1-15.232-3.712 43.690667 43.690667 0 0 1-13.226667-12.202666l-76.885333-93.866667a34.133333 34.133333 0 0 1-7.808-20.992c0-7.466667 2.56-13.781333 7.637333-18.944a25.258667 25.258667 0 0 1 18.773334-7.808 29.866667 29.866667 0 0 1 12.885333 2.688 33.28 33.28 0 0 1 11.52 10.197333l61.312 78.592 129.450667-207.701333c6.528-10.154667 14.549333-15.232 24.021333-15.232 7.04 0 13.354667 2.261333 18.986667 6.784a21.845333 21.845333 0 0 1 8.490666 17.92c0 3.84-0.810667 7.594667-2.389333 11.221333-1.578667 3.584-3.413333 6.997333-5.418667 10.154667l-145.024 226.986667z" /></svg>