<?xml version="1.0" standalone="no"?><!DOCTYPE svg PUBLIC "-//W3C//DTD SVG 1.1//EN" "http://www.w3.org/Graphics/SVG/1.1/DTD/svg11.dtd"><svg class="icon" width="200px" height="200.00px" viewBox="0 0 1024 1024" version="1.1" xmlns="http://www.w3.org/2000/svg"><path fill="#000000" d="M694.869333 237.696H329.130667c-50.474667 0-91.434667 40.96-91.434667 91.434667v365.738666c0 50.474667 40.96 91.392 91.434667 91.392h365.738666c50.474667 0 91.434667-40.917333 91.434667-91.392V329.130667c0-50.474667-40.96-91.434667-91.434667-91.434667zM329.130667 182.869333a146.304 146.304 0 0 0-146.261334 146.261334v365.738666a146.304 146.304 0 0 0 146.261334 146.261334h365.738666a146.304 146.304 0 0 0 146.261334-146.261334V329.130667a146.304 146.304 0 0 0-146.261334-146.261334H329.130667z" /></svg>