<?xml version="1.0" standalone="no"?><!DOCTYPE svg PUBLIC "-//W3C//DTD SVG 1.1//EN" "http://www.w3.org/Graphics/SVG/1.1/DTD/svg11.dtd"><svg class="icon" width="200px" height="200.00px" viewBox="0 0 1024 1024" version="1.1" xmlns="http://www.w3.org/2000/svg"><path fill="#000000" d="M639.232 815.232a315.306667 315.306667 0 0 1-127.061333 25.898667 314.922667 314.922667 0 0 1-127.232-25.898667 337.92 337.92 0 0 1-104.832-71.338667 337.834667 337.834667 0 0 1-71.338667-104.832 314.88 314.88 0 0 1-25.898667-127.232 317.013333 317.013333 0 0 1 25.728-127.061333 335.445333 335.445333 0 0 1 71.338667-105.173333 333.653333 333.653333 0 0 1 105.002667-71.168c39.68-17.066667 81.92-25.6 126.890666-25.6 44.928 0 87.296 8.533333 127.061334 25.6 39.722667 17.066667 74.752 40.789333 105.002666 71.168a339.2 339.2 0 0 1 71.338667 105.173333c17.28 39.765333 25.898667 82.133333 25.898667 127.061333a316.714667 316.714667 0 0 1-25.728 127.232 337.322667 337.322667 0 0 1-176.213334 176.213334z m-178.901333-149.930667a32.128 32.128 0 0 0 16.256 4.053334c11.733333 0 21.12-5.546667 28.16-16.597334l150.058666-235.434666c2.261333-3.413333 4.266667-6.954667 5.930667-10.666667a26.453333 26.453333 0 0 0 2.56-11.050667 23.466667 23.466667 0 0 0-8.96-19.114666 31.146667 31.146667 0 0 0-20.181333-7.296c-9.728 0-17.877333 5.290667-24.405334 15.914666l-134.485333 215.808-63.701333-81.28a35.413333 35.413333 0 0 0-11.690667-10.88 28.16 28.16 0 0 0-13.056-3.029333 26.325333 26.325333 0 0 0-19.84 8.32 28.032 28.032 0 0 0-7.936 20.138667c0 7.466667 2.816 14.677333 8.448 21.674666l79.274667 97.28c4.309333 5.376 8.832 9.472 13.568 12.16z" /></svg>