<?xml version="1.0" standalone="no"?><!DOCTYPE svg PUBLIC "-//W3C//DTD SVG 1.1//EN" "http://www.w3.org/Graphics/SVG/1.1/DTD/svg11.dtd"><svg class="icon" width="200px" height="200.00px" viewBox="0 0 1024 1024" version="1.1" xmlns="http://www.w3.org/2000/svg"><path fill="#000000" d="M453.930667 774.826667a34.816 34.816 0 0 0 30.677333-17.024L771.413333 306.090667c5.461333-8.789333 7.594667-15.488 7.594667-22.485334 0-16.64-10.922667-27.605333-27.605333-27.605333-12.16 0-18.816 3.925333-26.112 15.488l-272.64 434.389333-141.44-185.173333c-7.594667-10.624-15.189333-14.848-26.112-14.848-17.322667 0-29.141333 11.818667-29.141334 28.501333 0 6.997333 3.029333 14.890667 8.789334 22.186667L422.4 757.205333c9.088 11.818667 18.517333 17.621333 31.573333 17.621334z" /></svg>