<?xml version="1.0" standalone="no"?><!DOCTYPE svg PUBLIC "-//W3C//DTD SVG 1.1//EN" "http://www.w3.org/Graphics/SVG/1.1/DTD/svg11.dtd"><svg class="icon" width="200px" height="200.00px" viewBox="0 0 1024 1024" version="1.1" xmlns="http://www.w3.org/2000/svg"><path fill="#000000" d="M511.670857 831.707429c182.272 0 332.690286-150.418286 332.690286-332.361143 0-181.906286-150.747429-332.361143-333.019429-332.361143-181.906286 0-332.032 150.454857-332.032 332.361143 0 181.942857 150.454857 332.361143 332.361143 332.361143z m0-66.194286a264.886857 264.886857 0 0 1-265.508571-266.166857 264.557714 264.557714 0 0 1 265.179428-265.801143 265.654857 265.654857 0 0 1 266.496 265.801143 265.252571 265.252571 0 0 1-266.166857 266.166857z m-162.011428-225.645714h161.682285a25.453714 25.453714 0 0 0 26.038857-25.709715V303.908571a25.453714 25.453714 0 0 0-26.038857-25.746285 25.307429 25.307429 0 0 0-25.380571 25.746285v184.466286H349.696a25.380571 25.380571 0 0 0-25.746286 25.746286c0 14.445714 11.264 25.709714 25.746286 25.709714z" /></svg>