<?xml version="1.0" standalone="no"?><!DOCTYPE svg PUBLIC "-//W3C//DTD SVG 1.1//EN" "http://www.w3.org/Graphics/SVG/1.1/DTD/svg11.dtd"><svg class="icon" width="200px" height="200.00px" viewBox="0 0 1024 1024" version="1.1" xmlns="http://www.w3.org/2000/svg"><path fill="#000000" d="M512 831.707429c181.942857 0 332.361143-150.418286 332.361143-332.361143 0-181.906286-150.125714-332.361143-332.361143-332.361143-181.942857 0-332.690286 150.454857-332.690286 332.361143 0 181.942857 150.454857 332.361143 332.690286 332.361143z m0-66.194286a265.252571 265.252571 0 0 1-266.130286-266.166857A265.362286 265.362286 0 0 1 512 233.545143a264.630857 264.630857 0 0 1 265.508571 265.801143A265.106286 265.106286 0 0 1 512 765.513143z m-109.604571-336.859429l91.611428 91.611429c10.276571 10.605714 26.331429 10.605714 36.644572 0l141.750857-141.458286a25.234286 25.234286 0 0 0-0.329143-36.315428c-10.605714-9.947429-26.038857-10.276571-36.315429 0L512 465.92l-73.289143-73.618286a25.234286 25.234286 0 0 0-36.315428 0 25.234286 25.234286 0 0 0 0 36.352z m-221.147429 254.244572v93.549714c0 42.057143 20.589714 62.317714 63.305143 62.317714h99.986286c-70.729143-34.706286-124.708571-86.454857-163.291429-155.867428z m661.211429 0c-38.619429 69.412571-92.598857 121.161143-163.328 155.904h99.986285c42.752 0 63.305143-20.260571 63.305143-62.390857v-93.513143z" /></svg>