<?xml version="1.0" standalone="no"?><!DOCTYPE svg PUBLIC "-//W3C//DTD SVG 1.1//EN" "http://www.w3.org/Graphics/SVG/1.1/DTD/svg11.dtd"><svg class="icon" width="200px" height="200.00px" viewBox="0 0 1024 1024" version="1.1" xmlns="http://www.w3.org/2000/svg"><path fill="#000000" d="M520.277333 142.805333a12.8 12.8 0 0 0-16.554666 0L251.733333 356.992V802.133333a12.8 12.8 0 0 0 12.8 12.8h494.933334a12.8 12.8 0 0 0 12.8-12.8V356.949333l-251.989334-214.186666z m-410.069333 334.464L174.933333 422.229333V802.133333c0 49.493333 40.106667 89.6 89.6 89.6h494.933334a89.6 89.6 0 0 0 89.6-89.6V422.229333l64.725333 55.04a38.4 38.4 0 0 0 49.749333-58.538666L570.026667 84.266667a89.6 89.6 0 0 0-116.053334 0l-393.514666 334.506666a38.4 38.4 0 0 0 49.749333 58.453334zM435.2 622.933333a51.2 51.2 0 1 0 0 102.4h153.6a51.2 51.2 0 0 0 0-102.4h-153.6z" /></svg>