<?xml version="1.0" standalone="no"?><!DOCTYPE svg PUBLIC "-//W3C//DTD SVG 1.1//EN" "http://www.w3.org/Graphics/SVG/1.1/DTD/svg11.dtd"><svg class="icon" width="200px" height="200.00px" viewBox="0 0 1024 1024" version="1.1" xmlns="http://www.w3.org/2000/svg"><path fill="#000000" d="M236.544 616.667429h23.442286c-2.56-20.224-4.169143-42.093714-0.950857-61.074286h-18.651429c-76.507429 0-130.816-53.650286-130.816-130.816 0-76.507429 54.308571-130.816 130.816-130.816h283.830857c76.507429 0 130.816 54.308571 130.816 130.816 0 77.165714-54.308571 130.816-130.816 130.816h-98.377143c-15.396571 10.313143-14.116571 48.859429 5.814857 61.074286h96.402286c111.542857 0 191.268571-78.738286 191.268572-191.890286 0-112.822857-79.725714-191.561143-191.268572-191.561143H236.580571c-111.542857 0-191.268571 78.738286-191.268571 191.561143 0 113.152 79.725714 191.890286 191.268571 191.890286z m259.072 152.064h291.218286c111.835429 0 191.561143-78.774857 191.561143-191.597715 0-113.152-79.725714-191.890286-191.561143-191.890285h-23.149715c2.56 20.260571 4.169143 42.093714 0.950858 61.074285h18.651428c76.507429 0 130.816 53.686857 130.816 130.816 0 76.507429-54.308571 130.816-130.816 130.816h-283.794286c-76.544 0-130.852571-54.308571-130.852571-130.816 0-77.165714 54.308571-130.816 130.816-130.816h98.377143c15.433143-10.276571 14.116571-48.859429-5.814857-61.074285h-96.402286c-111.872 0-191.268571 78.738286-191.268571 191.890285 0 112.822857 79.396571 191.597714 191.268571 191.597715z" /></svg>