<?xml version="1.0" standalone="no"?><!DOCTYPE svg PUBLIC "-//W3C//DTD SVG 1.1//EN" "http://www.w3.org/Graphics/SVG/1.1/DTD/svg11.dtd"><svg class="icon" width="200px" height="200.00px" viewBox="0 0 1024 1024" version="1.1" xmlns="http://www.w3.org/2000/svg"><path fill="#000000" d="M151.04 471.698286a40.228571 40.228571 0 0 0 80.347429 0v-20.845715c0-52.406857 36.022857-86.162286 90.660571-86.162285h241.371429v67.181714c0 19.273143 12.214857 31.451429 31.817142 31.451429 8.704 0 16.713143-3.181714 23.149715-8.338286l126.646857-105.398857c15.725714-12.544 15.433143-33.755429 0-46.628572L618.422857 197.229714a35.584 35.584 0 0 0-23.149714-8.704c-19.602286 0-31.817143 12.214857-31.817143 31.524572V285.622857H328.448c-108.946286 0-177.408 60.708571-177.408 157.476572v28.598857z m309.540571 88.100571c0-19.309714-12.214857-31.817143-31.524571-31.817143-8.667429 0-17.005714 3.510857-23.442286 8.667429l-126.317714 105.435428c-15.725714 12.507429-15.725714 33.426286 0 46.592l126.317714 105.764572c6.436571 5.485714 14.774857 8.667429 23.442286 8.667428 19.309714 0 31.524571-12.214857 31.524571-31.488v-65.901714h235.264c108.982857 0 177.115429-61.074286 177.115429-157.513143v-28.598857c0-22.491429-17.664-40.484571-40.192-40.484571a40.228571 40.228571 0 0 0-40.155429 40.484571v20.882286c0 52.077714-35.693714 86.162286-90.660571 86.162286h-241.371429v-66.852572z" /></svg>