<?xml version="1.0" standalone="no"?><!DOCTYPE svg PUBLIC "-//W3C//DTD SVG 1.1//EN" "http://www.w3.org/Graphics/SVG/1.1/DTD/svg11.dtd"><svg class="icon" width="200px" height="200.00px" viewBox="0 0 1024 1024" version="1.1" xmlns="http://www.w3.org/2000/svg"><path fill="#000000" d="M226.889143 459.812571c61.732571 0 70.070857-24.758857 98.377143-24.758857 6.729143 0 11.556571 1.316571 19.602285 5.485715l47.908572 25.709714c7.058286 3.84 12.8 7.387429 17.664 9.947428h2.230857c8.045714-29.257143 19.273143-46.592 40.521143-60.708571v-2.596571l-66.56-35.364572c-23.442286-12.544-26.038857-22.491429-26.038857-51.419428a133.558857 133.558857 0 0 0-133.705143-134.363429c-74.24 0-133.376 59.794286-133.376 134.363429a133.12 133.12 0 0 0 133.376 133.705142z m0-60.708571c-39.862857 0-72.009143-33.133714-72.009143-72.996571 0-41.142857 32.182857-73.289143 72.045714-73.289143 40.484571 0 72.594286 32.146286 72.594286 73.289143 0 39.862857-32.109714 72.96-72.630857 72.96z m0 426.496a133.339429 133.339429 0 0 0 133.705143-134.363429c0-26.989714 1.938286-38.253714 22.820571-49.481142l547.108572-290.267429c-13.202286-50.761143-68.498286-61.366857-151.076572-31.817143l-278.052571 99.986286c-39.862857 14.445714-57.526857 34.377143-68.132572 71.314286l-6.765714 24.137142c-4.827429 17.371429-12.873143 25.380571-39.497143 39.204572l-42.130286 22.528c-8.704 4.498286-13.165714 5.778286-19.602285 5.778286-27.648 0-36.973714-25.088-98.377143-25.088a133.12 133.12 0 0 0-133.376 133.705142c0 74.605714 59.136 134.363429 133.376 134.363429z m281.234286-309.211429a27.062857 27.062857 0 0 1-26.660572-26.697142 27.026286 27.026286 0 0 1 54.016 0c0 14.811429-12.214857 26.697143-27.318857 26.697142z m271.286857 180.955429c82.944 30.537143 137.910857 19.309714 151.076571-32.768l-268.068571-141.750857-140.141715 73.910857v4.205714l257.133715 96.402286zM226.889143 764.525714c-39.862857 0-72.009143-32.768-72.009143-73.289143 0-40.155429 32.182857-72.96 72.045714-72.96 40.484571 0 72.594286 32.804571 72.594286 72.96a72.704 72.704 0 0 1-72.630857 73.289143z" /></svg>