<?xml version="1.0" standalone="no"?><!DOCTYPE svg PUBLIC "-//W3C//DTD SVG 1.1//EN" "http://www.w3.org/Graphics/SVG/1.1/DTD/svg11.dtd"><svg class="icon" width="200px" height="200.00px" viewBox="0 0 1024 1024" version="1.1" xmlns="http://www.w3.org/2000/svg"><path fill="#000000" d="M512 829.147429c16.091429 0 25.709714-10.934857 25.709714-27.318858v-65.901714l48.530286 28.928c12.873143 8.374857 26.697143 7.716571 35.035429-5.12 7.094857-11.593143 3.876571-25.417143-9.618286-33.462857l-73.947429-42.752V643.657143l-7.058285-110.555429 93.513142 61.074286 34.377143 19.602286 0.365715 85.211428c0 15.725714 10.605714 26.002286 23.771428 25.380572 15.433143-0.658286 22.820571-12.214857 21.869714-27.648l-0.987428-56.905143 57.563428 33.426286c14.116571 8.374857 28.598857 4.827429 36.315429-8.667429 7.387429-13.824 3.218286-28.598857-10.313143-36.315429l-57.526857-33.133714 49.846857-27.940571c13.494857-6.436571 19.931429-19.309714 12.836572-32.475429-6.729143-11.885714-20.260571-15.725714-34.048-8.338286l-73.947429 42.422858-34.377143-19.931429-100.315428-49.517714 100.278857-49.481143 34.413714-19.931429 73.947429 42.422857c13.494857 7.716571 27.611429 3.547429 34.048-8.374857 7.094857-13.165714 0.658286-26.002286-13.165715-32.768l-49.188571-27.648 57.197714-33.097143c14.153143-8.045714 18.029714-22.198857 10.313143-36.315428-7.716571-12.873143-22.198857-17.042286-36.315429-8.704l-57.563428 33.133714 0.987428-56.576c0.950857-15.433143-6.765714-27.318857-21.869714-27.648-13.165714-0.329143-23.771429 9.654857-23.771428 25.088l-0.365715 85.467429-34.377143 19.638857-93.513142 61.366857 7.058285-110.884571v-39.862858l73.947429-42.752c13.494857-8.045714 16.384-22.162286 9.618286-33.426285-8.045714-12.836571-22.162286-13.824-35.035429-5.12l-48.530286 28.891428V196.937143c0-16.384-9.618286-27.648-25.709714-27.648-15.433143 0-26.038857 11.264-26.038857 27.648v65.901714l-48.859429-28.928c-12.836571-8.704-26.331429-7.716571-34.706285 5.12-7.058286 11.264-3.84 25.380571 9.947428 33.426286l73.618286 42.788571v39.826286l7.094857 111.213714-93.257143-61.732571-34.377143-19.894857-0.329143-85.211429c0-15.396571-10.605714-25.380571-23.771428-25.051428-15.433143 0.658286-23.149714 12.214857-21.869714 27.648l0.658285 56.576-57.526857-33.133715c-13.531429-8.045714-28.635429-4.169143-36.315428 8.704-8.045714 14.116571-3.218286 28.598857 10.24 36.315429l57.563428 33.097143-49.481143 27.648c-13.531429 6.765714-19.931429 18.980571-12.873143 33.097143 6.107429 11.593143 20.260571 15.762286 34.084572 8.045714l73.910857-42.422857 34.084571 19.931428 100.571429 49.481143-100.278857 49.517714-34.706286 19.931429-73.910857-42.422857c-13.531429-7.716571-27.318857-3.547429-33.426286 8.045714-7.094857 14.116571-0.987429 26.002286 12.544 32.768l49.481143 27.940572-57.197714 33.133714c-13.824 7.68-18.322286 22.820571-10.605714 35.986286 8.045714 14.153143 22.820571 17.042286 36.315428 8.996571l57.526857-32.768-0.950857 56.246857c-0.987429 15.433143 6.729143 27.318857 22.162286 27.648 13.165714 0.292571 23.771429-9.654857 23.771428-25.417143l0.658286-85.174857 34.084572-19.602286 93.220571-61.403428-7.094857 110.921143v39.862857l-73.618286 42.715428c-13.787429 8.045714-17.005714 21.869714-9.947428 33.426286 8.374857 12.873143 21.869714 13.531429 34.742857 5.156572l48.822857-29.257143v66.194285c0 16.091429 10.605714 27.355429 26.038857 27.355429z" /></svg>