<?xml version="1.0" standalone="no"?><!DOCTYPE svg PUBLIC "-//W3C//DTD SVG 1.1//EN" "http://www.w3.org/Graphics/SVG/1.1/DTD/svg11.dtd"><svg class="icon" width="200px" height="200.00px" viewBox="0 0 1024 1024" version="1.1" xmlns="http://www.w3.org/2000/svg"><path fill="#000000" d="M491.739429 265.691429c4.169143 0 6.765714-2.56 7.387428-6.765715 9.654857-53.028571 9.033143-53.686857 64.621714-64.621714 4.169143-0.621714 7.058286-3.181714 7.058286-7.68 0-4.205714-2.889143-6.765714-7.058286-7.424-55.296-10.605714-53.979429-11.556571-64.621714-64.585143-0.621714-4.169143-3.218286-6.765714-7.387428-6.765714-4.169143 0-6.729143 2.56-7.68 6.765714-10.313143 52.370286-8.704 53.357714-64.621715 64.585143-4.169143 0.658286-6.765714 3.218286-6.765714 7.424 0 4.498286 2.56 7.058286 7.058286 7.68 55.296 10.971429 54.966857 11.593143 64.292571 64.621714 0.987429 4.169143 3.547429 6.765714 7.716572 6.765715z m-155.867429 224.987428c6.4 0 11.227429-4.498286 12.214857-10.934857 11.227429-85.174857 13.824-85.504 102.509714-102.217143 6.107429-0.950857 10.971429-5.485714 10.971429-12.214857 0-6.436571-4.864-11.227429-11.300571-12.214857-88.064-12.214857-91.282286-14.774857-102.180572-101.558857-0.987429-6.765714-5.814857-11.264-12.214857-11.264-6.765714 0-11.593143 4.498286-12.214857 11.593143-10.605714 84.845714-14.482286 84.845714-102.546286 101.229714-6.436571 1.28-10.934857 5.778286-10.934857 12.214857 0 7.094857 4.498286 11.264 12.214857 12.214857 87.113143 13.824 90.660571 16.384 101.266286 101.595429 0.621714 7.058286 5.449143 11.556571 12.214857 11.556571z m222.72 355.181714c9.325714 0 16.420571-6.765714 17.700571-16.384 23.149714-174.226286 47.908571-201.545143 220.16-220.525714 9.984-1.28 17.042286-8.667429 17.042286-17.993143s-7.058286-16.713143-17.042286-17.993143c-171.629714-19.931429-196.059429-45.641143-220.16-220.525714-1.609143-9.618286-8.374857-16.384-17.700571-16.384-9.289143 0-16.384 6.765714-17.664 16.420572-23.149714 174.189714-47.908571 201.508571-220.16 220.489142-10.313143 1.28-17.042286 8.667429-17.042286 17.993143s6.729143 16.713143 17.042286 17.993143c170.971429 22.820571 194.779429 45.641143 220.16 220.525714 1.609143 9.618286 8.374857 16.384 17.664 16.384z" /></svg>