<?xml version="1.0" standalone="no"?><!DOCTYPE svg PUBLIC "-//W3C//DTD SVG 1.1//EN" "http://www.w3.org/Graphics/SVG/1.1/DTD/svg11.dtd"><svg class="icon" width="200px" height="200.00px" viewBox="0 0 1024 1024" version="1.1" xmlns="http://www.w3.org/2000/svg"><path fill="#000000" d="M511.670857 831.707429c182.272 0 332.690286-150.418286 332.690286-332.361143a328.411429 328.411429 0 0 0-66.194286-197.339429l25.709714-25.709714c8.338286-8.374857 12.836571-18.322286 12.836572-27.977143a35.474286 35.474286 0 0 0-35.986286-35.693714c-11.885714 0-20.260571 3.547429-28.635428 11.593143l-24.100572 23.771428a334.445714 334.445714 0 0 0-179.017143-79.067428v-32.475429c0-21.211429-16.713143-38.217143-37.302857-38.217143-20.224 0-37.302857 17.005714-37.302857 38.217143v32.475429c-164.864 18.980571-295.058286 161.024-295.058286 330.422857 0 181.942857 150.454857 332.361143 332.361143 332.361143z m0-66.194286a264.886857 264.886857 0 0 1-265.508571-266.166857 264.557714 264.557714 0 0 1 265.179428-265.801143 265.654857 265.654857 0 0 1 266.496 265.801143 265.252571 265.252571 0 0 1-266.166857 266.166857z m0-210.212572c30.866286 0 55.588571-25.088 55.588572-55.588571 0-21.248-11.849143-39.241143-29.878858-49.225143V302.628571a25.453714 25.453714 0 0 0-26.038857-25.709714 25.307429 25.307429 0 0 0-25.380571 25.709714v147.858286c-17.993143 9.984-29.878857 28.306286-29.878857 49.188572 0 30.537143 24.758857 55.588571 55.588571 55.588571z" /></svg>