<?xml version="1.0" standalone="no"?><!DOCTYPE svg PUBLIC "-//W3C//DTD SVG 1.1//EN" "http://www.w3.org/Graphics/SVG/1.1/DTD/svg11.dtd"><svg class="icon" width="200px" height="200.00px" viewBox="0 0 1024 1024" version="1.1" xmlns="http://www.w3.org/2000/svg"><path fill="#000000" d="M469.906286 885.394286a175.652571 175.652571 0 0 0 175.798857-175.835429c0-49.810286-20.224-93.513143-58.514286-128.877714-6.729143-6.107429-8.338286-9.984-8.338286-18.980572l0.329143-281.563428c0-72.009143-44.032-119.881143-109.275428-119.881143-65.901714 0-110.592 47.908571-110.592 119.881143l0.658285 281.6c0 8.96-1.609143 12.8-8.374857 18.944-38.546286 35.035429-58.514286 79.067429-58.514285 128.877714a175.872 175.872 0 0 0 176.822857 175.835429z m0-55.954286a120.356571 120.356571 0 0 1-120.539429-120.502857c0-40.813714 19.273143-76.178286 53.028572-98.998857 9.947429-6.436571 13.824-12.544 13.824-25.417143V282.404571c0-40.192 21.540571-65.901714 53.686857-65.901714 31.158857 0 52.699429 25.709714 52.699428 65.901714v302.116572c0 12.873143 3.876571 18.980571 13.824 25.417143 33.755429 22.820571 53.028571 58.148571 53.028572 98.998857 0 66.56-53.686857 120.539429-119.588572 120.539428z m170.678857-543.524571h70.363428a19.163429 19.163429 0 0 0 19.931429-19.602286 19.163429 19.163429 0 0 0-19.931429-19.602286h-70.363428a19.456 19.456 0 0 0-20.260572 19.602286c0 10.605714 8.045714 19.602286 20.260572 19.602286z m0 89.051428h70.363428a19.163429 19.163429 0 0 0 19.931429-19.602286 19.163429 19.163429 0 0 0-19.931429-19.602285h-70.363428a19.456 19.456 0 0 0-20.260572 19.602285c0 10.605714 8.045714 19.602286 20.260572 19.602286z m0 89.673143h70.363428a19.163429 19.163429 0 0 0 19.931429-19.602286 19.163429 19.163429 0 0 0-19.931429-19.602285h-70.363428a19.419429 19.419429 0 0 0-20.260572 19.602285c0 10.605714 8.045714 19.602286 20.260572 19.602286z m-171.337143 321.462857c42.752 0 77.165714-34.413714 77.165714-77.494857 0-29.586286-16.749714-54.308571-41.472-67.510857-10.313143-5.485714-13.531429-9.325714-13.531428-24.758857v-164.205715c0-16.420571-9.618286-26.697143-22.162286-26.697142-12.214857 0-21.869714 10.276571-21.869714 26.697142v164.205715c0 15.433143-3.218286 19.309714-13.494857 24.758857-24.758857 13.165714-41.472 37.924571-41.472 67.510857 0 43.081143 34.377143 77.458286 76.836571 77.458286z m171.337143-232.118857h70.363428a19.163429 19.163429 0 0 0 19.931429-19.602286 19.163429 19.163429 0 0 0-19.931429-19.602285h-70.363428a19.419429 19.419429 0 0 0-20.260572 19.602285c0 10.605714 8.045714 19.602286 20.260572 19.602286z" /></svg>