<?xml version="1.0" standalone="no"?><!DOCTYPE svg PUBLIC "-//W3C//DTD SVG 1.1//EN" "http://www.w3.org/Graphics/SVG/1.1/DTD/svg11.dtd"><svg class="icon" width="200px" height="200.00px" viewBox="0 0 1024 1024" version="1.1" xmlns="http://www.w3.org/2000/svg"><path fill="#000000" d="M511.670857 842.313143c182.893714 0 332.690286-149.796571 332.690286-332.690286C844.361143 327.094857 694.857143 177.298286 512 177.298286c-19.931429 0-31.158857 11.885714-31.158857 31.158857v118.308571c0 16.384 11.556571 29.257143 27.940571 29.257143s27.977143-12.873143 27.977143-29.257143v-82.651428c135.972571 12.580571 240.749714 126.354286 240.749714 265.508571a265.142857 265.142857 0 0 1-265.837714 266.166857 265.142857 265.142857 0 0 1-265.801143-266.166857 265.508571 265.508571 0 0 1 59.757715-167.460571c12.214857-16.713143 14.153143-34.377143 0.365714-48.201143-13.860571-13.824-36.022857-12.544-50.468572 6.436571-47.286857 57.197714-76.214857 130.194286-76.214857 209.225143 0 182.893714 149.796571 332.690286 332.361143 332.690286z m51.748572-283.172572c26.368-27.977143 20.882286-65.901714-10.605715-87.405714L389.522286 359.497143c-19.273143-12.873143-37.924571 6.107429-25.051429 25.380571l112.164572 162.962286c21.577143 31.817143 59.465143 37.632 86.784 11.264z" /></svg>