<?xml version="1.0" standalone="no"?><!DOCTYPE svg PUBLIC "-//W3C//DTD SVG 1.1//EN" "http://www.w3.org/Graphics/SVG/1.1/DTD/svg11.dtd"><svg class="icon" width="200px" height="200.00px" viewBox="0 0 1024 1024" version="1.1" xmlns="http://www.w3.org/2000/svg"><path fill="#000000" d="M507.172571 428.617143c200.557714 0 317.915429-50.102857 317.915429-120.832 0-64.585143-90.002286-103.826286-224.365714-103.826286-97.060571 0-174.226286 17.700571-233.691429 44.032-17.334857 7.716571-21.211429 25.417143-15.433143 37.632 6.765714 13.824 23.771429 18.285714 39.862857 12.214857 52.077714-20.918857 117.321143-40.813714 206.043429-40.813714 104.155429 0 169.691429 23.442286 169.691429 50.468571 0 32.438857-105.398857 66.523429-262.582858 66.523429-162.633143 0-247.844571-31.524571-247.844571-91.611429 0-37.595429 34.742857-73.947429 125.366857-102.217142 17.993143-5.485714 25.088-19.931429 20.260572-35.035429-5.12-14.774857-18.322286-20.589714-38.582858-15.104-110.884571 31.817143-164.900571 91.282286-164.900571 153.636571 0 93.842286 106.715429 144.969143 308.297143 144.969143z m9.654858 109.641143c102.546286 0 197.046857-16.713143 263.570285-43.410286 14.445714-5.778286 20.882286-20.553143 14.153143-33.097143-6.436571-12.544-19.638857-15.104-36.022857-9.325714-60.416 22.491429-148.187429 37.924571-241.737143 37.924571-70.034286 0-149.76-8.667429-212.772571-26.989714-16.054857-4.827429-29.549714 0.329143-33.426286 14.153143-4.169143 13.494857 3.218286 26.697143 19.931429 31.488 67.84 19.273143 152.685714 29.257143 226.304 29.257143z m22.820571 107.995428c85.504-0.950857 165.193143-13.165714 239.140571-37.302857 18.285714-6.070857 22.491429-21.211429 17.664-33.389714-4.790857-12.544-17.334857-17.042286-35.328-11.264a725.577143 725.577143 0 0 1-222.134857 34.048c-32.768 0-67.474286-2.230857-93.842285-5.778286-17.371429-2.230857-28.306286 5.12-30.537143 17.993143-2.56 13.165714 4.498286 26.038857 23.149714 28.928 25.380571 4.205714 60.416 7.094857 101.888 6.765714z m-30.866286 102.217143c59.136 6.765714 133.412571 4.498286 193.499429-11.556571 16.091429-4.205714 22.491429-18.322286 18.651428-31.524572-4.169143-13.494857-17.042286-18.651429-34.084571-14.774857-51.748571 13.165714-113.773714 17.371429-170.678857 10.934857-17.334857-1.609143-29.257143 6.729143-30.866286 19.931429-1.572571 12.836571 5.156571 24.722286 23.478857 26.989714z m-22.162285 105.106286c21.211429 2.56 44.982857 2.56 67.181714-0.329143 15.725714-1.609143 24.100571-11.885714 22.820571-25.709714-0.987429-12.544-11.264-21.540571-28.306285-19.273143a243.419429 243.419429 0 0 1-57.197715 0c-16.420571-1.938286-26.697143 7.058286-28.306285 19.273143-1.609143 13.165714 6.765714 24.137143 23.771428 26.038857z" /></svg>