<?xml version="1.0" standalone="no"?><!DOCTYPE svg PUBLIC "-//W3C//DTD SVG 1.1//EN" "http://www.w3.org/Graphics/SVG/1.1/DTD/svg11.dtd"><svg class="icon" width="200px" height="200.00px" viewBox="0 0 1024 1024" version="1.1" xmlns="http://www.w3.org/2000/svg"><path fill="#000000" d="M512 53.248c129.707 3.413 237.739 48.299 324.096 134.656S967.339 382.293 970.752 512c-3.413 129.707-48.299 237.739-134.656 324.096S641.707 967.339 512 970.752c-129.707-3.413-237.739-48.299-324.096-134.656S56.661 641.707 53.248 512c3.413-129.707 48.299-237.739 134.656-324.096S382.293 56.661 512 53.248z m0 196.608c-17.749 0-32.427 6.485-44.032 19.456-11.605 12.971-16.725 28.331-15.36 46.08l23.552 262.144c1.365 9.557 5.291 17.237 11.776 23.04 6.485 5.803 14.507 8.704 24.064 8.704s17.579-2.901 24.064-8.704c6.485-5.803 10.411-13.483 11.776-23.04l23.552-262.144c1.365-17.749-3.755-33.109-15.36-46.08-11.605-12.971-26.283-19.456-44.032-19.456z m0 524.288c15.019-0.683 27.477-5.803 37.376-15.36 9.899-9.557 14.848-21.845 14.848-36.864 0-15.019-4.949-27.477-14.848-37.376-9.899-9.899-22.357-14.848-37.376-14.848-15.019 0-27.477 4.949-37.376 14.848-9.899 9.899-14.848 22.357-14.848 37.376 0 15.019 4.949 27.307 14.848 36.864 9.899 9.557 22.357 14.677 37.376 15.36z" /></svg>