<?xml version="1.0" standalone="no"?><!DOCTYPE svg PUBLIC "-//W3C//DTD SVG 1.1//EN" "http://www.w3.org/Graphics/SVG/1.1/DTD/svg11.dtd"><svg class="icon" width="200px" height="200.00px" viewBox="0 0 1024 1024" version="1.1" xmlns="http://www.w3.org/2000/svg"><path fill="#000000" d="M186.697143 459.190857c6.765714 7.387429 17.371429 7.058286 24.429714-0.658286 79.396571-83.894857 183.881143-128.256 300.544-128.256 117.650286 0 222.427429 44.361143 301.494857 128.914286a16.237714 16.237714 0 0 0 23.771429-0.658286l45.019428-45.348571c6.436571-6.4 6.436571-14.738286 1.28-20.845714-77.458286-95.451429-221.769143-163.949714-371.565714-163.949715-149.467429 0-294.107429 68.132571-371.236571 163.913143-5.12 6.144-5.12 14.482286 0.950857 20.918857l45.348571 45.970286z m134.363428 133.705143c7.716571 7.387429 17.993143 6.729143 25.417143-1.28 39.204571-42.788571 101.888-72.96 165.522286-72.667429 63.963429-0.292571 126.646857 30.537143 166.802286 73.618286 6.765714 7.716571 16.420571 7.387429 23.771428 0l50.468572-49.481143c6.144-5.814857 6.765714-13.824 1.316571-20.260571-50.139429-60.745143-141.750857-104.448-242.358857-104.448-100.937143 0-192.548571 43.702857-242.688 104.448-5.485714 6.436571-4.827429 14.153143 1.28 20.260571l50.468571 49.810286zM512 770.998857c7.68 0 14.482286-3.584 27.648-16.091428l78.738286-75.885715a15.433143 15.433143 0 0 0 1.938285-20.845714c-22.491429-28.635429-63.341714-51.785143-108.324571-51.785143-46.299429 0-87.771429 24.137143-109.933714 54.308572-3.84 5.814857-1.938286 12.873143 3.547428 18.322285l78.738286 75.885715c12.873143 12.214857 19.931429 16.091429 27.648 16.091428z" /></svg>