<?xml version="1.0" standalone="no"?><!DOCTYPE svg PUBLIC "-//W3C//DTD SVG 1.1//EN" "http://www.w3.org/Graphics/SVG/1.1/DTD/svg11.dtd"><svg class="icon" width="200px" height="200.00px" viewBox="0 0 1024 1024" version="1.1" xmlns="http://www.w3.org/2000/svg"><path fill="#000000" d="M211.126857 434.102857a472.978286 472.978286 0 0 1 139.849143-21.833143c58.806857 0 102.217143 9.289143 158.134857 9.289143 58.806857 0 96.731429-40.484571 96.731429-93.184 0-54.016-40.813714-92.891429-92.525715-92.891428-37.010286 0-70.107429 22.784-84.553142 54.308571-6.107429 12.214857-3.547429 26.038857 8.996571 32.475429 11.556571 6.4 26.038857 2.56 33.755429-11.922286a46.665143 46.665143 0 0 1 41.764571-26.989714c25.380571 0 44.982857 17.371429 44.982857 44.982857 0 27.648-19.273143 45.348571-49.152 45.348571-52.699429 0-97.060571-9.325714-158.134857-9.325714-52.406857 0-105.764571 9.325714-154.294857 24.137143-15.104 4.132571-21.211429 17.334857-17.664 30.171428 3.84 12.873143 16.054857 19.931429 32.109714 15.433143z m504.32 154.294857c76.214857 0 130.523429-48.859429 130.523429-117.028571 0-66.816-51.419429-116.004571-116.041143-116.004572-57.197714 0-101.558857 38.875429-111.213714 91.282286-3.218286 14.445714 4.498286 27.318857 17.371428 29.878857 13.165714 2.925714 25.709714-4.827429 29.549714-21.211428 5.778286-31.158857 32.804571-52.370286 64.292572-52.370286 37.924571 0 68.132571 27.940571 68.132571 68.461714 0 41.142857-32.438857 69.412571-82.578285 69.412572-98.048 0-204.8-55.954286-333.641143-55.954286-66.56 0-127.305143 10.605714-185.490286 30.573714-14.445714 4.827429-20.882286 17.664-17.334857 30.537143 3.84 12.836571 16.713143 20.224 32.109714 14.774857 53.028571-19.273143 108.032-27.977143 170.715429-27.977143 127.597714 0 224 55.588571 333.641143 55.588572z m-205.677714 230.144c50.761143 0 90.624-38.253714 90.624-92.269714 0-77.787429-79.36-120.832-224.365714-120.832a579.657143 579.657143 0 0 0-179.346286 29.878857c-14.774857 5.12-21.211429 17.993143-17.664 30.537143 3.84 13.165714 16.713143 20.589714 32.109714 15.104a500.224 500.224 0 0 1 164.937143-27.977143c114.395429 0 176.420571 28.635429 176.420571 73.289143 0 27.648-18.944 44.361143-42.715428 44.361143-23.478857 0-37.961143-15.433143-42.788572-40.155429-3.510857-13.165714-14.445714-22.528-29.257142-19.931428-15.067429 2.230857-21.211429 16.384-17.956572 30.866285 8.338286 43.373714 41.764571 77.129143 89.965714 77.129143z" /></svg>