<?xml version="1.0" standalone="no"?><!DOCTYPE svg PUBLIC "-//W3C//DTD SVG 1.1//EN" "http://www.w3.org/Graphics/SVG/1.1/DTD/svg11.dtd"><svg class="icon" width="200px" height="200.00px" viewBox="0 0 1024 1024" version="1.1" xmlns="http://www.w3.org/2000/svg"><path fill="#000000" d="M262.875429 696.685714c-13.494857 13.531429-14.116571 37.668571 0.365714 51.785143 14.116571 14.153143 38.217143 13.824 51.712 0.329143l196.754286-197.046857 197.010285 197.046857a37.156571 37.156571 0 0 0 51.748572-0.329143c13.824-14.482286 14.153143-37.924571 0-51.748571l-196.717715-197.046857 196.717715-196.717715a36.864 36.864 0 0 0 0-51.748571c-14.482286-13.824-37.924571-14.116571-51.748572-0.329143l-197.046857 197.046857L314.953143 250.88c-13.494857-13.494857-37.924571-14.116571-51.748572 0.365714-14.116571 14.116571-13.824 38.217143-0.329142 51.712l197.046857 196.754286-197.046857 197.010286z" /></svg>